<?xml version="1.0" encoding="utf-8"?>
<!-- Generator: Adobe Illustrator 17.1.0, SVG Export Plug-In . SVG Version: 6.00 Build 0)  -->
<!DOCTYPE svg PUBLIC "-//W3C//DTD SVG 1.1//EN" "http://www.w3.org/Graphics/SVG/1.1/DTD/svg11.dtd">
<svg version="1.1" xmlns="http://www.w3.org/2000/svg" xmlns:xlink="http://www.w3.org/1999/xlink" x="0px" y="0px"
	 viewBox="0 0 605 648" enable-background="new 0 0 605 648" xml:space="preserve">
<g id="_x33_">
	<path fill="#F5905F" d="M200.5,260.8c1.6-3.7,3.2-7.4,4.7-11c5.6,16.4,17.9,29.2,38.6,29.4c16.1,0.1,28.1-13,37.1-24.7
		c10.4-13.6,18.4-28.9,26.3-44c20.2,15.4,52.2,25,51.5,54.1c-0.4,15.7-16.2,27.9-30.7,29.3c-21.4,2-29.9-23.8-17.5-38.5
		c5.9-6.9-4.1-17-10-10c-9.3,10.9-14.1,26-7.9,39.7c6,13.4,18.2,22.1,32.9,23c16.1,1.1,31.6-8.7,40.4-22.3c0.2-0.1,0.3-0.2,0.5-0.4
		c25.8-25.5,46-55.9,59.6-89.2c4.8,4.1,9.7,8,14.5,12.1c-4,3-7.9,6.3-11.5,10c-11.8,11.9-18.1,27.6-17.5,43.9
		c4.4-0.3,8.7-1,13.1-1.1c-0.8-16.9,12.8-32.8,26.8-42.9c0.3,0.3,0.7,0.7,1.1,1c13,13.3,19.7,28.7,14.7,47.1
		c-2.1,7.6-6.5,14.5-13.5,18.3c-2.3,1.2-4.8,1.8-7.4,1.8c-2.3,0-4.1-0.7-6.3,0.5c-3.4,1.8-4.8,6-2.9,9.4c0.9,1.6,2.8,2.9,4.5,3.6
		c3.1,1.4,7.2,0.5,10.4-0.1c16.7-3,26.3-18.1,29.9-33.6c4-17.2-0.7-33.2-11-47.1c-2.1-2.9-4.5-5.6-6.9-8.3
		c26.7-12.9,58.5-12.2,85,1.2c8.1,4.1,15.3-8.1,7.1-12.2c-32.2-16.4-71.5-16.3-102.9,0.5c-7.1-6.3-14.5-12.2-21.6-18.4
		c2.9-8.5,5.4-17.1,7.5-25.8c0.6-2.6,1.2-5.4,1.7-8.4c-4.6,0.5-9.3,0.2-14,1.1c-1.4,7.6-3.8,15.3-6.3,22.6
		c-10.3-11-19.7-25.2-16.5-39.6c1.3-6,5.4-11.7,11.3-13.5c4.6-1.4,7.7,0.6,9.7,3.8c1.7,1.7,3.3,3.3,6,3.8c2.2,0.4,6.1-0.8,6.7-3.3
		c0.6-2.4,0.2-7.3-1.3-9.3c-2.4-3.2-5.8-5.8-10.3-7.5c-18.5-7-34,9-36.5,26.5c-2.6,18.1,9.1,36.2,20.7,48.9c1.6,1.7,3.2,3.4,4.8,5
		c-9.8,26-24.3,50.1-42.1,71.4c-0.1-0.8-0.2-1.6-0.4-2.3c-6.1-30.2-35.8-39.6-57.1-56.6c10.5-17.3,21.6-47.7-3.6-54.9
		c-13.2-3.8-23.7,8.1-26.6,19.7c-3.3,13.2,3.4,26.7,11.7,36.9c-10.1,19.1-20,39.5-34.9,55.4c-18.7,19.8-42.8,3.8-46-19.4
		c0.2,0,0.3,0,0.5,0c14.2-2.4,26.9-8.6,35.6-20.4c7.1-9.8,9.2-26.4,1.5-36.3c-8.2-10.5-23.3-11.1-33.6-3.3
		c-11.3,8.6-15.1,25.7-17.1,39c-0.3,2.1-0.5,4.3-0.7,6.4c-0.5,0.6-0.9,1.2-1.2,1.9c-2.5,6-8.8,24.1-16.1,39.4
		C189.8,262.2,195.1,261.3,200.5,260.8z M311.7,159.6c3.4,4.8-0.7,13.2-2.3,17.8c-1.3,3.8-2.8,7.2-4.6,10.5
		c-2.8-4.1-4.9-8.7-6.1-13.6C297.2,168.3,304.2,149.2,311.7,159.6z M233.3,185c13.4-3.7,10.5,15.2,7.3,21.6
		c-4.7,9.3-15.5,13.3-25.3,15.3C216.3,206.8,221.2,188.4,233.3,185z"/>
	<path fill="#F5905F" d="M128.7,222.5c-0.6,21.5-1.1,62.6,16,77.2c3.5,3,7.5,5.4,12.1,6.2c2.7,0.5,5.9,0.6,8.4-0.7
		c5.6-2.8,4.9-10,0-13.2c-3-2-6.1-0.3-9.2-1.9c-3-1.5-5.3-4.2-7-6.9c-6.7-10.3-5.4-40.3-5.8-52c-0.2-5.9-0.1-11.9,0.1-17.8
		c13.5-10.5,24.2-24.8,32.3-39.6c4-7.3,8.6-16.4,11.7-24.5c-4.5-1.6-9-3.4-13.5-5.1c-6,16.1-15.1,32.7-26.3,45.7
		c-0.9,1-1.9,2.1-2.9,3.1c0.1-1.4,0.3-2.8,0.4-4.2c1.5-14.8,4.5-29.3,8.4-43.7c3.4-12.5,6.1-26.2,12.7-37.4c2.2-3.7,6.1-8.1,10.9-7
		c2.2,0.5,2.8,5.7,3.1,7.3c0.8,4.3-0.7,9,2.3,12.7c1.1,1.4,3.3,3.2,5.2,3.2c2.2,0,3.9-0.6,5.2-2.7c0.9-1.5,1.5-3.2,1.8-5
		c0.7-13.3-3.4-28.8-18.8-29.9c-21.9-1.7-28.6,29.5-33,44.7c-7.2,24.3-11.6,48.8-13.2,74c-27.6,17.5-68.3,23.5-84.4-9.6
		c-4-8.2-16.2-1-12.2,7.1C50.4,238.7,96.9,238.3,128.7,222.5z"/>
	<path fill="#F5905F" d="M94.1,553c-1-6.2-2.7-12.4-5.2-18.3c-11-25.5-42-33.8-63-14.4c-7.4,6.8,3.6,17.7,10.9,10.9
		c8.3-7.6,21-8.9,30-1.6c7.1,5.7,9.8,14.9,11.6,23.4c3.6,17.3,1.4,35.4,1.6,53c0,2.5,1.1,4.4,2.6,5.7c3,5.1,12.3,5.8,14.2-1.6
		c7.3-27.6,11.5-56.5,21.4-83.4c0.7-2,1.6-4,2.4-6c-5.3-0.6-10.6-1.4-15.9-2.5C100.3,529.4,97,541.1,94.1,553z"/>
	<path fill="#F5905F" d="M588.8,540.5c-28.2-12.8-52.9,6.5-68.7,28.8c-8.8,12.3-15.4,26.1-25.4,37.6c-4.8,5.5-11.5,11.3-19.4,10.2
		c-7.2-1.1-11.1-9.7-13.3-15.7c-3.5-9.6-5-20-5.2-30.4c16-2.7,31.6-8.3,41.4-22.3c9.4-13.4,15.6-36.5,3.4-50.4
		c-11.3-13-29.1-10.1-40.8,0.4c-14.5,12.9-16.4,36.5-18.6,54.4c-0.1,1.1-0.2,2.2-0.3,3.4c-2.3,10.9-5.2,21.7-9,32.2
		c-3.1,8.8-7,17.2-11.2,25.5c-1.9,3.8-11.7,24.1-17.1,15.7c-3.7-5.7-3.4-15.3-4.1-21.7c-1-9.6-1.5-19.3-1.7-29
		c-0.4-19.9,1.1-39.7,4.3-59.3c1.4-8.5-9.9-12.8-13.8-7.1c-0.7,0.5-1.4,1.2-2,2c-8.1,11.1-21.8,16.8-35.1,14.5
		c0.8-1.4,1.6-2.9,2.3-4.4c-3-0.7-6-1.7-8.9-2.7c-2.1-0.7-3.9-1.4-5.7-2.4c-0.6,1.2-1.3,2.3-2,3.5c-11.5-8.3-18.8-23.9-11.4-37.1
		c3.7-6.6,11.2-7.1,16.4-3.4c2.1,0.9,4.3,1.1,6.5,0.6c3.3-1.3,6.1-3.6,6.9-6.8c0.3-2.4-1.1-4.3-2.6-6.1c-3.2-2.7-7.3-4.5-12.7-5.2
		c-24.3-3.2-35.7,21.3-31.9,41.9c2.2,11.7,9.8,21.6,19.6,28.5c-4.1,4.5-8.6,8.6-13.5,12.2c-4.3-16.3-16.8-30-34.6-31.1
		c-15.7-1-27.8,10.8-28.9,24.8c-2.4,1.1-4.5,3.3-4.8,6.5c-0.8,6.7-0.7,13.9,0.4,20.9c-4.2,10-7.8,20.1-11.7,30.2
		c-3.7,9.7-9.7,27.6-20.4,31.6c-10.7,3.9-7.4-21.4-7.1-25.6c1.2-14.9,4.1-29.6,5.6-44.4c2.2-20.4-5.8-45.6-31.4-41
		c-5.9,1.1-11.3,3.6-16.2,7.1c-0.4-3.7-0.8-7.4-1.2-11.1c-1.3-11.4-3.2-23.4-11.4-32.1c-3-3.2-6.5-5-10.2-5.6
		c-2.3-0.4-5.8,1.3-7,3.2c-1.6,2.6-1.5,6.2,0.3,8.7c0.8,1.2,2.1,2.5,3.4,3.1c1.2,0.4,2,0.5,3,1.4c1.6,1.5,2.5,3.7,3.3,5.7
		c1.4,3.9,2.2,8,2.8,12.1c1.5,9.1,2.7,18.7,3.3,28.3c-7.6,9.8-13.5,21.3-18.2,30.9c-4.2,8.7-9.5,19.7-4.7,29.2
		c3.3,6.4,9.7,10.5,17.1,10.3c11.9-0.4,16.7-13.2,18.7-23c2.8-13.3,3.1-27.2,2.5-41.1c0.8-1,1.7-2,2.5-2.9c4.5-5,10-8.8,16.9-9.3
		c9-0.6,11.4,8,11.8,15.2c1.3,26.1-11.1,52.6-5.8,78.7c4.2,20.5,26.5,21.5,39.2,8.5c12-12.2,17.6-30.2,23.4-46.9
		c5,6.8,12.2,11.8,22.1,13.2c23,3.4,37-17.9,39-38.1c10-5.9,18.9-13.6,26.2-22.6c2,0.7,4.1,1.3,6.1,1.7c12.9,2.7,25.7-0.5,36.3-7.4
		c-1.8,17.6-2.5,35.2-1.7,53c0.5,12.3,1.8,24.7,3.8,36.8c1.3,8,5.3,15.8,12.9,19.3c20.1,9.1,32.6-19.6,39-33.1
		c2.3-4.8,4.3-9.7,6.3-14.6c6.3,24.1,20.6,43.7,47.7,29.6c16.2-8.4,25.7-28.8,35-43.4c10.5-16.6,29.8-41.2,52.6-30.8
		C590,558,597.9,544.7,588.8,540.5z M459.3,540.9c1.8-12.4,5-26,14.9-33.3c5.2-3.8,12.9-3.8,16.5,2c4.3,7,1.6,17.5-1.5,24.3
		c-5.9,12.9-18.3,18.7-31.4,21.4c0.6-3.5,1.2-7.1,1.7-10.7C459.8,543.3,459.6,542.1,459.3,540.9z M150.4,583.9
		c-0.7,3.9-1.7,8.8-4.5,11.7c0-0.1-0.2,0-1.1-0.3c-5.5-1.5,2.9-16.4,4.1-18.9c1-2.1,2.2-4.3,3.3-6.4
		C151.8,574.7,151.2,579.4,150.4,583.9z M289.3,586.4c-8.5,5.2-17.7-0.2-22.7-7.4c-2.8-4-4.1-8.6-4.7-13.5
		c9.8,8.9,24.5,10.6,37.9,7.2C297.7,578.4,294.2,583.4,289.3,586.4z M267.7,547.3c-2.8-7.1,1.8-12.6,8.3-14.6
		c7.2-2.2,13.7,1.8,18.4,6.9c4,4.3,6.3,10.1,7.1,16.2C288.9,560.8,273.5,561.8,267.7,547.3z"/>
</g>
<g id="_x32_">
	<path d="M502.6,309.8c-3.3-6.2-8.1-12.3-14.6-18.4c-2.5-2.3-5.2-4.5-8.1-6.6c-6.4,10.9-16,18.2-27.3,20.2l-0.7,0.1
		c-1.9,0.4-4.3,0.8-6.7,0.8c-2.3,0-4.3-0.4-6.1-1.2c-2.2-1-5.3-2.8-7-5.9c-1.6-2.8-1.9-6.1-1-9.2c0.9-3.2,3.1-5.9,6.1-7.5
		c1.7-0.9,3.5-1.4,5.4-1.4c0.7,0,1.4,0.1,2.2,0.1c0.4,0,0.9,0.1,1.3,0.1c0,0,0,0,0,0c1.8,0,3.3-0.4,4.7-1.2c2.8-1.5,5.2-3.8,7.1-6.6
		c-7.5-2.8-15.7-4.7-24.6-5.6c-11.5-1.2-23.8-0.2-36.9,3.1c-4.4,1.2-8.7,2.5-12.9,4c-4.3,5-8.8,9.8-13.6,14.5
		c-0.1,0.1-0.1,0.1-0.2,0.2c-9.8,14.9-25.9,24.1-42,24.1c-0.9,0-1.9,0-2.8-0.1c-0.9-0.1-1.8-0.2-2.7-0.3
		c-8.3,8.3-15.5,17.4-21.6,27.3c0.9,5.4,1.5,11,1.8,16.7c0.6,14.2-1,29-4.6,43.9c-3.1,12.7-7.9,25.1-14.3,37.1
		c2,9.1,5.1,18.1,9.2,27.3c3.5,7.7,7.6,14.5,12.3,20.6c1.6-5.5,4.2-10.6,7.6-14.8c6.2-7.5,14.6-11.4,24.3-11.4
		c1.6,0,3.3,0.1,4.9,0.3c6.1,0.8,11.2,3,15.4,6.4l0.4,0.4l0.3,0.4c1.6,2,4.3,5.4,3.7,10.1l0,0.2l-0.1,0.2c0,0.1-0.1,0.2-0.1,0.3
		c-0.5,6.3-5.8,11.3-12.2,11.3c-0.9,0-1.8-0.1-2.6-0.3c-2-0.1-3.9-0.5-5.8-1.3l-0.5-0.2l-0.5-0.3c-1.2-0.8-2.5-1.3-3.9-1.3
		c-1.4,0-3.3,0.5-4.7,3c-3.6,6.4-2.6,13.5,0.7,19.7c4.5,2.5,9.1,4.6,13.9,6.4c8.6,3.1,17.6,5,26.8,5.8c4-2.2,7.6-5.2,10.4-9.1
		c0.7-1,1.6-1.9,2.6-2.7c2.2-2.6,5.4-4.1,9-4.1c4.1,0,8.2,1.9,10.8,5c2.2,2.5,3.2,5.7,3.1,9c2.4-0.4,4.8-0.9,7.2-1.5
		c11.4-2.7,22.1-6.7,32-11.9c0.4-0.2,0.9-0.5,1.3-0.7c2.2-3.7,4.9-7.1,8.3-10.1c5.2-4.6,11.3-7.8,17.6-9.4
		c13.2-13.9,23.2-28.5,30-43.7c7.2-15.9,11.5-31.7,13.2-47.3c1.6-15.6,1-30.8-2-45.3C513.1,334.4,508.6,321.4,502.6,309.8z
		 M439.4,390.6c-0.5,5.4-1.8,11.3-4.1,17.8c-2.2,6.5-5.8,13.5-10.6,21c-3.3,5-7.4,9.4-12.2,13.2c-4.8,3.8-10,6.6-15.5,8.5
		c-5.5,1.9-11.1,2.7-16.7,2.5c-5.6-0.3-10.6-1.8-14.9-4.6c-4.3-2.8-7.9-7.1-10.7-12.9c-2.8-5.8-4.1-13.3-3.9-22.6
		c0-9.9,1.7-18.8,5.1-26.9c3.4-8.1,7.7-15,12.9-20.7c5.2-5.7,11-10.1,17.4-13.3c6.4-3.2,12.6-5,18.8-5.4c6.2-0.4,11.9,0.8,17.2,3.5
		c5.3,2.7,9.4,7.2,12.3,13.3c1.7,3.5,3.1,7.4,4.1,11.9C439.6,380.2,439.8,385.2,439.4,390.6z"/>
	<path d="M297,357.3c-0.6-13.7-3.2-26.6-7.8-38.5c-4.6-12-11.3-22.1-20-30.4c-2.9-2.8-6.1-5.3-9.4-7.5c-4.8,2.3-10.1,3.7-15.8,3.7
		l-0.3,0c-14.8-0.1-27.1-6.4-35.5-17.5c-4.5,0.2-9.1,0.6-13.9,1.4c-14.3,1.7-28.7,3.7-43.2,6c0.6,2.4,1.3,4.5,2.3,5.9
		c1.7,2.6,3.3,4.3,4.9,5.1c0.4,0.2,1,0.2,2.1,0.2c1.9,0,4.8,0.1,7.7,2c4.2,2.7,6.6,7.4,6.3,12.2c-0.2,4.4-2.8,8.2-6.9,10.3
		c-2.1,1.1-4.6,1.6-7.3,1.6c-1.4,0-2.9-0.1-4.4-0.4c-5-0.9-9.9-3.4-14.6-7.4c-6.8-5.8-11.1-14.9-13.9-25.6
		c-11.8,2-23.6,4.1-35.6,6.4l4.6,226.2c18.9,2.4,34.8,3.7,47.7,4c-0.1-0.5-0.2-1.1-0.3-1.6c-0.7-4.1-1.3-7.8-2.6-11.1
		c-0.4-1.2-1-2.6-1.8-3.5c0,0-0.1,0-0.1,0c-0.4-0.1-0.8-0.3-1.3-0.4c-2.7-1.1-4.7-3.3-5.9-5c-0.2-0.3-0.4-0.7-0.6-1
		c-1.5-2-2.4-4.6-2.4-7.1c0-5.9,4.3-10.9,10-11.8c1.1-0.3,2.3-0.5,3.4-0.5c0.6,0,1.1,0,1.7,0.1c5,0.9,9.5,3.4,13.1,7.2
		c9.1,9.6,11.4,22.2,12.8,34.5c2.9-0.2,5.5-0.4,7.9-0.6c8-0.9,15.4-2.4,22.1-4.5c17-7.9,31.7-17.7,44.2-29.4
		c12.4-11.7,22.7-24.3,30.7-37.9c8-13.6,13.8-27.7,17.4-42.3C296.1,385.1,297.6,371,297,357.3z M218.2,388.5c0,3.1-0.7,7.4-2.2,12.8
		c-1.4,5.4-3.9,10.9-7.4,16.3c-3.5,5.5-8.7,10.8-15.5,15.9c-6.9,5.1-15.8,8.9-26.8,11.4l2.9-83.1c8.7-7,16-10.7,22-11.3
		c6-0.6,10.7,0.6,14.2,3.6c3.5,3,6.2,6.8,8.1,11.4c1.9,4.6,3.2,8.6,3.8,12c0.6,3.4,0.9,5.2,0.9,5.6
		C218.2,383.5,218.2,385.3,218.2,388.5z"/>
	<path d="M416.7,98.8c3.6,0,7.2,0.7,10.7,2c5.2,2,9.5,5.1,12.6,9.2c2.9,3.7,3.1,10.4,2.3,13.7c-1.1,4.9-6.4,7.5-11,7.5
		c-0.7,0-1.3-0.1-1.9-0.2c-4.5-0.8-7.2-3.6-8.8-5.3l-0.4-0.4l-0.3-0.5c-1.1-1.7-1.9-1.7-2.3-1.7c-0.4,0-0.8,0.1-1.3,0.2
		c-3.6,1.1-6.6,4.9-7.7,9.5c-0.8,3.8-0.6,7.9,0.7,12.2l38.7-4.4l0.3-20.8l31.8,29.9l22.9-34.4l-40.3-33.9l45.7-42.4L476.4,1.5
		L450,38l0.5-29.6l-48,5.7l1.7,87.5C408,99.8,412.2,98.8,416.7,98.8z"/>
	<path d="M313.4,125.9l0.2,16.5c2.2,0.7,69.7-4.5,69.7-4.5c0-2.1,0.1-4.2,0.4-6.4c1.4-9.7,6.5-19.7,14.4-26l-0.6-15.1l-40.1,8.3
		l4.3-92.1l-49.3,6.9l1,111.3l0.6,1L313.4,125.9z"/>
	<path d="M100.1,145.7l34-4.2c1-4,2.1-8,3.3-12c0.4-1.3,0.8-2.7,1.2-4.1c1.9-6.7,4.3-15.2,8-23V47.8l19.6-2.3l4.3-39l-88.4,7.5
		L81,54.3l21.6-2.1L100.1,145.7z"/>
	<path d="M207.8,148l6.7-24.5l34.4-1.2l13.7,22.9l50.8-19.2l0-1.2L231.4,0c0,0-44.6,80.8-46.1,83.5c9.9,5,15.3,16.8,14.5,33l0,0.2
		l0,0.2c-0.3,2.5-1.2,4.9-2.5,7.1c-1.7,2.8-4.2,4.5-7.4,5.1c-0.7,0.2-1.5,0.3-2.3,0.3c-2.5,0-4.7-0.9-6.3-2.4
		c-1.6-1.2-2.7-2.5-3.1-2.9c-3.1-3.9-3.1-8.3-3.2-11.5c0-1.3,0-2.5-0.2-3.5c0-0.2-0.1-0.5-0.2-0.9c-0.1-0.4-0.2-1.1-0.4-1.9
		c-1.1,0.7-2.4,2.1-3.6,4.1c-3.9,6.7-6.5,14.7-8.6,22.7L207.8,148z M234.3,71.7l8.2,22.3L223,97.4L234.3,71.7z"/>
	<path d="M73.6,341.8c-11.9-8.2-23.9-16.4-35.8-24.7c-6.5-4.5-12.7,6.1-6.2,10.6c11.9,8.2,23.9,16.4,35.8,24.7
		C74,356.9,80.1,346.3,73.6,341.8z"/>
	<path d="M64.5,389.2c-19.5-0.5-39-1.1-58.5-1.6c-7.9-0.2-7.9,12.1,0,12.3c19.5,0.5,39,1.1,58.5,1.6
		C72.4,401.6,72.4,389.4,64.5,389.2z"/>
	<path d="M63.6,437.5c-10.7,9.5-21.3,18.9-32,28.4c-5.9,5.3,2.8,13.9,8.7,8.7c10.7-9.5,21.3-18.9,32-28.4
		C78.2,440.9,69.5,432.2,63.6,437.5z"/>
	<path d="M573.4,458.6c-11.9-8.2-23.9-16.4-35.8-24.7c-6.5-4.5-12.7,6.1-6.2,10.6c11.9,8.2,23.9,16.4,35.8,24.7
		C573.7,473.7,579.8,463.1,573.4,458.6z"/>
	<path d="M599.1,386.6c-19.5-0.5-39-1.1-58.5-1.6c-7.9-0.2-7.9,12.1,0,12.3c19.5,0.5,39,1.1,58.5,1.6C607,399,607,386.8,599.1,386.6
		z"/>
	<path d="M541.4,348.9c10.7-9.5,21.3-18.9,32-28.4c5.9-5.3-2.8-13.9-8.7-8.7c-10.7,9.5-21.3,18.9-32,28.4
		C526.8,345.5,535.5,354.2,541.4,348.9z"/>
</g>
<g id="_x31_">
	<path fill="#FFFFFF" d="M109.9,309.4c1,30.2,2,60.4,3,90.6c0.2,6.1,9.6,6.1,9.4,0c-1-30.2-2-60.4-3-90.6
		C119.1,303.3,109.7,303.3,109.9,309.4L109.9,309.4z"/>
	<path fill="#FFFFFF" d="M464.5,466.4c20.9-26,31.4-58.3,29.2-91.7c-0.4-6-9.8-6.1-9.4,0c2.1,30.7-7.1,60.9-26.4,85
		C454,464.4,460.7,471.2,464.5,466.4L464.5,466.4z"/>
	<path fill="#FFFFFF" d="M212.5,480.1c31.6-17.6,54.1-48.4,61.1-83.8c1.2-5.9-7.9-8.5-9.1-2.5c-6.6,33.2-27.2,61.7-56.8,78.2
		C202.4,474.9,207.1,483.1,212.5,480.1L212.5,480.1z"/>
	<path fill="#FFFFFF" d="M337.3,422.5c-5.1-19.1-0.4-37.5,10.4-53.7c3.4-5.1-4.8-9.8-8.1-4.8c-12.2,18.2-17.1,39.6-11.4,60.9
		C329.8,430.9,338.9,428.4,337.3,422.5L337.3,422.5z"/>
	<path fill="#FFFFFF" d="M118.4,104.8c0.4-11.9,0.8-23.9,1.2-35.8c0.2-4.6-7-4.6-7.2,0c-0.4,11.9-0.8,23.9-1.2,35.8
		C111.1,109.5,118.2,109.4,118.4,104.8L118.4,104.8z"/>
	<path fill="#FFFFFF" d="M246.7,58.2c10.9,16.6,21.8,33.2,32.7,49.8c2.7,4.2,9.5,0.3,6.7-3.9c-10.9-16.6-21.8-33.2-32.7-49.8
		C250.7,50.1,243.9,54,246.7,58.2L246.7,58.2z"/>
	<path fill="#FFFFFF" d="M341.7,36.5c-0.8,16-1.6,32-2.4,48c-0.2,4.8,7.2,4.8,7.4,0c0.8-16,1.6-32,2.4-48
		C349.3,31.7,341.9,31.7,341.7,36.5L341.7,36.5z"/>
	<path fill="#FFFFFF" d="M461.7,65.2c7.4-7.2,14.9-14.4,22.3-21.6c3.4-3.3-1.8-8.6-5.3-5.3c-7.4,7.2-14.9,14.4-22.3,21.6
		C453,63.2,458.3,68.5,461.7,65.2L461.7,65.2z"/>
</g>
</svg>
