<?xml version="1.0" encoding="utf-8"?>
<!-- Generator: Adobe Illustrator 23.1.0, SVG Export Plug-In . SVG Version: 6.00 Build 0)  -->
<svg version="1.1" id="Слой_1" xmlns="http://www.w3.org/2000/svg" xmlns:xlink="http://www.w3.org/1999/xlink" x="0px" y="0px"
	 viewBox="0 0 720 700.1" style="enable-background:new 0 0 720 700.1;" xml:space="preserve">
<g>
	<path d="M165.8,514c-1.7-0.9-3.5-1.7-5.2-2.4c-7.4-2.8-14-2.7-21.7-1.4c-5.6,0.9-11.1,2.4-16.6,4.3c1.7-2,3.3-4,4.9-6
		c6.9-9,13-18.6,17.9-28.8c5.2-10.7,10.1-22.3,11.7-34.2c1.7-13.2-3.6-25.6-16.3-30.8c-10.9-4.4-23.3-2.6-34.3,0.4
		c-13.7,3.8-26.3,10.4-37.8,18.6c-0.4-6-1.2-11.9-2.3-17.7c-0.7-3.7-1.2-10.1-5.4-11.7c-1.7-0.7-3.6-0.5-5.4-0.3
		c-5.7,0.9-11.8,4.1-13.1,9.7c-0.1,0.6-0.2,1.2,0,1.8c0.2,0.6,0.8,1.1,1.3,1.5c3.3,2.8,5,6.1,6.2,10.2c1.7,5.6,2.6,11.5,2.6,17.4
		c0,2.8-1.8,4.1-3.6,6c-2.1,2.1-4.2,4.3-6.1,6.5c-10.1,11.2-19,23.5-27.2,36.2C7,505.9-0.7,519.7,0.1,535.1c0.2,4.4,3.6,8.2,8.2,8.2
		c28-0.2,44-29.4,52.2-52.4c4.2-11.6,6.7-23.8,7.7-36.1c9.2-8.1,19.4-15,30.7-19.9c7.9-3.4,16.7-6.1,25.4-6.4
		c4-0.2,9.3,0.2,11.9,3.9c3,4.2,1.8,10.7,1,15.4c-3.2,17.9-10.5,33.7-21.2,48.4c-8.1,11.1-17.8,21-28.6,29.5
		c3.3-9.8,7-19.4,11.3-28.8c2.7-5.8,5.3-11.8,6.2-18.2c0.5-3.7,0.4-7.7-1.5-11c-3.8-6.2-12.5-5-15.6,1.2
		c-14.4,29.2-26.6,59.5-36.4,90.5c-9.6,30.4-18.1,62.3-22.1,94c-0.8,6.7,1.5,15.3,9.3,16c46.2,4.2,85.7-24.7,111.5-60.5
		c4.5-6.3,8.8-12.7,12.7-19.5c3.5-6.1,7.7-12,10.4-18.5c3.9-9.3,7-19.5,7.1-29.7C180.3,530.2,175.7,519.6,165.8,514z M46,482.6
		c-3.4,10.6-8.1,21.3-14.9,30.2c-1.1,1.5-10.8,12.9-12,9c-0.8-2.5,2.3-6.8,3.4-8.8c1.6-3,3.4-6,5.3-8.8c6.1-9.5,12.5-18.8,19.7-27.6
		c0.1-0.2,0.3-0.3,0.4-0.4C47.3,478.2,46.7,480.4,46,482.6z M137.5,598.2c-10.6,15.3-23.9,29.2-39.5,39.4
		c-5.7,3.7-11.9,6.9-18.2,9.4c-3.2,1.2-14.4,6.7-16.6,2.7c-0.5-0.9-0.6-2.1-0.7-3.1c-0.4-7.2,1.5-14.3,2.7-21.4
		c1.3-7.7,2.6-15.3,3.9-23c1.4-7.8,2.8-15.6,4.4-23.4c0.8-3.9,1.6-7.7,2.5-11.6c0.4-1.8,0.8-3.7,1.3-5.5c0.2-0.9,0.5-4.4,1.2-5
		c15.9-12.7,34.3-22.3,53.9-28c4.1-1.2,9.1-2.6,12.7-2.9c3.6-0.3,9,0.7,11.8,3.2c3,2.7,3.5,9.2,3.6,13
		C161,562.4,148.8,582.1,137.5,598.2z"/>
	<path d="M719.6,508.8c-0.2-2.1-0.4-4-1-5.7c-1.2-4.1-3.8-6.9-9.2-8c-1.8-0.4-3.8-0.3-5.5,0.6c-0.8,0.4-1.5,1-1.8,1.9
		c-0.1,0.4-0.1,0.9-0.1,1.4c0.5,10,1.8,19.5,0.9,29.5c-0.8,10.2-3,20.3-6.3,29.9c-5.6,16.4-15.3,34.3-29.4,45
		c-7.3,5.6-17.9,8.8-26.8,5.3c-13.5-5.4-13.9-22-13.3-34.2c1.4-29.7,15.3-58.9,36.6-79.5c1.8-1.7,2.5-3.7,2.4-5.6
		c0.8-3.1,0-6.7-3.6-8.9c-8.9-5.5-17.3-12.3-24.4-20.2c12.8-18.7,20.6-40.6,26.3-62.4c3.8-14.6,8.7-35.6-3.1-48
		c-8.3-8.7-21.4-7.9-31.1-2.1c-9.6,5.7-17.3,15.3-22.2,25.2c-9.8,19.9-10.9,43.7-3.2,64.5c3.2,8.5,7.6,16.5,12.9,23.9
		c-0.6,1.3-1.2,2.6-1.9,3.9c-3.3,6-6.9,11.9-10.6,17.7c-7.1,11.2-14.7,22.1-22.8,32.7c-13.6,17.7-30.1,33.7-49.8,44.4
		c-5.3,2.9-11.1,6.7-17.4,6.3c-5.7-0.4-9.1-4.3-10.9-9.4c-3-8.7-2.8-17.7-1.1-26.7c5.7,1.2,11.7,1.5,17.7,0.2
		c5.5-1.1,10.9-4.2,15.9-6.8c9.5-5.1,17.4-12.8,24.1-21.2c8.2-10.2,14.5-21.5,18.8-33.8c3.1-9,4.4-18.6,3.6-28.1
		c-0.8-9.6-3.4-24.2-14.4-27.2c-8-2.2-18,0.8-24.8,5.1c-6.1,3.9-11.2,8.6-16.3,13.7c-4.8,4.9-9.7,9.8-13.5,15.5
		c-8.4,12.4-16.4,24.9-21.9,39.1c-5.4,13.9-8.8,28.5-10,43.3c-0.1,0.1-0.2,0.2-0.2,0.3c-3.6,6.3-26.2,45.6-35.2,35.2
		c-2.2-2.5-2.5-6.1-2.6-9.4c-1.4-42.6,11.1-84.1,25.1-124.5c14.6,1.2,30.2-0.3,43.4-6.2c9.1-4.1,24.5-16.5,21.1-28.5
		c-1.5-5.2-7.4-5.2-10.8-0.1c-10.5,15.8-29.8,19.7-48,18.8c0.2-0.4,0.3-0.9,0.5-1.3c2.2-6.3,11.2-21.6,9.5-27.7
		c-1.8-6.8-11.7-7.4-15.1-1.8c-5.7,9.1-10.9,18.4-15.7,27.9c-12.7-2.6-25.3-6.1-37.8-9.2c-14.4-3.6-28.9-7.2-43.3-10.8
		c-29.1-7.2-58.4-16.1-88.3-18.5c-26.1-2.1-54.8,2-76.2,18.3c-16.1,12.3-30.3,28.2-25.8,49.8c2.6,12.8,14.2,27.2,28.6,22.4
		c1-0.3,2.1-0.9,3.4-1.6c6.9-4.1,16.3-13.7,9.9-19.7c-1.3-1.2-3-1.8-4.5-2.6c-24.9-12.7,0.8-40.8,16.6-46.2
		c18.4-6.2,39.5-5.7,58.5-3c27.9,4,52.4,11.9,79.7,18.8c-9.7,19.6-15.6,39.9-24.3,60c-3.2,4.9-6.4,9.8-9.7,14.7
		c-12.6,19.1-24.3,38.4-39.8,55.3c-14.9,16.2-31.9,30.4-50.6,42.1c-5.7,3.6-11.6,6.9-17.5,9.9c-5.8,3-15.3,7.7-21.3,2.4
		c-9-7.9-3.8-26.2-0.2-37.7c11.2-1.8,21.3-2.4,31.7-7.7c8.7-4.4,16.5-10.4,24-16.7c14.5-12.4,23.6-30.1,29.2-47.9
		c3.6-11.3,8.7-23,7.3-35.2c-1.9-16.8-23.2-18.8-35.3-12.4c-33.7,17.8-55.6,53-70.5,87.2c-7.7,17.6-14,38.1-14.7,57.5
		c-0.2,6.8,0.9,13.9,4.3,19.8c10.7,18.6,35.6,13.9,51.5,6c27.2-13.4,52-32.3,72.6-54.5c4.7-5,9.3-10.3,13.6-15.6
		c-0.6,2.1-1.2,4.3-1.5,6.7c-0.9,5.8-1.8,11.6-2.7,17.4c-3,19.3-7,45,9.3,59.7c10.1,9.1,28.8,0.4,37.3-7.6
		c9.3-8.7,17.7-18.5,25.6-28.4c7.4-9.2,14.4-18.6,21.2-28.3c0.2,1.8,0.3,3.6,0.6,5.4c1.4,9.5,5.2,20,13.2,25.9
		c7.5,5.5,16.9,4.3,24.7,0c9.1-5,16.6-13.5,23.3-21.3c2.5-2.9,4.9-6,7.3-9.1c0.9,4.4,2.3,8.7,4.4,12.6c6.5,12,19.2,14.8,31.8,12.1
		c11.9-2.5,23.4-9.2,33.3-16c11.1-7.6,21.2-16.6,30.3-26.6c10.9-11.9,20.4-25.2,29.4-38.5c4.8-7.2,9.5-14.5,13.9-22
		c1-1.7,2-3.3,2.9-5c3.8,3.7,7.7,7.3,11.4,11.3c-0.6-0.6-12.3,16.6-13.4,18.2c-4.3,6-8.1,12.2-11.4,18.8
		c-6.5,13.1-10.9,27.4-12.7,41.9c-2,15.8-3.3,32.1,5.4,46.2c5,8.2,13.2,14.7,22.6,17c11,2.7,21.3-0.2,31.7-4.1
		c20.8-7.7,35-28.6,43.9-48c6.3-13.9,10.5-28.9,12-44.1C720.1,524.3,720.2,516.6,719.6,508.8z M516.5,489.9c1.5-3.4,3.2-6.7,4.9-10
		c4.7-9,9.7-17.8,15.4-26.2c2.9-4.2,6-8.4,9.4-12.3c2.6-3,11.6-15.1,16.7-9.7c1.9,2,1.6,5.8,1.6,8.4c0.3,11.8-2.4,23.6-7,34.5
		c-4.9,11.9-12.5,23.3-23.2,30.8c-7.9,5.5-16.1,7.4-25.4,8.9C510.4,505.9,513,497.7,516.5,489.9z M224.3,522
		c7-17,14.4-34.3,26.5-48.6c1.4-1.6,5.3-6.3,9.8-10.8c6.9-6.8,15.4-13.2,18.9-7.4c0.8,1.4,0.7,3.2,0.5,4.8
		c-2.4,18.2-11,36.7-22.3,51c-10.5,13.3-24.5,24-40.6,29.3C219.9,534.4,221.8,528.2,224.3,522z M422.6,499.8
		c-2.3,8.3-4.4,16.8-6,25.4c-8.7,13.2-17.6,26.3-27.1,38.9c-7,9.2-14.3,18.1-22.1,26.6c-5,5.4-16.5,16.2-20.7,5
		c-3.4-9,0.7-24.4,2.1-33.7c2.6-17.1,6-34.2,10.3-51c8.4-33.2,20.1-65.5,35.4-96.1c9.1,2.3,18.2,4.5,27.3,6.8
		c8.5,2.1,16.9,4.3,25.5,6.2c-1.9,4.1-3.7,8.2-5.4,12.4C433.8,459.7,428.1,479.7,422.6,499.8z M628.6,445.3c-0.4,0-0.8,0.1-1.2,0.2
		c-9.9-16.4-14-35.7-8.1-55.5c2.4-8.1,6.6-15.8,12.5-22c2.8-2.9,6-5.8,9.8-7.4c1.7-0.7,3.4-1.1,5.2-0.9c0.2,0,0.8,0.2,1.2,0.4
		c0.4,0.2,1.5,0.9,1.2,0.6c1.9,1.5,2,2.3,2.6,4.9c0.6,2.2,0.4,1.9,0.5,3.9c0.1,1.8,0.1,3.7,0,5.5c-0.3,5.8-1.7,11.8-3.4,18.2
		C644.3,411.4,638.1,429.2,628.6,445.3z"/>
	<path d="M527.4,606.8c-0.4,3.1,2.7,5.3,5,7.5c6.1,5.6,8.2,16.7,6.5,24.6c-1.2,5.8-5.3,10.7-10.1,14c-4.9,3.3-10.6,5.3-16.3,6.9
		c-15.2,4.2-30.1,2.9-45.8,1.9c-16.3-1-32.4-3.2-48.5-5.9c-33-5.6-65.6-13.4-98.6-19.5c-16.8-3.1-33.7-5.6-50.6-7.3
		c-23.1-2.2-48.4-3.3-69,9.5c-8,5-14.7,12.8-16.3,22.1c-0.6,3.7-0.5,7.5-0.1,11.2c0.5,5.2,1.6,10.5,4.5,14.9
		c4.4,6.6,11.6,10.1,18.7,12.8c4.5,1.7,9.4-2.2,10.5-6.4c1.2-4.6-1.8-7.3-3.8-10.8c-0.2-0.4-0.5-0.9-0.7-1.3c-0.9-2-1-4.3-0.9-6.5
		c0.3-7.6,2.4-15.3,7.3-21.1c14.7-17.4,50.7-8.4,69.7-5.6c16.4,2.3,32.8,5.4,49,8.7c32.6,6.6,65.1,14,98.2,18.4
		c16.5,2.2,33.1,3.7,49.7,3.8c16.3,0.1,32.9-0.9,47.9-7.8c13.6-6.2,25.9-18.8,28.4-34c1.8-11.2-1.4-24.5-9.9-32.4
		C547.4,600.2,528.7,597.4,527.4,606.8z"/>
	<path d="M135,162.5v229.6c-12.1-3.1-24.8-4.3-37.3-3.1c-4.2,0.4-4.2,7,0,6.6c22.2-2,44.4,3,63.5,14.5c0.5,0.3,1,0.4,1.4,0.5
		c1.4,1.1,3.7,1.3,5-0.7c15-23.4,39.2-41.5,66.8-46.5c4.2-0.8,2.4-7.1-1.7-6.3c-3,0.6-6,1.3-9,2.1c0-9.5,0-19.1,0-28.6
		c0-19.9,0-39.8,0-59.7c0-15.8-0.1-31.6-0.1-47.4c8.4,0,15.9,0.1,23.1,5.3c7.1,5.1,11.7,13,14.8,20.9c6.9,17.6,10.4,41.3,10.4,71
		c0,12.5-0.5,23.7-1.3,33.7c-3.2-0.2-6.4-0.4-9.6-0.5c-4.2-0.2-4.2,6.4,0,6.6c61.3,2.2,120.5,19.1,178,39.5c0.2,0.1,0.3,0,0.5,0.1
		c0.4,0.4,0.8,0.6,1.3,0.8c1.9,0.5,3.4-0.7,4-2.3c3.4-8.5,8.8-16.7,16-22.4c7.9-6.3,17.6-8.1,27.2-5.1c4,1.3,5.8-5.1,1.7-6.3
		c-4-1.3-8.1-1.7-12.1-1.6c-0.8-11.4-1.2-24.1-1-38.3c0-14.2,0.5-27.3,1.6-39.4c1-12.1,2.8-22.5,5.2-31.4c2.4-8.8,5.4-15.6,8.8-20.5
		c3.5-4.8,7.6-7.3,12.4-7.3c4.8,0,8.9,2.4,12.2,7.3c3.3,4.8,6,11.6,8,20.2c2.1,8.6,3.5,18.9,4.4,30.8c0.9,11.9,1.3,24.8,1.3,38.6
		c0,20-0.8,37.2-2.3,51.8c-6.3,0.8-12.4,2.8-18.2,6.1c-3.7,2.1-0.4,7.8,3.3,5.7C533.6,375,560.7,382,574,401c1.5,2.1,5.5,2.2,6-0.8
		c5.6-30.7,26.5-62.3,58.9-68.3c4.2-0.8,2.4-7.1-1.7-6.3c-4.9,0.9-9.6,2.5-14.1,4.4c0.1-3.6,0.1-7.2,0.1-10.9
		c0-16.6-1.5-34.8-4.4-54.7c-2.9-19.9-8.6-38.5-17.1-56c-8.5-17.4-20.2-32-35.2-43.5c-15-11.6-34.6-17.4-58.8-17.4
		c-21.4,0-39.9,5.3-55.5,15.8c-15.5,10.5-28.3,24.2-38.4,40.9c-10,16.8-17.4,35.8-22,57c-4.7,21.2-7,42.8-7,64.5
		c0,16.9,1.3,33.9,3.8,50.8c-9.5-2.8-19-5.4-28.5-7.8c2-14.1,3-28.9,3-44.5c0-32.5-3.5-60.4-10.6-83.7
		c-7.1-23.3-18.6-42.2-34.5-56.8h0.5c-12.4-11.1-27-19.4-43.8-25.1c-16.8-5.7-37.1-8.6-60.9-8.6c-14.9,0-28.8,0.7-41.7,2.1
		c-13,1.4-23.8,2.9-32.4,4.7C136.6,157.5,135,159.4,135,162.5z M439.9,393.2c-13.9-4.9-27.8-9.6-41.9-13.9c-0.1-1.8-0.3-3.7-0.4-5.7
		h55.9C447.7,379.1,443.2,386,439.9,393.2z M396.7,356.7c-0.2-5.9-0.4-11.7-0.5-17h69.2c0,5.4,0.1,11.4,0.2,17H396.7z M575.1,392
		c-9-9.7-21.4-15.8-34.3-17.2c0-0.4,0-0.8,0-1.2h40.7C578.8,379.6,576.6,385.8,575.1,392z M591.3,356.7h-50c0.1-5.8,0.2-11.6,0.3-17
		h65.6C601.2,344.6,595.9,350.3,591.3,356.7z M612.1,319c0,0.6,0,2,0,3.8h-70.4c0-5.8-0.1-11.4-0.3-17h70.3
		C612,310.3,612.1,314.7,612.1,319z M610.5,288.8h-69.9c-0.1-1.7-0.2-3.4-0.3-5.1c-0.3-4.1-0.7-8.1-1.1-11.8h69.4
		C609.3,277.7,610,283.3,610.5,288.8z M605.8,254.9h-69.3c-0.3-1.3-0.5-2.6-0.8-3.8c-1.2-4.9-2.5-9.2-4.1-13.1h69.9
		C603.1,243.5,604.6,249.2,605.8,254.9z M458.5,172.5c1.3-0.9,2.6-1.6,3.9-2.4h92.1c1.8,1.1,3.5,2.3,5.2,3.6
		c5.2,4,10.1,8.5,14.5,13.4h-133C446.4,181.6,452.2,176.8,458.5,172.5z M423.5,209.9c1.2-2,2.5-4,3.8-5.9h159.4c1.8,3,3.5,6,5,9.2
		c1.2,2.6,2.4,5.1,3.5,7.8h-74.7c-5.6-4.8-11.5-5.9-15.9-5.9c-4.5,0-10.4,1.2-16.1,5.9h-71C419.3,217.2,421.3,213.5,423.5,209.9z
		 M410.2,237.9H477c-1.7,3.9-3.1,8.2-4.5,13c-0.3,1.2-0.6,2.6-1,3.9h-66.7C406.4,249.1,408.2,243.4,410.2,237.9z M401.1,271.9h67.3
		c-0.6,4-1.1,8.1-1.4,12.5c-0.1,1.5-0.2,3-0.3,4.5h-68.3C399.1,283.2,400,277.5,401.1,271.9z M396.7,305.8h69
		c-0.2,5.5-0.3,11.2-0.3,17h-69.4C396.1,317.1,396.3,311.4,396.7,305.8z M351.4,356.7h-54.7c-4.6-0.6-9.3-1.1-13.9-1.5
		c0.1-4.8,0.2-10.3,0.2-15.5h68.8C351.6,345.1,351.5,351,351.4,356.7z M351.9,322.8H283c0-0.8,0-1.6,0-2.2c0-5.1-0.1-10-0.3-14.8
		h68.7C351.7,311.3,351.9,317,351.9,322.8z M350.2,288.8h-68.7c-0.6-6-1.4-11.6-2.4-17h69C349,277.3,349.7,283,350.2,288.8z
		 M341.8,243.7c1.1,3.6,2.1,7.3,3,11.2h-69.6c-1-3.3-2-6.5-3.2-9.4c-1-2.6-2.2-5.1-3.4-7.5h71.3
		C340.5,239.9,341.2,241.8,341.8,243.7z M146.2,170.1h127.3c11.6,4.2,22.2,9.9,31.4,17H146.2V170.1z M146.2,204h175.3
		c4.1,5.2,7.8,10.8,11,17H255c-1.6-1.3-3.3-2.5-5.1-3.6c-5.5-3.2-11.7-5.5-18.1-6c-6.7-0.6-12.6,0.1-19.4-0.1c0,3.2,0,6.4,0,9.7
		h-66.3V204z M146.2,237.9h66.3c0,5.8,0,11.5,0,17h-66.3V237.9z M146.2,271.9h66.3c0,5.7,0,11.3,0,17h-66.3V271.9z M146.2,305.8
		h66.3c0,3.5,0,6.9,0,10.4c0,2.2,0,4.4,0,6.6h-66.3V305.8z M146.2,339.7h66.3c0,5.7,0,11.3,0,17h-66.3V339.7z M146.2,373.6h47.2
		c-6.7,4.7-12.8,10.1-18.4,16h-28.8V373.6z"/>
	<path d="M66.4,78.8c0.3,0.4,1.1,1.6,2.5,3.5c4.1,5.6,12.5,17.3,25.3,35.6c2.7,4.2,3.6,4.8,3.9,5c1.2,0.7,2.3,1,3.4,1
		c0.8,0,1.6-0.2,2.4-0.6l0.3-0.2c1.5-0.8,2.5-2.1,3-4c0-0.4,0.1-2.2,0.2-4.6c0.1-4,0.3-10.4,0.7-19.3l0.2-1.2l2.1-1l0.9,0.7
		c5.6,4.5,9.9,8.1,12.9,10.7c2.2,1.9,3.8,3.2,4.5,3.7c0.9,0.6,2,1,3.2,1c0.8,0,1.6-0.2,2.3-0.5l0.3-0.1c0.7-0.3,1.4-0.8,2-1.5
		c0.9-1.1,1.4-2.4,1.4-3.8c0-0.4-0.3-1.8-0.8-4.4c-0.8-4.5-2.3-12.3-4.2-23.3c-1.6-9-2.6-15.6-3.3-20c-0.5-3-0.9-5.3-0.9-5.6
		l-0.2-0.4c-0.2-0.6-0.7-1.2-1.2-1.7c-1.3-0.8-2.6-1.2-3.9-1.2c-0.8,0-1.6,0.2-2.5,0.5l-0.4,0.2c-0.8,0.3-1.6,0.9-2.3,1.6
		c-1.1,1.1-1.6,2.4-1.7,4c0.3,2.1,2.1,12.4,5.7,30.1l0.3,1.5l-1.8,0.7h-0.4c-0.8,0-1.2-0.3-2.8-1.7c-6.9-5.8-10.2-8.3-10.6-8.6
		c-1.1-0.5-2.1-0.8-3.1-0.8c-0.9,0-1.7,0.2-2.6,0.6l-0.5,0.2c-1.9,0.9-3.1,2.4-3.6,4.5c-0.3,6.5-0.5,10.8-0.6,12.8
		c0,0.9-0.1,1.4-0.1,1.5l-0.2,1.1L93.7,96l-0.9-1.3C86,84.6,81.5,78.1,79.4,75.1c-0.8-1.1-1.2-1.8-1.3-1.9c-0.7-1.2-1.6-2-2.5-2.4
		c-1-0.4-1.9-0.6-2.8-0.6c-1,0-2,0.2-3,0.7l-0.5,0.3c-0.7,0.3-1.4,0.9-2,1.5c-2.4,3.4-1.5,5.2-1.2,5.8L66.4,78.8z"/>
	<path d="M164.2,91.7c0.5,1.3,1.4,2.3,2.8,2.9c0.9,0.4,1.7,0.6,2.5,0.6c0.6,0,1.1-0.1,1.6-0.2c13.7-5.4,21.9-8.2,25-9.3
		c1.4-0.5,5-1.7,5.6-2.4c1.6-1.8,2.1-3.5,1.6-5.3c-0.2-0.8-0.7-1.6-1.3-2.2c-1.3-1-2.5-1.6-3.9-1.6c-0.5,0-1.1,0.1-1.6,0.2
		c-1.1,0.3-8.6,2.7-21.3,7.6l-2.1,0.5l-0.4-2.1l-2.9-9.5l-0.1-0.4l-0.2-1.7l1.4-0.5c5.9-2,10.1-3.3,12.8-4.2
		c1.2-0.4,2.1-0.9,2.8-1.6c2.2-2.4,2-4.1,1.7-5.2c-0.2-0.7-0.6-1.3-1.1-1.9c-1.4-1.2-2.8-1.7-4.3-1.7c-0.7,0-1.4,0.1-2.1,0.3
		c-2.8,0.9-7,2.2-12.7,4.2l-1.8,0.6l-4.6-15.1l1.7-0.6c6.5-2.3,9.8-3.4,16.5-5.5c5.9-1.8,7-2.5,7.3-2.8c2.6-2.4,2.4-4.3,2.1-5.5
		c-0.4-1.4-1.5-2.6-2.9-3.1c-0.8-0.3-1.7-0.5-2.6-0.5c-0.6,0-1.2,0.1-1.6,0.2c-6.7,2-12.7,4-17.6,5.8c-4.4,1.5-12.5,4.4-13.4,5
		c-0.3,0.2-1.4,0.9-2.3,2.5c-0.5,0.8-0.6,1.9-0.5,3.2C148.4,44,153.5,59.6,164.2,91.7z"/>
	<path d="M249.7,45.7c1.3,5.6,2.8,11.6,4.2,18.1c0.7,3.1,1.3,4.9,1.8,5.5c1.3,1.4,2.8,2.1,4.3,2.1c0.3,0,0.7,0,1.1-0.1
		c1-0.2,2-0.6,2.8-1.3c1.5-1.5,2.1-3.1,1.9-4.6c-3.4-15.4-5.4-25-5.9-27.7l-0.2-1.9l2.9-0.5l0.7,0.8c1.5,1.8,2.8,3.2,3.5,4l0.1,0
		l0.6,0.7c6.9,8.2,12.5,14.9,17.5,20.5c2.6,3.1,5.1,4.7,7.5,4.7c0.2,0,0.4,0,0.7,0c1.3-0.2,2.5-0.7,3.4-1.6c1.2-1.2,1.5-2.1,1.6-2.3
		l0.1-0.3l0.1-0.3c0.3-0.6,1.1-3.8-0.8-21.8l-0.1-1c-0.5-5-1.2-10.5-2-16.2c-0.4-3.3-0.8-6.6-1.3-10.1c-0.6-4.7-1.2-5.5-1.6-5.8
		c-1.4-1.4-3-2.1-4.8-2.1c-0.3,0-0.6,0-0.9,0.1c-1.9,0.2-3.6,1.1-4.6,2.4c-1,1.3-1.2,2.5-1.1,3.3c0.7,4.7,1.4,9.2,2,13.3
		c0.9,6,1.8,11.3,2.3,15.7l0.3,1.8l-2.9,0.5l-0.7-0.8c-0.6-0.7-1.7-1.9-3.1-3.6c-1.7-2-4-4.8-6.9-8.2c-7.8-9.1-12.2-13.4-13.4-14.5
		c-2.5-2.7-5.1-4.1-7.6-4.1c-0.4,0-0.8,0-1.3,0.1c-1.3,0.2-2.4,0.7-3.3,1.4c-1,0.8-1.6,1.6-1.9,2.5l-0.1,0.3l-0.2,0.2
		c-0.1,0.2-1.1,2,1,12.8C246.6,32.7,248,38.7,249.7,45.7z"/>
	<path d="M321.4,62.1c1.1,0.9,2.3,1.4,3.5,1.4l0.2,0c14.5-1.5,23.1-2,26.3-2.2c1.4-0.1,5.2-0.3,6-0.8c2-1.3,3-2.8,3-4.7
		c0-0.9-0.2-1.7-0.7-2.5c-1.3-1.8-2.8-2.7-4.9-2.7c-1.2,0-9,0.4-22.3,1.6l-2.1-0.1l0.1-2.2l-0.3-9.9l0-0.4l0.2-1.7l1.5-0.1
		c6.1-0.3,10.5-0.5,13.3-0.6c1.2,0,2.2-0.3,3.1-0.8c2.7-1.7,3-3.5,3-4.6c0-0.7-0.2-1.5-0.5-2.1c-1.4-2.1-3.1-3-5.6-3c0,0,0,0,0,0
		c-2.9,0.1-7.3,0.3-13.1,0.6l-2,0.2l-0.4-15.9l1.8-0.1c6.9-0.4,10.2-0.6,17.1-0.9c6-0.1,7.3-0.6,7.7-0.8c3.1-1.6,3.4-3.5,3.4-4.7
		c0-1.5-0.7-2.9-2-3.8c-1.2-0.9-2.6-1.4-4-1.4c0,0,0,0,0,0c-7,0.1-13.2,0.4-18.4,0.8c-4.6,0.3-13,0.9-14.1,1.2
		c-0.3,0.1-1.5,0.5-2.9,1.8c-0.7,0.6-1.1,1.6-1.3,2.9c0,1.7,0.6,18.1,2.3,51.8C319.7,59.9,320.3,61.2,321.4,62.1z"/>
	<path d="M383.9,62.7l3.1,0c12.8,0,20.4,0.3,23.2,0.5c1.2,0.1,2.3,0.1,3.3,0.1c2.1,0,2.7-0.2,2.8-0.3c2.1-1.1,3.2-2.5,3.4-4.4
		c0.1-0.9-0.1-1.7-0.4-2.5c-1.1-2-2.6-3-4.6-3.2c-1.2-0.1-9-0.6-22.3-0.7l-2.1-0.3l0.3-2.1l0.7-9.9l0.1-0.4l0.5-1.6l1.5,0.1
		c6.1,0.3,10.5,0.6,13.3,0.8c0.2,0,0.4,0,0.6,0c0.9,0,1.8-0.2,2.5-0.5c2.9-1.5,3.3-3.1,3.4-4.3c0.1-0.7-0.1-1.5-0.3-2.2
		c-1.2-2.2-2.9-3.4-5.3-3.6c-2.9-0.2-7.3-0.5-13.3-0.7l-1.8-0.2l1.2-15.7l1.8,0.1c6.9,0.2,10.3,0.4,17.2,0.8c2.2,0.2,4,0.3,5.4,0.3
		c1.7,0,2.2-0.2,2.4-0.3c3.2-1.3,3.8-3.1,3.9-4.4c0.2-1.5-0.4-2.9-1.6-4c-1.1-1-2.5-1.7-3.8-1.8c-4.8-0.4-11.8-0.9-18.4-1
		c-5.8-0.2-10-0.3-12.4-0.3c-0.9,0-1.5,0-1.7,0c-0.3,0.1-1.6,0.3-3,1.5c-0.7,0.6-1.3,1.5-1.6,2.8c-0.2,1.7-1.2,18.5-2.9,51.8
		c0,1.4,0.5,2.7,1.5,3.7C381.4,62,382.7,62.6,383.9,62.7z"/>
	<path d="M443,67.9l0.4,0.1c2.5,0.3,4.9,0.5,7.3,0.5c4.7,0,9.4-0.7,13.8-2c11.1-3.9,17.7-11.5,20.1-23.1c2.1-10,0.3-18.4-5.3-24.8
		c-5.1-5.9-13-9.8-22.6-11.3l-0.5-0.1c-1.6-0.2-3-0.3-4.2-0.3c-2.7,0-3.9,0.5-4.7,1.2c-0.9,0.5-1.5,1.4-1.9,2.5
		c-0.2,1-2.4,15.5-7.5,51.6c0,0,0,0.4,0.1,1.4C439,66.2,440.6,67.5,443,67.9z M450.4,55.7c2.4-14.2,3.6-21.4,6-35.5l0.3-1.9l1.8,0.3
		c2.2,0.3,4.8,1.5,7.9,3.4c5.8,4,8,10.4,6.4,19.3c-1.5,8.3-6,13.5-13.4,15.7c-3.3,0.8-5.4,1.1-6.8,1.1c-0.3,0-0.6,0-0.8-0.1
		l-1.9-0.3L450.4,55.7z"/>
	<path d="M546.5,37.7L546.5,37.7c0.7,0.3,2.9,1,5.7,2c2.7,0.9,6.2,2.1,10.6,3.6l1.7,0.6l-14.6,43.8c-0.3,0.8-0.3,1.6-0.3,2.3
		c0.6,2.4,1.8,3.9,3.8,4.6c0.6,0.2,1.3,0.3,2.1,0.3c2.7-0.3,4.3-1.4,5.1-3.5l15.6-43.1l1.8,0.6c1.2,0.4,6.3,2.4,15.1,5.9
		c0.6,0.2,1.4,0.4,2.4,0.4h0.4c3.4-0.4,4.3-1.9,4.8-3c0.4-1,0.4-2.1,0.1-3.3c-0.3-1.1-1.4-2.3-3-3.5c-1.6-0.8-17.3-7.8-46.9-17.3
		c-0.7-0.2-1.4-0.3-2.1-0.3c-0.3,0-0.7,0-0.9,0c-3.4,0.7-4.2,2.3-4.5,3.4c-0.3,0.9-0.2,1.9,0.1,3C544,35.6,545,36.7,546.5,37.7z"/>
	<path d="M599.2,102.7L599.2,102.7l0.1,0.4c0,0.2,0.3,1.2,2,5.1c2.7,4.8,6.3,8.3,11,10.5l0.4,0.2c2.9,1.4,5.9,2.1,9,2.1
		c2.4,0,4.8-0.4,7.1-1.3c7-2.5,13-8.3,17.4-16.7c4.1-7.8,5.7-15.8,4.7-23.8c-0.1-1-0.5-2.9-2-6.7c-2.4-4.7-5.7-8.1-9.9-10.1L638,62
		c-3-1.4-6.3-2.1-9.7-2.1c-1.2,0-2.4,0.1-3.6,0.2c-1.9,0.3-4.1,0.9-6.5,1.9c-7.6,3.8-13.3,10.1-17,18.8c-2,4.7-3,9.8-3.1,15
		C598.2,97.8,598.5,100.2,599.2,102.7z M612.4,85.6c1.4-3.1,3.3-6,5.7-8.7c4.2-4.1,8.1-6.2,11.7-6.2c1.4,0,2.7,0.3,4,0.9
		c2.5,1.2,4.2,3.7,4.9,7.4c0.8,6-0.4,12.2-3.4,18.4c-0.8,1.5-1.8,3.2-3,4.9c-4,5.2-7.7,7.8-11.5,7.8c-1.3,0-2.5-0.3-3.7-0.9
		c-3.4-1.6-5.6-4.2-6.7-7.9C609.2,96.5,609.9,91.2,612.4,85.6z"/>
	<path d="M51.2,134.7c7,0,12.7-5.7,12.7-12.7c0-7-5.7-12.7-12.7-12.7c-7,0-12.7,5.7-12.7,12.7C38.5,129,44.2,134.7,51.2,134.7z"/>
	<path d="M673.7,134.7c7,0,12.7-5.7,12.7-12.7c0-7-5.7-12.7-12.7-12.7c-7,0-12.7,5.7-12.7,12.7C661,129,666.7,134.7,673.7,134.7z"/>
	<path d="M342.2,92.8c-2.2,0-3.8,0.8-5,2.5c-8.1,10.9-16.3,21.8-24.4,32.6c-1.8,2.4-1.6,4.5,0.5,6.6c19.4,19.4,38.8,38.7,58.1,58.1
		c2.4,2.4,4.7,2.4,7.1,0c7.9-7.9,15.7-15.7,23.6-23.6c11.5-11.5,23.1-23.1,34.6-34.6c2.3-2.3,2.4-4.2,0.5-6.8
		c-8.1-10.8-16.2-21.6-24.3-32.4c-1.3-1.7-2.8-2.5-5-2.5c-10.9,0.1-21.8,0-32.7,0C364.1,92.8,353.2,92.9,342.2,92.8z M340.5,104.4
		c3.5,7.5,6.9,14.8,10.3,22.3c-8.6,0-17.1,0-25.8,0C330.2,119.2,335.3,111.9,340.5,104.4z M326.3,135.4c0.3,0,0.5-0.1,0.7-0.1
		c7.6,0,15.3,0,22.9,0c0.7,0,1,0.2,1.3,0.9c4.4,12.4,8.8,24.7,13.2,37c0,0.1,0.1,0.2,0.1,0.5C351.7,160.8,339,148.1,326.3,135.4z
		 M375,177.7c-5.1-14.3-10.1-28.3-15.1-42.4c10.1,0,20.1,0,30.3,0C385.1,149.4,380.1,163.4,375,177.7z M385.6,173.3
		c4.5-12.7,9-25.4,13.6-38c8.2,0,16.3,0,24.4,0C410.9,147.9,398.3,160.6,385.6,173.3z M409.5,104.4c5.2,7.4,10.3,14.8,15.5,22.3
		c-8.6,0-17.1,0-25.8,0C402.7,119.3,406.1,111.9,409.5,104.4z M401.6,101.4c-2.7,6.1-5.4,12.2-8.1,18.5c-3.4-6.3-6.8-12.3-10.2-18.5
		C389.5,101.4,395.4,101.4,401.6,101.4z M387.9,126.8c-8.7,0-17.2,0-25.9,0c4.3-7.5,8.6-14.8,12.9-22.4
		C379.4,111.9,383.6,119.3,387.9,126.8z M356.6,119.9c-2.8-6.3-5.4-12.4-8.1-18.5c6.1,0,12.1,0,18.3,0
		C363.4,107.5,360,113.6,356.6,119.9z"/>
	<path d="M311.9,96.4c0.6,0.7,1.8,1.1,2.6,1.1c0.9,0,2-0.4,2.6-1.1c0.6-0.7,1.1-1.6,1.1-2.6c0-1-0.4-1.8-1.1-2.6
		c-3.4-4.2-6.8-8.3-10.2-12.5c-0.6-0.7-1.8-1.1-2.6-1.1c-0.9,0-2,0.4-2.6,1.1c-0.6,0.7-1.1,1.6-1.1,2.6c0,1,0.4,1.8,1.1,2.6
		C305.1,88.1,308.5,92.2,311.9,96.4z"/>
	<path d="M304.8,112.9c0.9-1.6,0.5-4.2-1.3-5.1c-9.3-4.4-18.6-8.8-27.8-13.2c-1.8-0.9-4-0.5-5.1,1.3c-0.9,1.6-0.5,4.2,1.3,5.1
		c9.3,4.4,18.5,8.9,27.8,13.2C301.6,115.1,303.7,114.7,304.8,112.9z"/>
	<path d="M296.1,128.4c-6.2,1-12.3,2.7-18.5,3.6c-1.9,0.3-3.1,2.8-2.6,4.5c0.7,2.1,2.5,2.9,4.5,2.6c6.2-1,12.3-2.7,18.5-3.6
		c1.9-0.3,3.1-2.8,2.6-4.5C300,128.9,298.2,128.1,296.1,128.4z"/>
	<path d="M440,101.1c4.8-3.3,9.6-6.5,14.5-9.8c1.6-1.1,2.5-3.3,1.3-5.1c-1-1.6-3.3-2.5-5.1-1.3c-4.8,3.3-9.6,6.5-14.5,9.8
		c-1.6,1.1-2.5,3.3-1.3,5.1C435.9,101.3,438.2,102.2,440,101.1z"/>
	<path d="M483.4,104.1c-0.5-1.9-2.6-3.2-4.5-2.6c-10.3,3.4-20.7,6.1-31.1,9.2c-4.5,1.4-2.6,8.5,2,7.1c10.3-3.1,20.8-5.8,31.1-9.2
		C482.8,108.1,484,106.1,483.4,104.1z"/>
	<path d="M450.9,132.8c-1.9-0.4-4.1,0.6-4.5,2.6c-0.4,1.9,0.6,4.1,2.6,4.5c5,1.1,9.9,2.6,14.9,3.4c1,0.2,1.9,0.2,2.8-0.4
		c0.8-0.4,1.5-1.3,1.7-2.2c0.4-1.8-0.5-4.2-2.6-4.5C460.7,135.5,455.9,133.9,450.9,132.8z"/>
</g>
</svg>
