<svg id="svg" xmlns="http://www.w3.org/2000/svg" xmlns:xlink="http://www.w3.org/1999/xlink" width="400" height="400" viewBox="0, 0, 400,400"><g id="svgg"><path id="path0" d="M33.407 99.212 C 25.789 101.001,21.158 108.976,22.437 118.108 C 23.249 123.906,26.808 129.129,35.028 136.586 C 42.921 143.746,43.865 145.174,43.869 149.962 C 43.877 158.628,33.404 158.984,31.694 150.376 C 30.898 146.374,30.859 146.360,22.949 147.320 C 21.047 147.551,20.915 148.469,22.111 153.144 C 27.516 174.278,57.616 168.703,54.181 147.204 C 53.143 140.705,49.169 135.023,40.621 127.811 C 35.305 123.327,32.541 118.464,32.916 114.253 C 33.654 105.959,42.403 106.059,43.743 114.378 C 44.011 116.044,43.966 116.039,49.643 114.981 C 54.396 114.095,54.330 114.177,53.323 110.415 C 51.016 101.790,42.597 97.055,33.407 99.212 M73.733 99.285 C 68.084 100.920,63.499 105.743,62.344 111.262 C 61.525 115.179,61.802 150.514,62.680 153.943 C 66.740 169.818,88.520 170.743,93.055 155.233 C 93.894 152.363,93.928 116.242,93.095 111.830 C 91.335 102.499,82.470 96.755,73.733 99.285 M241.679 99.370 C 236.353 100.715,231.638 105.714,230.461 111.262 C 229.781 114.466,229.906 150.695,230.607 153.668 C 234.400 169.758,256.586 170.893,261.166 155.233 C 261.850 152.894,262.041 117.005,261.391 113.034 C 259.656 102.443,251.606 96.862,241.679 99.370 M102.120 132.535 L 102.120 165.530 107.097 165.530 L 112.074 165.530 112.074 153.180 L 112.074 140.829 115.321 140.829 L 118.568 140.829 121.279 151.982 C 122.769 158.115,124.136 163.673,124.316 164.332 L 124.643 165.530 130.156 165.530 C 133.188 165.530,135.668 165.406,135.669 165.253 C 135.669 165.101,134.516 160.581,133.108 155.207 C 131.699 149.834,130.068 143.530,129.483 141.198 L 128.419 136.958 130.044 134.746 C 133.342 130.256,133.257 130.597,133.390 121.314 C 133.660 102.434,130.703 99.539,111.148 99.539 L 102.120 99.539 102.120 132.535 M143.779 132.535 L 143.779 165.530 157.972 165.530 L 172.166 165.530 172.166 160.553 L 172.166 155.576 163.134 155.576 L 154.101 155.576 154.101 146.544 L 154.101 137.512 160.737 137.512 L 167.373 137.512 167.373 132.535 L 167.373 127.558 160.737 127.558 L 154.101 127.558 154.101 118.710 L 154.101 109.862 163.134 109.862 L 172.166 109.862 172.166 104.700 L 172.166 99.539 157.972 99.539 L 143.779 99.539 143.779 132.535 M192.442 104.700 L 192.442 109.862 197.788 109.862 L 203.134 109.862 203.134 137.696 L 203.134 165.530 208.111 165.530 L 213.088 165.530 213.088 137.696 L 213.088 109.862 218.249 109.862 L 223.410 109.862 223.410 104.700 L 223.410 99.539 207.926 99.539 L 192.442 99.539 192.442 104.700 M270.230 132.508 L 270.230 165.530 278.651 165.530 C 292.469 165.530,296.739 163.718,300.216 156.380 L 301.382 153.917 301.382 132.535 L 301.382 111.152 300.200 108.655 C 298.646 105.374,295.732 102.460,292.451 100.906 L 289.954 99.724 280.092 99.605 L 270.230 99.486 270.230 132.508 M319.360 100.000 C 319.162 100.253,318.466 103.779,317.815 107.834 C 317.164 111.889,316.401 116.452,316.119 117.972 C 315.238 122.736,314.173 129.374,313.367 135.115 C 312.941 138.157,312.257 142.221,311.848 144.147 C 310.937 148.439,308.203 163.995,308.203 164.885 C 308.203 165.469,308.700 165.530,313.486 165.530 L 318.769 165.530 319.398 160.461 C 319.744 157.673,320.296 154.272,320.627 152.903 L 321.227 150.415 326.328 150.415 L 331.429 150.415 331.432 151.613 C 331.437 153.012,333.127 163.986,333.480 164.905 C 333.875 165.935,343.963 165.843,343.963 164.809 C 343.963 163.652,333.366 100.359,333.101 99.929 C 332.734 99.335,319.829 99.402,319.360 100.000 M341.756 100.174 C 341.758 100.535,342.431 102.654,343.251 104.885 C 344.071 107.115,345.909 112.424,347.336 116.682 C 348.763 120.940,350.994 127.278,352.293 130.765 L 354.654 137.107 354.654 151.318 L 354.654 165.530 359.816 165.530 L 364.977 165.530 364.977 151.524 L 364.977 137.518 366.414 133.736 C 367.205 131.656,369.351 125.558,371.184 120.184 C 373.017 114.811,375.270 108.341,376.192 105.806 C 378.649 99.046,378.936 99.539,372.548 99.539 C 366.362 99.539,366.962 99.138,365.570 104.200 C 365.076 105.996,363.816 110.120,362.769 113.364 C 361.722 116.608,360.660 120.060,360.409 121.035 L 359.952 122.807 358.381 117.717 C 354.814 106.165,353.108 100.799,352.836 100.276 C 352.359 99.363,341.749 99.265,341.756 100.174 M80.606 110.091 C 82.983 111.632,82.949 111.308,82.949 132.862 L 82.949 152.307 82.009 153.540 C 79.457 156.887,75.492 156.752,72.941 153.231 L 71.889 151.779 71.898 133.309 C 71.903 123.150,72.058 114.175,72.243 113.364 C 73.086 109.666,77.367 107.991,80.606 110.091 M248.716 110.091 C 251.094 111.632,251.060 111.305,251.060 132.891 L 251.060 152.366 249.763 153.950 C 247.585 156.608,244.058 156.582,241.448 153.890 L 240.184 152.586 240.069 134.081 C 239.932 112.282,239.889 112.785,242.069 110.691 C 244.129 108.712,246.289 108.517,248.716 110.091 M121.241 110.813 C 123.247 111.998,123.502 113.089,123.502 120.477 L 123.502 127.109 122.304 128.597 C 120.896 130.345,119.152 130.876,114.821 130.876 L 112.074 130.876 112.074 120.316 L 112.074 109.757 116.086 109.947 C 119.053 110.088,120.396 110.314,121.241 110.813 M288.786 110.882 C 291.557 112.505,291.417 111.392,291.530 132.581 L 291.632 151.560 290.624 152.963 C 289.305 154.798,288.118 155.233,283.779 155.475 L 280.184 155.675 280.184 132.713 L 280.184 109.751 283.940 109.997 C 286.465 110.162,288.053 110.453,288.786 110.882 M326.807 120.922 C 327.140 123.253,327.724 126.820,328.104 128.848 C 328.484 130.876,328.897 133.779,329.023 135.300 C 329.148 136.820,329.333 138.604,329.435 139.263 L 329.619 140.461 326.170 140.461 L 322.722 140.461 324.298 129.124 C 325.164 122.889,325.879 117.470,325.886 117.081 C 325.913 115.561,326.226 116.864,326.807 120.922 M29.202 179.565 C 26.068 180.525,23.899 184.145,23.667 188.804 C 23.401 194.134,24.944 196.929,30.252 200.737 C 37.441 205.894,38.950 208.074,38.587 212.777 C 38.218 217.568,36.429 219.355,32.002 219.355 C 28.488 219.355,26.788 217.136,26.303 211.917 L 26.069 209.401 24.593 209.401 L 23.116 209.401 23.335 212.497 C 23.810 219.232,26.716 222.292,32.643 222.301 C 42.734 222.315,45.365 208.721,36.596 201.872 C 35.427 200.959,33.186 199.209,31.617 197.984 C 27.868 195.059,26.807 193.392,26.610 190.122 C 26.018 180.306,37.568 178.760,38.643 188.511 L 38.894 190.783 40.276 190.898 L 41.659 191.012 41.659 188.792 C 41.659 181.845,35.838 177.533,29.202 179.565 M97.255 179.512 C 95.361 180.125,92.931 182.199,92.078 183.931 C 90.987 186.144,90.573 213.336,91.585 216.305 C 94.214 224.022,106.040 224.340,109.006 216.774 C 109.920 214.440,110.213 190.012,109.365 186.765 C 107.833 180.899,102.619 177.776,97.255 179.512 M143.048 179.661 C 140.920 180.376,138.775 182.737,138.083 185.127 C 137.131 188.415,137.382 215.632,138.382 217.512 C 140.748 221.958,146.417 223.673,151.077 221.351 C 154.833 219.479,155.945 216.064,155.945 206.393 L 155.945 200.184 151.705 200.184 L 147.465 200.184 147.465 201.475 L 147.465 202.765 150.269 202.765 L 153.073 202.765 152.922 208.571 C 152.697 217.221,151.367 219.355,146.202 219.355 C 143.719 219.355,141.570 217.544,140.910 214.895 C 140.294 212.427,140.207 189.023,140.805 186.916 C 142.107 182.326,146.675 180.586,150.252 183.318 C 152.092 184.723,152.616 186.105,152.905 190.317 L 153.101 193.180 154.523 193.180 L 155.945 193.180 155.945 190.677 C 155.945 182.317,150.073 177.302,143.048 179.661 M205.899 180.126 C 200.796 182.806,200.737 183.037,200.737 200.369 C 200.737 217.800,201.092 219.372,205.493 221.422 C 210.329 223.673,215.902 222.039,218.197 217.696 L 219.171 215.853 219.171 200.737 L 219.171 185.622 218.025 183.594 C 215.701 179.479,210.153 177.892,205.899 180.126 M258.986 180.277 C 254.155 182.700,254.009 183.306,254.009 200.942 C 254.009 216.164,254.065 216.633,256.213 219.344 C 259.137 223.036,266.861 223.152,270.178 219.554 C 272.563 216.966,272.627 216.476,272.627 200.700 L 272.627 186.653 271.336 184.124 C 268.922 179.393,263.879 177.822,258.986 180.277 M329.401 179.604 C 327.137 180.463,325.682 181.686,324.602 183.637 L 323.502 185.622 323.390 199.953 C 323.260 216.576,323.352 217.234,326.182 219.985 C 330.267 223.956,338.264 222.713,340.824 217.711 L 341.935 215.538 342.055 202.239 C 342.196 186.631,341.931 184.588,339.404 181.807 C 337.472 179.681,332.236 178.528,329.401 179.604 M44.608 181.014 L 44.608 182.488 48.848 182.488 L 53.088 182.488 53.088 202.212 L 53.088 221.935 54.562 221.935 L 56.037 221.935 56.037 202.212 L 56.037 182.488 60.276 182.488 L 64.516 182.488 64.516 181.014 L 64.516 179.539 54.562 179.539 L 44.608 179.539 44.608 181.014 M67.834 200.737 L 67.834 221.935 69.309 221.935 L 70.783 221.935 70.783 212.486 L 70.783 203.037 74.562 203.208 C 81.889 203.541,82.924 204.917,82.940 214.352 C 82.952 220.882,83.277 221.935,85.278 221.935 C 86.667 221.935,86.713 221.897,86.476 220.922 C 86.341 220.364,86.112 216.838,85.967 213.085 C 85.666 205.319,85.404 204.497,82.636 202.638 L 81.073 201.588 82.681 200.568 C 85.228 198.953,85.899 196.971,85.899 191.057 C 85.899 181.464,83.789 179.540,73.272 179.539 L 67.834 179.539 67.834 200.737 M113.917 200.719 L 113.917 221.935 115.392 221.935 L 116.866 221.935 116.878 203.779 C 116.884 193.254,117.024 185.855,117.211 186.175 C 117.388 186.479,117.817 187.641,118.166 188.756 C 118.776 190.711,125.268 209.361,128.239 217.696 L 129.685 221.751 131.386 221.864 L 133.088 221.976 133.088 200.758 L 133.088 179.539 131.797 179.539 L 130.507 179.539 130.490 197.143 L 130.472 214.747 129.063 210.691 C 128.287 208.461,126.957 204.811,126.107 202.581 C 125.257 200.350,123.510 195.456,122.224 191.705 C 120.939 187.954,119.464 183.724,118.948 182.304 L 118.009 179.724 115.963 179.613 L 113.917 179.502 113.917 200.719 M177.327 181.014 L 177.327 182.488 181.751 182.488 L 186.175 182.488 186.175 202.212 L 186.175 221.935 187.650 221.935 L 189.124 221.935 189.124 202.212 L 189.124 182.488 193.364 182.488 L 197.604 182.488 197.604 181.014 L 197.604 179.539 187.465 179.539 L 177.327 179.539 177.327 181.014 M223.779 200.737 L 223.779 221.935 225.066 221.935 L 226.352 221.935 226.448 204.147 L 226.544 186.359 227.226 189.309 C 227.601 190.931,229.130 197.260,230.625 203.375 C 232.120 209.489,233.606 215.764,233.927 217.320 C 234.790 221.496,235.055 221.935,236.716 221.935 C 237.722 221.935,238.160 221.757,238.299 221.290 C 238.405 220.935,239.993 214.175,241.829 206.267 C 243.665 198.359,245.482 190.645,245.866 189.124 L 246.564 186.359 246.600 204.147 L 246.636 221.935 248.111 221.935 L 249.585 221.935 249.585 200.737 L 249.585 179.539 247.571 179.539 C 245.239 179.539,245.104 179.690,244.432 183.041 C 244.188 184.258,243.098 188.903,242.011 193.364 C 240.924 197.825,239.350 204.461,238.513 208.111 C 236.703 216.007,236.566 216.224,235.747 212.482 C 235.399 210.889,233.959 204.774,232.548 198.894 C 231.136 193.014,229.663 186.793,229.273 185.069 C 227.991 179.395,228.083 179.539,225.778 179.539 L 223.779 179.539 223.779 200.737 M277.235 200.737 L 277.235 221.935 278.710 221.935 L 280.184 221.935 280.184 212.482 L 280.184 203.029 284.192 203.219 C 291.092 203.546,292.220 204.999,292.056 213.353 C 291.908 220.840,292.217 221.935,294.476 221.935 C 295.898 221.935,296.079 221.850,295.837 221.290 C 295.683 220.935,295.408 217.742,295.225 214.194 C 294.780 205.567,293.839 202.876,291.019 202.169 C 289.790 201.860,289.899 201.627,291.847 200.396 C 295.795 197.902,296.469 190.360,293.388 183.159 C 292.238 180.470,289.084 179.539,281.128 179.539 L 277.235 179.539 277.235 200.737 M300.461 200.737 L 300.461 221.935 301.935 221.935 L 303.410 221.935 303.410 212.482 L 303.410 203.029 307.417 203.219 C 314.318 203.546,315.446 204.999,315.281 213.353 C 315.134 220.840,315.443 221.935,317.701 221.935 C 319.124 221.935,319.305 221.850,319.062 221.290 C 318.909 220.935,318.634 217.742,318.451 214.194 C 318.006 205.567,317.064 202.876,314.245 202.169 C 313.016 201.860,313.125 201.627,315.073 200.396 C 317.762 198.697,318.317 197.089,318.330 190.968 C 318.351 181.448,316.115 179.588,304.608 179.552 L 300.461 179.539 300.461 200.737 M345.806 179.703 C 345.806 179.816,346.903 186.586,348.242 194.747 C 349.582 202.908,350.999 211.742,351.392 214.378 C 352.533 222.041,352.488 221.935,354.676 221.935 C 356.947 221.935,356.970 221.890,357.925 215.668 C 358.720 210.488,362.342 189.510,362.540 188.940 C 362.611 188.737,362.782 189.401,362.920 190.415 C 363.582 195.262,364.431 200.156,365.572 205.714 C 366.258 209.060,367.006 213.622,367.233 215.853 C 367.838 221.794,367.808 221.730,370.042 221.861 C 371.831 221.967,371.925 221.926,372.130 220.940 C 372.529 219.025,378.618 180.684,378.618 180.087 C 378.618 179.628,378.306 179.520,377.235 179.609 L 375.853 179.724 373.052 197.419 C 371.511 207.152,370.170 215.447,370.071 215.853 C 369.858 216.724,369.989 217.471,367.941 203.687 C 366.206 192.003,364.658 181.969,364.399 180.737 C 364.251 180.028,363.989 179.908,362.590 179.908 C 360.707 179.908,360.989 179.122,360.010 187.097 C 359.686 189.733,358.944 194.295,358.360 197.235 C 357.776 200.175,357.029 204.406,356.699 206.636 C 356.370 208.866,355.941 211.492,355.746 212.471 C 355.551 213.449,355.392 214.735,355.392 215.328 C 355.392 218.729,354.527 214.467,351.889 198.064 L 348.940 179.724 347.373 179.610 C 346.512 179.548,345.806 179.590,345.806 179.703 M103.200 182.766 C 106.586 184.493,107.035 186.855,106.854 202.017 C 106.670 217.467,105.946 219.355,100.204 219.355 C 94.343 219.355,93.597 216.851,93.916 198.260 C 94.128 185.913,94.345 184.780,96.852 182.910 C 98.178 181.921,101.399 181.847,103.200 182.766 M212.693 182.660 C 216.141 184.442,216.557 186.487,216.445 201.106 C 216.336 215.342,215.940 217.336,212.934 218.763 C 209.109 220.577,205.154 218.890,204.211 215.042 C 203.200 210.919,203.466 187.082,204.542 185.352 C 206.430 182.316,209.846 181.187,212.693 182.660 M266.168 182.766 C 269.349 184.364,269.950 187.117,269.888 199.813 C 269.835 210.821,269.509 214.757,268.508 216.471 C 266.162 220.487,259.796 220.488,257.940 216.472 C 256.657 213.696,256.702 187.069,257.992 184.993 C 259.766 182.141,263.111 181.230,266.168 182.766 M336.059 183.034 C 336.718 183.536,337.646 184.573,338.122 185.338 L 338.986 186.728 338.986 200.369 C 338.986 217.726,338.615 218.920,333.105 219.273 C 326.631 219.689,325.730 216.979,326.210 198.525 C 326.526 186.338,326.650 185.536,328.523 183.538 C 330.181 181.768,334.060 181.509,336.059 183.034 M80.738 183.409 C 82.218 184.751,82.691 186.207,82.875 189.988 C 83.277 198.259,81.895 199.870,74.009 200.329 L 70.783 200.517 70.783 191.473 L 70.783 182.428 75.354 182.551 C 79.302 182.656,80.036 182.773,80.738 183.409 M289.832 183.590 C 291.492 184.958,292.076 187.095,292.099 191.878 C 292.128 198.209,290.456 199.909,283.779 200.337 L 280.184 200.568 280.184 191.528 L 280.184 182.488 284.340 182.488 C 288.410 182.488,288.523 182.511,289.832 183.590 M313.058 183.590 C 314.718 184.958,315.302 187.095,315.325 191.878 C 315.354 198.209,313.682 199.909,307.005 200.337 L 303.410 200.568 303.410 191.528 L 303.410 182.488 307.566 182.488 C 311.636 182.488,311.749 182.511,313.058 183.590 M96.590 240.346 C 94.627 241.493,94.009 242.098,93.175 243.690 L 92.156 245.634 92.253 283.122 L 92.350 320.611 93.466 322.416 C 94.157 323.534,95.268 324.645,96.386 325.336 L 98.191 326.452 122.901 326.551 L 147.611 326.651 149.569 325.693 C 151.905 324.551,153.087 323.098,153.882 320.394 C 154.694 317.629,154.753 246.965,153.944 244.700 C 153.186 242.576,151.718 240.900,149.780 239.946 L 148.018 239.078 123.502 239.012 L 98.986 238.946 96.590 240.346 M262.488 240.346 C 260.525 241.493,259.908 242.098,259.073 243.690 L 258.054 245.634 258.152 283.122 L 258.249 320.611 259.365 322.416 C 260.056 323.534,261.167 324.645,262.285 325.336 L 264.089 326.452 288.799 326.551 L 313.509 326.651 315.467 325.693 C 317.803 324.551,318.985 323.098,319.780 320.394 C 320.593 317.629,320.651 246.965,319.843 244.700 C 319.085 242.576,317.617 240.900,315.678 239.946 L 313.917 239.078 289.401 239.012 L 264.885 238.946 262.488 240.346 M155.576 281.106 L 155.576 297.880 206.267 297.880 L 256.959 297.880 256.959 281.106 L 256.959 264.332 206.267 264.332 L 155.576 264.332 155.576 281.106 " stroke="none" fill="#000000" fill-rule="evenodd"></path></g></svg>