<?xml version="1.0" encoding="utf-8"?>
<!-- Generator: Adobe Illustrator 27.5.0, SVG Export Plug-In . SVG Version: 6.00 Build 0)  -->
<svg version="1.1" xmlns="http://www.w3.org/2000/svg" xmlns:xlink="http://www.w3.org/1999/xlink" x="0px" y="0px"
	 viewBox="0 0 500 500" style="enable-background:new 0 0 500 500;" xml:space="preserve">
<g id="BACKGROUND">
	<rect style="fill:#197CA3;" width="500" height="500"/>
	<path style="fill:#3294BF;" d="M95.424,65.263l6.89,0.899c0.293-1.659,0.244-3.347,0.359-5.021
		c-0.117-1.686-0.064-3.386-0.365-5.057l-6.889,0.906c-0.135-0.809-0.225-1.628-0.392-2.431l-0.614-2.385l6.663-1.971
		c-0.195-0.819-0.544-1.592-0.814-2.388c-0.304-0.784-0.544-1.596-0.937-2.342c-0.718-1.537-1.452-3.065-2.382-4.485l-4.683,2.882
		c-0.425,0.228-0.846,0.466-1.256,0.724c-0.405-0.699-0.838-1.38-1.346-2.009c-0.511-0.642-0.941-1.351-1.515-1.94l5.282-4.515
		c-1.118-1.255-2.241-2.505-3.524-3.596c-1.214-1.185-2.617-2.143-3.968-3.162l-3.935,5.727c-1.387-0.874-2.765-1.781-4.273-2.438
		l2.995-6.27c-1.492-0.786-3.096-1.31-4.676-1.89c-0.795-0.295-1.632-0.454-2.448-0.682c-0.824-0.199-1.636-0.454-2.479-0.553
		l-1.252,6.835l-2.435-0.373l-2.461-0.129l0.18-6.946c-1.676-0.105-3.354,0.092-5.028,0.166c-1.667,0.289-3.371,0.4-5,0.889
		l1.623,6.756c-0.789,0.223-1.602,0.368-2.373,0.651l-2.313,0.846l-2.661-6.419c-0.778,0.317-1.525,0.71-2.286,1.067
		c-0.761,0.36-1.518,0.726-2.225,1.184l-2.169,1.323c-0.695,0.482-1.364,1.002-2.044,1.506l4.239,5.505
		c-0.678,0.467-1.289,1.016-1.888,1.578c-0.601,0.559-1.242,1.079-1.768,1.713l-5.039-4.784l-1.692,1.867
		c-0.529,0.651-1.019,1.336-1.526,2.006c-1.067,1.319-1.839,2.842-2.74,4.273l6.107,3.315c-0.711,1.48-1.466,2.941-1.967,4.509
		l-6.55-2.319c-0.64,1.562-0.955,3.225-1.394,4.848c-0.275,1.667-0.617,3.34-0.699,5.027l6.928,0.532l-0.124,2.462l0.126,2.461
		l-6.928,0.539c0.087,1.675,0.423,3.336,0.697,4.99c0.44,1.636,0.762,3.31,1.406,4.883l6.501-2.309
		c0.019,0.005,0.039,0.007,0.058,0.013c0.501,1.557,1.252,3.009,1.96,4.478l-6.104,3.321c0.896,1.42,1.662,2.932,2.721,4.241
		c0.511,0.674,1.003,1.365,1.538,2.019l1.705,1.881l5.035-4.789c0.526,0.634,1.17,1.15,1.77,1.71
		c0.597,0.565,1.213,1.108,1.89,1.576l-4.234,5.509c0.675,0.5,1.339,1.017,2.03,1.493l2.153,1.313
		c0.712,0.462,1.476,0.829,2.242,1.192c0.768,0.358,1.518,0.758,2.304,1.072l2.655-6.421l2.313,0.846
		c0.773,0.276,1.584,0.426,2.374,0.648l-1.617,6.757l1.224,0.309l1.246,0.196l2.495,0.375c1.686,0.073,3.377,0.275,5.066,0.164
		l-0.187-6.946l2.461-0.132l2.435-0.372l1.259,6.833c1.653-0.292,3.284-0.747,4.891-1.229c1.592-0.583,3.207-1.115,4.71-1.906
		l-3.002-6.267c1.386-0.604,2.659-1.423,3.932-2.232c0.448,0.495,0.925,0.963,1.439,1.389l2.839,4.123
		c1.342-1.011,2.733-1.963,3.938-3.14c1.293-1.098,2.422-2.36,3.549-3.623l-5.286-4.51c0.57-0.593,1.003-1.299,1.513-1.942
		c0.518-0.64,0.952-1.336,1.366-2.047l5.921,3.636c0.923-1.41,1.648-2.928,2.362-4.453c0.395-0.752,0.637-1.569,0.943-2.359
		c0.271-0.803,0.626-1.579,0.817-2.407l-6.665-1.964l0.614-2.385C95.196,66.89,95.29,66.073,95.424,65.263z M100.77,64.001
		l-0.021-0.002c0.007-0.007,0.015-0.012,0.021-0.019L100.77,64.001z M100.768,58.247l0.019,0.382
		c-0.108-0.125-0.219-0.246-0.342-0.357L100.768,58.247z M28.889,50.731l0.002-0.008l0.005,0.002
		C28.894,50.727,28.892,50.729,28.889,50.731z M78.147,94.914l0.079,0.191l-0.155,0.057C78.101,95.081,78.128,94.999,78.147,94.914z
		 M57.678,24.973c-0.078,0.032-0.156,0.064-0.234,0.098l-0.011-0.061L57.678,24.973z M63.196,97.867l-0.036-0.002
		c0.012-0.013,0.025-0.025,0.037-0.037L63.196,97.867z M64.141,82.181c-11.62,0-21.039-9.419-21.039-21.039
		s9.419-21.039,21.039-21.039c11.619,0,21.039,9.419,21.039,21.039S75.761,82.181,64.141,82.181z"/>
	<path style="fill:#3294BF;" d="M138.685,102.17l4.2,0.548c0.178-1.011,0.149-2.04,0.219-3.06c-0.071-1.027-0.039-2.064-0.222-3.083
		l-4.199,0.552c-0.082-0.493-0.137-0.992-0.239-1.482l-0.374-1.454l4.062-1.201c-0.119-0.5-0.331-0.97-0.496-1.456
		c-0.185-0.478-0.332-0.973-0.571-1.427c-0.438-0.937-0.885-1.868-1.452-2.734l-2.855,1.757c-0.259,0.139-0.516,0.284-0.766,0.441
		c-0.247-0.426-0.511-0.841-0.821-1.225c-0.312-0.391-0.574-0.823-0.924-1.183l3.22-2.752c-0.682-0.765-1.366-1.527-2.148-2.192
		c-0.74-0.722-1.595-1.306-2.419-1.927l-2.398,3.491c-0.846-0.532-1.685-1.086-2.605-1.486l1.826-3.822
		c-0.909-0.479-1.887-0.799-2.85-1.152c-0.485-0.18-0.995-0.277-1.493-0.416c-0.502-0.121-0.997-0.277-1.511-0.337l-0.763,4.166
		l-1.484-0.227l-1.5-0.079l0.11-4.234c-1.022-0.064-2.045,0.056-3.065,0.101c-1.016,0.177-2.055,0.244-3.048,0.542l0.99,4.118
		c-0.481,0.136-0.977,0.225-1.447,0.397l-1.41,0.516l-1.622-3.913c-0.474,0.193-0.929,0.433-1.393,0.65
		c-0.464,0.22-0.926,0.442-1.356,0.722l-1.322,0.806c-0.423,0.294-0.832,0.611-1.246,0.918l2.584,3.356
		c-0.413,0.285-0.786,0.619-1.151,0.962c-0.367,0.34-0.757,0.658-1.078,1.044l-3.072-2.916l-1.031,1.138
		c-0.323,0.397-0.621,0.814-0.93,1.223c-0.65,0.804-1.121,1.732-1.67,2.605l3.723,2.021c-0.434,0.902-0.894,1.793-1.199,2.749
		l-3.993-1.414c-0.39,0.952-0.582,1.966-0.85,2.955c-0.168,1.016-0.376,2.036-0.426,3.064l4.223,0.324l-0.076,1.5l0.077,1.501
		l-4.223,0.328c0.053,1.021,0.257,2.033,0.425,3.042c0.268,0.997,0.464,2.018,0.857,2.977l3.963-1.408
		c0.012,0.003,0.024,0.004,0.036,0.008c0.305,0.949,0.763,1.834,1.195,2.73l-3.721,2.024c0.546,0.866,1.013,1.787,1.659,2.585
		c0.312,0.411,0.611,0.832,0.938,1.231l1.039,1.147l3.069-2.919c0.32,0.387,0.714,0.701,1.079,1.043
		c0.364,0.344,0.739,0.675,1.152,0.961l-2.581,3.358c0.412,0.305,0.816,0.62,1.238,0.91l1.313,0.8
		c0.434,0.282,0.899,0.505,1.367,0.727c0.468,0.218,0.925,0.462,1.405,0.653l1.618-3.914l1.41,0.516
		c0.471,0.168,0.966,0.26,1.447,0.395l-0.986,4.119l0.746,0.188l0.759,0.12l1.521,0.229c1.028,0.044,2.059,0.168,3.088,0.1
		l-0.114-4.234l1.5-0.08l1.484-0.227l0.767,4.165c1.007-0.178,2.002-0.456,2.981-0.749c0.97-0.355,1.955-0.679,2.871-1.162
		l-1.83-3.82c0.845-0.368,1.621-0.868,2.397-1.36c0.273,0.302,0.564,0.587,0.877,0.847l1.731,2.514
		c0.818-0.616,1.666-1.197,2.4-1.914c0.788-0.669,1.477-1.439,2.164-2.209l-3.222-2.749c0.348-0.362,0.611-0.792,0.923-1.184
		c0.316-0.39,0.581-0.815,0.833-1.248l3.609,2.216c0.563-0.859,1.005-1.785,1.44-2.714c0.241-0.458,0.388-0.957,0.575-1.438
		c0.165-0.489,0.382-0.963,0.498-1.467l-4.063-1.197l0.374-1.454C138.546,103.162,138.603,102.664,138.685,102.17z M141.944,101.401
		l-0.012-0.001c0.004-0.004,0.009-0.007,0.013-0.011L141.944,101.401z M141.943,97.893l0.012,0.233
		c-0.066-0.076-0.134-0.15-0.209-0.217L141.943,97.893z M98.126,93.312l0.001-0.005l0.003,0.001
		C98.129,93.309,98.128,93.31,98.126,93.312z M128.153,120.245l0.048,0.116l-0.095,0.035
		C128.125,120.347,128.142,120.297,128.153,120.245z M115.675,77.61c-0.048,0.02-0.095,0.039-0.142,0.06l-0.007-0.037L115.675,77.61
		z M119.039,122.045l-0.022-0.001c0.007-0.008,0.015-0.015,0.023-0.023L119.039,122.045z M119.615,112.483
		c-7.083,0-12.825-5.742-12.825-12.825c0-7.083,5.742-12.825,12.825-12.825s12.825,5.742,12.825,12.825
		C132.44,106.741,126.699,112.483,119.615,112.483z"/>
	<path style="fill:#3294BF;" d="M453.323,71.294l6.14,0.801c0.261-1.479,0.217-2.983,0.32-4.474
		c-0.104-1.502-0.057-3.018-0.325-4.507l-6.139,0.807c-0.12-0.721-0.201-1.451-0.35-2.166l-0.547-2.125l5.938-1.756
		c-0.174-0.73-0.485-1.418-0.725-2.128c-0.271-0.699-0.485-1.422-0.835-2.087c-0.64-1.369-1.294-2.731-2.123-3.997l-4.173,2.568
		c-0.379,0.203-0.754,0.415-1.12,0.645c-0.361-0.623-0.747-1.23-1.2-1.791c-0.456-0.572-0.839-1.204-1.351-1.729l4.707-4.024
		c-0.996-1.118-1.997-2.233-3.141-3.205c-1.082-1.056-2.332-1.91-3.536-2.818l-3.507,5.104c-1.236-0.778-2.464-1.587-3.808-2.172
		l2.67-5.588c-1.33-0.701-2.759-1.167-4.167-1.684c-0.709-0.263-1.455-0.405-2.182-0.608c-0.734-0.177-1.458-0.405-2.21-0.493
		l-1.116,6.091l-2.17-0.332l-2.193-0.115l0.16-6.19c-1.494-0.093-2.99,0.082-4.481,0.148c-1.486,0.258-3.005,0.357-4.456,0.793
		l1.447,6.021c-0.703,0.199-1.428,0.329-2.115,0.58l-2.061,0.754l-2.372-5.72c-0.694,0.283-1.359,0.633-2.037,0.951
		c-0.678,0.321-1.353,0.647-1.983,1.055l-1.933,1.179c-0.619,0.43-1.216,0.893-1.822,1.342l3.778,4.906
		c-0.604,0.417-1.149,0.905-1.683,1.407c-0.536,0.498-1.107,0.961-1.576,1.526L400.556,44l-1.508,1.664
		c-0.471,0.58-0.908,1.19-1.36,1.787c-0.951,1.176-1.639,2.533-2.441,3.809l5.442,2.954c-0.634,1.319-1.307,2.621-1.753,4.019
		l-5.837-2.067c-0.571,1.392-0.851,2.874-1.242,4.321c-0.245,1.485-0.55,2.976-0.623,4.48l6.174,0.474l-0.111,2.194l0.112,2.194
		l-6.174,0.48c0.077,1.493,0.376,2.973,0.621,4.447c0.392,1.458,0.679,2.95,1.253,4.352l5.793-2.058
		c0.017,0.005,0.035,0.006,0.052,0.011c0.446,1.388,1.116,2.681,1.747,3.991l-5.44,2.959c0.798,1.266,1.481,2.613,2.425,3.78
		c0.455,0.601,0.894,1.217,1.371,1.8l1.519,1.676l4.487-4.268c0.468,0.565,1.043,1.025,1.577,1.524
		c0.533,0.503,1.081,0.988,1.685,1.405l-3.773,4.91c0.602,0.445,1.193,0.906,1.81,1.33l1.919,1.17
		c0.634,0.412,1.315,0.739,1.998,1.063c0.684,0.319,1.353,0.675,2.054,0.955l2.366-5.722l2.061,0.754
		c0.689,0.246,1.412,0.38,2.116,0.577l-1.441,6.022l1.091,0.275l1.11,0.175l2.223,0.334c1.503,0.065,3.01,0.245,4.514,0.146
		l-0.166-6.19l2.193-0.118l2.17-0.332l1.122,6.09c1.473-0.26,2.926-0.666,4.359-1.096c1.419-0.519,2.858-0.993,4.197-1.699
		l-2.675-5.585c1.235-0.538,2.37-1.269,3.504-1.989c0.399,0.441,0.824,0.858,1.283,1.238l2.53,3.675
		c1.196-0.901,2.436-1.75,3.509-2.798c1.152-0.979,2.159-2.103,3.163-3.229l-4.711-4.019c0.508-0.529,0.894-1.158,1.349-1.731
		c0.461-0.57,0.849-1.191,1.217-1.824l5.277,3.24c0.822-1.256,1.469-2.61,2.105-3.968c0.352-0.67,0.568-1.398,0.841-2.103
		c0.241-0.715,0.558-1.407,0.728-2.145l-5.94-1.75l0.547-2.125C453.12,72.745,453.204,72.016,453.323,71.294z M458.088,70.17
		l-0.018-0.002c0.006-0.006,0.013-0.01,0.019-0.017L458.088,70.17z M458.086,65.042l0.017,0.34
		c-0.096-0.112-0.195-0.219-0.305-0.318L458.086,65.042z M394.027,58.343l0.002-0.007l0.005,0.001
		C394.031,58.339,394.029,58.341,394.027,58.343z M437.926,97.72l0.071,0.17l-0.138,0.051
		C437.885,97.868,437.909,97.796,437.926,97.72z M419.684,35.387c-0.07,0.029-0.139,0.057-0.208,0.088l-0.01-0.054L419.684,35.387z
		 M424.601,100.351l-0.032-0.002c0.011-0.011,0.023-0.022,0.033-0.033L424.601,100.351z M425.444,86.371
		c-10.355,0-18.75-8.395-18.75-18.75c0-10.355,8.395-18.75,18.75-18.75c10.355,0,18.75,8.395,18.75,18.75
		C444.194,77.977,435.799,86.371,425.444,86.371z"/>
	<path style="fill:#3294BF;" d="M466.664,445.629l4.49,0.586c0.191-1.081,0.159-2.181,0.234-3.272
		c-0.076-1.098-0.042-2.207-0.237-3.296l-4.489,0.59c-0.088-0.527-0.147-1.061-0.256-1.584l-0.4-1.554l4.342-1.284
		c-0.127-0.534-0.354-1.037-0.53-1.556c-0.198-0.511-0.355-1.04-0.611-1.526c-0.468-1.001-0.946-1.997-1.552-2.922l-3.052,1.878
		c-0.277,0.149-0.551,0.304-0.819,0.472c-0.264-0.455-0.546-0.899-0.877-1.309c-0.333-0.418-0.613-0.88-0.988-1.264l3.442-2.942
		c-0.729-0.818-1.461-1.633-2.297-2.343c-0.791-0.772-1.705-1.397-2.585-2.06l-2.564,3.732c-0.904-0.569-1.802-1.161-2.784-1.589
		l1.952-4.085c-0.972-0.512-2.018-0.854-3.047-1.232c-0.518-0.192-1.064-0.296-1.596-0.444c-0.537-0.129-1.066-0.296-1.616-0.36
		l-0.816,4.454l-1.587-0.243l-1.604-0.084l0.117-4.526c-1.092-0.068-2.186,0.06-3.277,0.108c-1.087,0.189-2.197,0.261-3.259,0.58
		l1.058,4.402c-0.514,0.145-1.044,0.24-1.547,0.424l-1.507,0.551l-1.734-4.183c-0.507,0.207-0.993,0.462-1.49,0.695
		c-0.496,0.235-0.989,0.473-1.45,0.772l-1.414,0.862c-0.453,0.314-0.889,0.653-1.332,0.981l2.762,3.588
		c-0.442,0.305-0.84,0.662-1.23,1.029c-0.392,0.364-0.809,0.703-1.152,1.116l-3.284-3.117l-1.103,1.217
		c-0.345,0.424-0.664,0.87-0.994,1.307c-0.695,0.86-1.198,1.852-1.785,2.785l3.979,2.16c-0.464,0.964-0.956,1.917-1.282,2.939
		l-4.268-1.512c-0.417,1.018-0.622,2.101-0.908,3.159c-0.179,1.086-0.402,2.176-0.455,3.276l4.515,0.347l-0.081,1.604l0.082,1.604
		l-4.514,0.351c0.057,1.091,0.275,2.174,0.454,3.252c0.287,1.066,0.496,2.157,0.917,3.182l4.236-1.505
		c0.013,0.003,0.026,0.005,0.038,0.008c0.326,1.015,0.816,1.961,1.277,2.918l-3.977,2.164c0.584,0.926,1.083,1.91,1.773,2.764
		c0.333,0.44,0.654,0.89,1.002,1.316l1.111,1.226l3.281-3.121c0.342,0.413,0.763,0.749,1.153,1.115
		c0.389,0.368,0.79,0.722,1.232,1.027l-2.759,3.59c0.44,0.326,0.873,0.663,1.323,0.973l1.403,0.856
		c0.464,0.301,0.962,0.54,1.461,0.777c0.5,0.233,0.989,0.494,1.502,0.698l1.73-4.184l1.507,0.551
		c0.504,0.18,1.033,0.278,1.547,0.422l-1.054,4.404l0.798,0.201l0.812,0.128l1.626,0.245c1.099,0.048,2.201,0.179,3.301,0.107
		l-0.121-4.526l1.603-0.086l1.587-0.243l0.82,4.453c1.077-0.19,2.14-0.487,3.187-0.801c1.037-0.38,2.089-0.726,3.069-1.242
		l-1.956-4.084c0.903-0.394,1.733-0.928,2.562-1.454c0.292,0.323,0.603,0.627,0.938,0.905l1.85,2.687
		c0.874-0.659,1.781-1.279,2.566-2.046c0.842-0.716,1.578-1.538,2.313-2.361l-3.445-2.939c0.371-0.387,0.654-0.847,0.986-1.266
		c0.337-0.417,0.621-0.871,0.89-1.334l3.859,2.369c0.601-0.919,1.074-1.908,1.539-2.902c0.258-0.49,0.415-1.023,0.615-1.537
		c0.177-0.523,0.408-1.029,0.532-1.568l-4.343-1.28l0.4-1.554C466.516,446.689,466.577,446.156,466.664,445.629z M470.148,444.806
		l-0.013-0.001c0.004-0.004,0.01-0.008,0.014-0.012L470.148,444.806z M470.147,441.057l0.012,0.249
		c-0.07-0.082-0.143-0.16-0.223-0.233L470.147,441.057z M423.307,436.159l0.001-0.005l0.004,0.001
		C423.31,436.156,423.308,436.158,423.307,436.159z M455.406,464.951l0.052,0.124l-0.101,0.037
		C455.375,465.06,455.393,465.007,455.406,464.951z M442.067,419.373c-0.051,0.021-0.102,0.042-0.152,0.064l-0.007-0.04
		L442.067,419.373z M445.662,466.875l-0.024-0.001c0.008-0.008,0.016-0.016,0.024-0.024L445.662,466.875z M446.279,456.653
		c-7.572,0-13.71-6.138-13.71-13.71c0-7.572,6.138-13.71,13.71-13.71s13.71,6.138,13.71,13.71
		C459.989,450.515,453.851,456.653,446.279,456.653z"/>
	<path style="fill:#3294BF;" d="M84.552,445.629l4.49,0.586c0.191-1.081,0.159-2.181,0.234-3.272
		c-0.076-1.098-0.042-2.207-0.238-3.296l-4.489,0.59c-0.088-0.527-0.147-1.061-0.256-1.584l-0.4-1.554l4.342-1.284
		c-0.127-0.534-0.354-1.037-0.53-1.556c-0.198-0.511-0.355-1.04-0.611-1.526c-0.468-1.001-0.946-1.997-1.552-2.922l-3.052,1.878
		c-0.277,0.149-0.551,0.304-0.819,0.472c-0.264-0.455-0.546-0.899-0.877-1.309c-0.333-0.418-0.613-0.88-0.988-1.264l3.442-2.942
		c-0.729-0.818-1.46-1.633-2.297-2.343c-0.791-0.772-1.705-1.397-2.586-2.06l-2.564,3.732c-0.904-0.569-1.802-1.161-2.785-1.589
		l1.952-4.085c-0.972-0.512-2.018-0.854-3.047-1.232c-0.518-0.192-1.064-0.296-1.596-0.444c-0.537-0.129-1.066-0.296-1.616-0.36
		l-0.816,4.454l-1.587-0.243l-1.604-0.084l0.117-4.526c-1.092-0.068-2.186,0.06-3.277,0.108c-1.086,0.189-2.197,0.261-3.258,0.58
		l1.058,4.402c-0.514,0.145-1.044,0.24-1.547,0.424l-1.507,0.551l-1.734-4.183c-0.507,0.207-0.993,0.462-1.49,0.695
		c-0.496,0.235-0.989,0.473-1.45,0.772l-1.414,0.862c-0.453,0.314-0.889,0.653-1.332,0.981l2.762,3.588
		c-0.442,0.305-0.84,0.662-1.231,1.029c-0.392,0.364-0.809,0.703-1.152,1.116l-3.284-3.117l-1.103,1.217
		c-0.345,0.424-0.664,0.87-0.994,1.307c-0.695,0.86-1.198,1.852-1.785,2.785l3.979,2.16c-0.464,0.964-0.955,1.917-1.282,2.939
		l-4.268-1.512c-0.417,1.018-0.623,2.101-0.908,3.159c-0.179,1.086-0.402,2.176-0.455,3.276l4.515,0.347l-0.081,1.604l0.082,1.604
		l-4.514,0.351c0.057,1.091,0.275,2.174,0.454,3.252c0.287,1.066,0.496,2.157,0.917,3.182l4.236-1.505
		c0.013,0.003,0.026,0.005,0.038,0.008c0.326,1.015,0.816,1.961,1.277,2.918l-3.977,2.164c0.584,0.926,1.083,1.91,1.773,2.764
		c0.333,0.44,0.654,0.89,1.002,1.316l1.111,1.226l3.281-3.121c0.342,0.413,0.763,0.749,1.153,1.115
		c0.389,0.368,0.79,0.722,1.232,1.027l-2.759,3.59c0.44,0.326,0.873,0.663,1.323,0.973l1.403,0.856
		c0.464,0.301,0.962,0.54,1.461,0.777c0.5,0.233,0.989,0.494,1.501,0.698l1.73-4.184l1.507,0.551
		c0.504,0.18,1.033,0.278,1.547,0.422l-1.054,4.404l0.798,0.201l0.812,0.128l1.626,0.245c1.099,0.048,2.201,0.179,3.301,0.107
		l-0.122-4.526l1.604-0.086l1.587-0.243l0.82,4.453c1.077-0.19,2.14-0.487,3.187-0.801c1.037-0.38,2.09-0.726,3.069-1.242
		l-1.956-4.084c0.903-0.394,1.733-0.928,2.562-1.454c0.292,0.323,0.603,0.627,0.938,0.905l1.85,2.687
		c0.874-0.659,1.781-1.279,2.566-2.046c0.842-0.716,1.578-1.538,2.313-2.361l-3.445-2.939c0.372-0.387,0.654-0.847,0.986-1.266
		c0.337-0.417,0.62-0.871,0.89-1.334l3.859,2.369c0.601-0.919,1.074-1.908,1.539-2.902c0.258-0.49,0.415-1.023,0.615-1.537
		c0.177-0.523,0.408-1.029,0.532-1.568l-4.343-1.28l0.4-1.554C84.403,446.689,84.465,446.156,84.552,445.629z M88.036,444.806
		l-0.013-0.001c0.004-0.004,0.01-0.008,0.014-0.012L88.036,444.806z M88.035,441.057l0.012,0.249
		c-0.07-0.082-0.143-0.16-0.223-0.233L88.035,441.057z M41.194,436.159l0.001-0.005l0.004,0.001
		C41.198,436.156,41.196,436.158,41.194,436.159z M73.294,464.951l0.052,0.124l-0.101,0.037
		C73.263,465.06,73.281,465.007,73.294,464.951z M59.955,419.373c-0.051,0.021-0.102,0.042-0.152,0.064l-0.007-0.04L59.955,419.373z
		 M63.55,466.875l-0.024-0.001c0.008-0.008,0.016-0.016,0.024-0.024L63.55,466.875z M64.167,456.653
		c-7.572,0-13.71-6.138-13.71-13.71c0-7.572,6.138-13.71,13.71-13.71s13.71,6.138,13.71,13.71
		C77.877,450.515,71.739,456.653,64.167,456.653z"/>
	<path style="fill:#3294BF;" d="M53.246,402.324l2.719,0.355c0.116-0.655,0.096-1.321,0.142-1.981
		c-0.046-0.665-0.025-1.336-0.144-1.996l-2.718,0.357c-0.053-0.319-0.089-0.642-0.155-0.959l-0.242-0.941l2.629-0.778
		c-0.077-0.323-0.215-0.628-0.321-0.942c-0.12-0.31-0.215-0.63-0.37-0.924c-0.283-0.606-0.573-1.209-0.94-1.77l-1.848,1.137
		c-0.168,0.09-0.334,0.184-0.496,0.286c-0.16-0.276-0.331-0.544-0.531-0.793c-0.202-0.253-0.371-0.533-0.598-0.766l2.084-1.781
		c-0.441-0.495-0.884-0.989-1.391-1.419c-0.479-0.468-1.032-0.846-1.566-1.248l-1.553,2.26c-0.547-0.345-1.091-0.703-1.686-0.962
		l1.182-2.474c-0.589-0.31-1.222-0.517-1.845-0.746c-0.314-0.117-0.644-0.179-0.966-0.269c-0.325-0.078-0.646-0.179-0.978-0.218
		l-0.494,2.697l-0.961-0.147l-0.971-0.051l0.071-2.741c-0.661-0.041-1.324,0.036-1.984,0.066c-0.658,0.114-1.33,0.158-1.973,0.351
		l0.641,2.666c-0.311,0.088-0.632,0.145-0.936,0.257l-0.912,0.334l-1.05-2.533c-0.307,0.125-0.602,0.28-0.902,0.421
		c-0.3,0.142-0.599,0.286-0.878,0.467l-0.856,0.522c-0.274,0.19-0.538,0.395-0.807,0.594l1.673,2.172
		c-0.267,0.185-0.509,0.401-0.745,0.623c-0.237,0.22-0.49,0.426-0.698,0.676l-1.988-1.888l-0.668,0.737
		c-0.209,0.257-0.402,0.527-0.602,0.791c-0.421,0.52-0.726,1.121-1.081,1.686l2.41,1.308c-0.281,0.584-0.579,1.161-0.776,1.779
		l-2.585-0.915c-0.253,0.616-0.377,1.272-0.55,1.913c-0.108,0.658-0.243,1.318-0.276,1.984l2.734,0.21l-0.049,0.971l0.05,0.971
		l-2.733,0.213c0.034,0.661,0.167,1.316,0.275,1.969c0.174,0.646,0.301,1.306,0.555,1.927l2.565-0.911
		c0.008,0.002,0.015,0.003,0.023,0.005c0.198,0.614,0.494,1.187,0.773,1.767l-2.408,1.31c0.353,0.56,0.656,1.157,1.074,1.673
		c0.202,0.266,0.396,0.539,0.607,0.797l0.673,0.742l1.987-1.89c0.207,0.25,0.462,0.454,0.698,0.675
		c0.236,0.223,0.479,0.437,0.746,0.622l-1.671,2.174c0.267,0.197,0.528,0.401,0.801,0.589l0.85,0.518
		c0.281,0.182,0.582,0.327,0.885,0.47c0.303,0.141,0.599,0.299,0.909,0.423l1.048-2.534l0.912,0.334
		c0.305,0.109,0.625,0.168,0.937,0.256l-0.638,2.667l0.483,0.122l0.492,0.078l0.984,0.148c0.665,0.029,1.333,0.109,1.999,0.065
		l-0.074-2.741l0.971-0.052l0.961-0.147l0.497,2.696c0.652-0.115,1.296-0.295,1.93-0.485c0.628-0.23,1.265-0.44,1.858-0.752
		l-1.184-2.473c0.547-0.238,1.049-0.562,1.552-0.881c0.177,0.195,0.365,0.38,0.568,0.548l1.12,1.627
		c0.529-0.399,1.078-0.775,1.554-1.239c0.51-0.433,0.956-0.931,1.401-1.43l-2.086-1.78c0.225-0.234,0.396-0.513,0.597-0.766
		c0.204-0.253,0.376-0.527,0.539-0.808l2.336,1.435c0.364-0.556,0.651-1.155,0.932-1.757c0.156-0.297,0.251-0.619,0.372-0.931
		c0.107-0.317,0.247-0.623,0.322-0.95l-2.63-0.775l0.242-0.941C53.156,402.966,53.193,402.644,53.246,402.324z M55.356,401.826
		l-0.008-0.001c0.003-0.003,0.006-0.005,0.008-0.007L55.356,401.826z M55.355,399.556l0.007,0.151
		c-0.043-0.049-0.087-0.097-0.135-0.141L55.355,399.556z M26.992,396.59l0.001-0.003l0.002,0.001
		C26.994,396.588,26.993,396.589,26.992,396.59z M46.429,414.024l0.031,0.075l-0.061,0.022
		C46.41,414.09,46.421,414.058,46.429,414.024z M38.352,386.426c-0.031,0.013-0.062,0.025-0.092,0.039l-0.005-0.024L38.352,386.426z
		 M40.529,415.19l-0.014-0.001c0.005-0.005,0.01-0.01,0.015-0.015L40.529,415.19z M40.902,409c-4.585,0-8.302-3.717-8.302-8.302
		c0-4.585,3.717-8.302,8.302-8.302s8.302,3.717,8.302,8.302C49.204,405.283,45.487,409,40.902,409z"/>
	<path style="fill:#3294BF;" d="M292.621,415.489l4.573,0.597c0.194-1.101,0.162-2.222,0.238-3.332
		c-0.078-1.119-0.042-2.247-0.242-3.357l-4.572,0.601c-0.089-0.537-0.149-1.08-0.26-1.613l-0.407-1.583l4.422-1.308
		c-0.129-0.544-0.361-1.056-0.54-1.585c-0.202-0.52-0.361-1.059-0.622-1.554c-0.476-1.02-0.964-2.034-1.581-2.977l-3.108,1.913
		c-0.282,0.152-0.561,0.309-0.834,0.481c-0.269-0.464-0.556-0.916-0.894-1.334c-0.339-0.426-0.624-0.896-1.006-1.288l3.505-2.996
		c-0.742-0.833-1.487-1.663-2.339-2.386c-0.806-0.787-1.737-1.422-2.633-2.098l-2.611,3.801c-0.921-0.58-1.835-1.182-2.836-1.618
		l1.988-4.161c-0.99-0.522-2.055-0.87-3.103-1.254c-0.528-0.196-1.083-0.301-1.625-0.453c-0.547-0.132-1.086-0.302-1.645-0.367
		l-0.831,4.536l-1.616-0.247l-1.633-0.086l0.119-4.61c-1.112-0.069-2.226,0.061-3.337,0.11c-1.107,0.192-2.238,0.266-3.319,0.59
		l1.077,4.484c-0.524,0.148-1.064,0.245-1.575,0.432l-1.535,0.561l-1.766-4.26c-0.517,0.21-1.012,0.471-1.517,0.708
		c-0.505,0.239-1.008,0.482-1.477,0.786l-1.44,0.878c-0.461,0.32-0.906,0.665-1.357,0.999l2.814,3.654
		c-0.45,0.31-0.855,0.674-1.253,1.048c-0.399,0.371-0.824,0.716-1.173,1.137l-3.344-3.175l-1.123,1.239
		c-0.351,0.432-0.676,0.887-1.013,1.331c-0.708,0.875-1.22,1.886-1.818,2.836l4.053,2.2c-0.472,0.982-0.973,1.952-1.305,2.993
		l-4.347-1.539c-0.425,1.036-0.634,2.14-0.925,3.218c-0.182,1.106-0.41,2.216-0.464,3.336l4.598,0.353l-0.082,1.634l0.083,1.634
		l-4.598,0.357c0.058,1.112,0.28,2.214,0.462,3.312c0.292,1.086,0.506,2.197,0.934,3.241l4.314-1.533
		c0.013,0.003,0.026,0.005,0.039,0.008c0.332,1.033,0.831,1.997,1.301,2.972l-4.051,2.204c0.595,0.943,1.103,1.946,1.806,2.815
		c0.339,0.448,0.666,0.906,1.021,1.34l1.131,1.249l3.341-3.178c0.349,0.421,0.777,0.763,1.175,1.135
		c0.397,0.375,0.805,0.735,1.255,1.046l-2.81,3.657c0.448,0.332,0.889,0.675,1.348,0.991l1.429,0.871
		c0.472,0.307,0.979,0.55,1.488,0.791c0.509,0.238,1.007,0.503,1.529,0.711l1.762-4.262l1.535,0.562
		c0.513,0.183,1.052,0.283,1.576,0.43l-1.073,4.485l0.812,0.205l0.827,0.13l1.656,0.249c1.119,0.048,2.241,0.182,3.362,0.109
		l-0.124-4.61l1.633-0.088l1.616-0.247l0.836,4.535c1.097-0.194,2.179-0.496,3.246-0.816c1.057-0.387,2.128-0.74,3.126-1.265
		l-1.992-4.159c0.92-0.401,1.765-0.945,2.609-1.481c0.297,0.329,0.614,0.639,0.955,0.922l1.884,2.737
		c0.89-0.671,1.814-1.303,2.613-2.084c0.858-0.729,1.608-1.566,2.355-2.405l-3.508-2.993c0.378-0.394,0.666-0.862,1.004-1.289
		c0.344-0.425,0.632-0.887,0.906-1.358l3.93,2.413c0.612-0.936,1.094-1.944,1.568-2.955c0.262-0.499,0.423-1.041,0.626-1.566
		c0.18-0.533,0.415-1.048,0.542-1.597l-4.423-1.304l0.407-1.583C292.469,416.569,292.532,416.026,292.621,415.489z M296.169,414.651
		l-0.014-0.001c0.004-0.004,0.01-0.008,0.014-0.012L296.169,414.651z M296.167,410.833l0.013,0.254
		c-0.072-0.083-0.146-0.163-0.227-0.237L296.167,410.833z M248.462,405.844l0.001-0.005l0.004,0.001
		C248.466,405.841,248.464,405.843,248.462,405.844z M281.154,435.168l0.053,0.127l-0.103,0.038
		C281.124,435.279,281.142,435.225,281.154,435.168z M267.569,388.749c-0.052,0.021-0.104,0.043-0.155,0.065l-0.007-0.04
		L267.569,388.749z M271.231,437.128l-0.024-0.001c0.008-0.008,0.017-0.016,0.025-0.025L271.231,437.128z M271.859,426.717
		c-7.712,0-13.963-6.252-13.963-13.963c0-7.712,6.252-13.963,13.963-13.963s13.963,6.252,13.963,13.963
		C285.822,420.465,279.571,426.717,271.859,426.717z"/>
	<path style="fill:#3294BF;" d="M450.559,210.893l2.286,0.298c0.097-0.551,0.081-1.111,0.119-1.666
		c-0.039-0.559-0.021-1.124-0.121-1.678l-2.286,0.301c-0.045-0.269-0.075-0.54-0.13-0.807l-0.204-0.791l2.211-0.654
		c-0.065-0.272-0.18-0.528-0.27-0.792c-0.101-0.26-0.181-0.529-0.311-0.777c-0.238-0.51-0.482-1.017-0.79-1.488l-1.554,0.956
		c-0.141,0.076-0.281,0.155-0.417,0.24c-0.134-0.232-0.278-0.458-0.447-0.667c-0.17-0.213-0.312-0.448-0.503-0.644l1.753-1.498
		c-0.371-0.416-0.744-0.831-1.169-1.193c-0.403-0.393-0.868-0.711-1.317-1.049l-1.306,1.901c-0.46-0.29-0.918-0.591-1.418-0.809
		l0.994-2.081c-0.495-0.261-1.028-0.435-1.552-0.627c-0.264-0.098-0.542-0.151-0.813-0.226c-0.273-0.066-0.543-0.151-0.823-0.184
		l-0.416,2.268l-0.808-0.124l-0.817-0.043l0.06-2.305c-0.556-0.035-1.113,0.031-1.669,0.055c-0.553,0.096-1.119,0.133-1.659,0.295
		l0.539,2.242c-0.262,0.074-0.532,0.122-0.788,0.216l-0.767,0.281l-0.883-2.13c-0.258,0.105-0.506,0.236-0.759,0.354
		c-0.252,0.12-0.504,0.241-0.738,0.393l-0.72,0.439c-0.23,0.16-0.453,0.332-0.678,0.5l1.407,1.827
		c-0.225,0.155-0.428,0.337-0.627,0.524c-0.2,0.185-0.412,0.358-0.587,0.568l-1.672-1.587l-0.561,0.62
		c-0.176,0.216-0.338,0.443-0.506,0.665c-0.354,0.438-0.61,0.943-0.909,1.418l2.026,1.1c-0.236,0.491-0.487,0.976-0.653,1.497
		l-2.173-0.77c-0.212,0.518-0.317,1.07-0.462,1.609c-0.091,0.553-0.205,1.108-0.232,1.668l2.299,0.177l-0.041,0.817l0.042,0.817
		l-2.299,0.179c0.029,0.556,0.14,1.107,0.231,1.656c0.146,0.543,0.253,1.098,0.467,1.62l2.157-0.766
		c0.006,0.002,0.013,0.002,0.02,0.004c0.166,0.517,0.415,0.998,0.65,1.486l-2.025,1.102c0.297,0.471,0.551,0.973,0.903,1.407
		c0.17,0.224,0.333,0.453,0.51,0.67l0.566,0.624l1.671-1.589c0.174,0.211,0.388,0.382,0.587,0.568
		c0.198,0.188,0.402,0.368,0.627,0.523l-1.405,1.828c0.224,0.166,0.444,0.338,0.674,0.495l0.715,0.436
		c0.236,0.153,0.49,0.275,0.744,0.396c0.255,0.119,0.504,0.252,0.765,0.356l0.881-2.131l0.767,0.281
		c0.256,0.092,0.526,0.141,0.788,0.215l-0.536,2.242l0.406,0.102l0.413,0.065l0.828,0.125c0.56,0.024,1.121,0.091,1.681,0.054
		l-0.062-2.305l0.816-0.044l0.808-0.124l0.418,2.268c0.548-0.097,1.09-0.248,1.623-0.408c0.528-0.193,1.064-0.37,1.563-0.633
		l-0.996-2.079c0.46-0.201,0.882-0.472,1.305-0.741c0.149,0.164,0.307,0.32,0.478,0.461l0.942,1.368
		c0.445-0.335,0.907-0.652,1.307-1.042c0.429-0.364,0.804-0.783,1.178-1.202l-1.754-1.497c0.189-0.197,0.333-0.431,0.502-0.644
		c0.172-0.212,0.316-0.443,0.453-0.679l1.965,1.207c0.306-0.468,0.547-0.972,0.784-1.478c0.131-0.249,0.211-0.521,0.313-0.783
		c0.09-0.266,0.208-0.524,0.271-0.799l-2.212-0.652l0.204-0.791C450.483,211.434,450.515,211.162,450.559,210.893z M452.333,210.475
		l-0.007,0c0.002-0.002,0.005-0.004,0.007-0.006L452.333,210.475z M452.333,208.565l0.006,0.127
		c-0.036-0.041-0.073-0.082-0.113-0.118L452.333,208.565z M428.48,206.071l0.001-0.003l0.002,0.001
		C428.482,206.07,428.481,206.07,428.48,206.071z M444.826,220.733l0.026,0.063l-0.051,0.019
		C444.811,220.788,444.82,220.761,444.826,220.733z M438.033,197.523c-0.026,0.011-0.052,0.021-0.077,0.033l-0.004-0.02
		L438.033,197.523z M439.865,221.713l-0.012-0.001c0.004-0.004,0.008-0.008,0.012-0.012L439.865,221.713z M440.178,216.508
		c-3.856,0-6.982-3.126-6.982-6.982c0-3.856,3.126-6.982,6.982-6.982c3.856,0,6.982,3.126,6.982,6.982
		C447.16,213.382,444.034,216.508,440.178,216.508z"/>
	<path style="fill:#3294BF;" d="M371.486,56.208l2.286,0.298c0.097-0.551,0.081-1.111,0.119-1.666
		c-0.039-0.559-0.021-1.124-0.121-1.678l-2.286,0.301c-0.045-0.269-0.075-0.54-0.13-0.807l-0.204-0.791l2.211-0.654
		c-0.065-0.272-0.18-0.528-0.27-0.792c-0.101-0.26-0.181-0.529-0.311-0.777c-0.238-0.51-0.482-1.017-0.79-1.488l-1.554,0.956
		c-0.141,0.076-0.281,0.155-0.417,0.24c-0.135-0.232-0.278-0.458-0.447-0.667c-0.17-0.213-0.312-0.448-0.503-0.644l1.753-1.498
		c-0.371-0.416-0.744-0.831-1.169-1.193c-0.403-0.393-0.868-0.711-1.317-1.049l-1.306,1.901c-0.46-0.29-0.918-0.591-1.418-0.809
		l0.994-2.08c-0.495-0.261-1.027-0.435-1.552-0.627c-0.264-0.098-0.542-0.151-0.812-0.226c-0.273-0.066-0.543-0.151-0.823-0.184
		l-0.415,2.268l-0.808-0.124l-0.817-0.043l0.06-2.305c-0.556-0.035-1.113,0.031-1.669,0.055c-0.553,0.096-1.119,0.133-1.659,0.295
		l0.539,2.242c-0.262,0.074-0.532,0.122-0.788,0.216l-0.767,0.281l-0.883-2.13c-0.258,0.105-0.506,0.236-0.759,0.354
		c-0.252,0.12-0.504,0.241-0.738,0.393l-0.72,0.439c-0.23,0.16-0.453,0.332-0.678,0.5l1.407,1.827
		c-0.225,0.155-0.428,0.337-0.627,0.524c-0.2,0.185-0.412,0.358-0.587,0.568l-1.672-1.588l-0.561,0.62
		c-0.176,0.216-0.338,0.443-0.506,0.666c-0.354,0.438-0.61,0.943-0.909,1.418l2.026,1.1c-0.236,0.491-0.487,0.976-0.653,1.496
		l-2.173-0.77c-0.212,0.518-0.317,1.07-0.462,1.609c-0.091,0.553-0.205,1.108-0.232,1.668l2.299,0.176l-0.041,0.817l0.042,0.817
		l-2.299,0.179c0.029,0.556,0.14,1.107,0.231,1.656c0.146,0.543,0.253,1.098,0.467,1.62l2.157-0.766
		c0.006,0.002,0.013,0.002,0.019,0.004c0.166,0.517,0.415,0.998,0.65,1.486l-2.025,1.102c0.297,0.471,0.551,0.973,0.903,1.407
		c0.169,0.224,0.333,0.453,0.51,0.67l0.566,0.624l1.671-1.589c0.174,0.211,0.388,0.382,0.587,0.568
		c0.198,0.187,0.402,0.368,0.627,0.523l-1.405,1.828c0.224,0.166,0.444,0.338,0.674,0.495l0.715,0.436
		c0.236,0.153,0.49,0.275,0.744,0.396c0.255,0.119,0.504,0.252,0.765,0.356l0.881-2.131l0.767,0.281
		c0.256,0.092,0.526,0.142,0.788,0.215l-0.536,2.242l0.406,0.102l0.413,0.065l0.828,0.125c0.56,0.024,1.121,0.091,1.681,0.054
		l-0.062-2.305l0.816-0.044l0.808-0.124l0.418,2.268c0.548-0.097,1.09-0.248,1.623-0.408c0.528-0.193,1.064-0.37,1.563-0.632
		l-0.996-2.079c0.46-0.201,0.882-0.472,1.305-0.741c0.149,0.164,0.307,0.319,0.478,0.461l0.942,1.368
		c0.445-0.335,0.907-0.652,1.307-1.042c0.429-0.364,0.804-0.783,1.178-1.202l-1.754-1.496c0.189-0.197,0.333-0.431,0.502-0.644
		c0.172-0.212,0.316-0.444,0.453-0.679l1.965,1.207c0.306-0.468,0.547-0.972,0.784-1.478c0.131-0.249,0.211-0.521,0.313-0.783
		c0.09-0.266,0.208-0.524,0.271-0.799l-2.212-0.652l0.204-0.791C371.411,56.748,371.442,56.477,371.486,56.208z M373.261,55.789
		l-0.007,0c0.002-0.002,0.005-0.004,0.007-0.006L373.261,55.789z M373.26,53.88l0.006,0.127c-0.036-0.042-0.073-0.082-0.114-0.118
		L373.26,53.88z M349.407,51.386l0.001-0.003l0.002,0C349.409,51.384,349.408,51.385,349.407,51.386z M365.753,66.048l0.026,0.063
		l-0.052,0.019C365.738,66.103,365.747,66.076,365.753,66.048z M358.961,42.838c-0.026,0.011-0.052,0.021-0.078,0.033l-0.004-0.02
		L358.961,42.838z M360.792,67.027l-0.012-0.001c0.004-0.004,0.008-0.008,0.012-0.012L360.792,67.027z M361.106,61.822
		c-3.856,0-6.982-3.126-6.982-6.982c0-3.856,3.126-6.982,6.982-6.982c3.856,0,6.982,3.126,6.982,6.982
		C368.087,58.696,364.961,61.822,361.106,61.822z"/>
	<path style="fill:#3294BF;" d="M250.666,114.415l2.286,0.298c0.097-0.551,0.081-1.111,0.119-1.666
		c-0.039-0.559-0.021-1.124-0.121-1.678l-2.286,0.301c-0.045-0.269-0.075-0.54-0.13-0.807l-0.204-0.791l2.211-0.654
		c-0.065-0.272-0.18-0.528-0.27-0.792c-0.101-0.26-0.181-0.53-0.311-0.777c-0.238-0.51-0.482-1.017-0.79-1.488l-1.554,0.956
		c-0.141,0.076-0.281,0.155-0.417,0.24c-0.134-0.232-0.278-0.458-0.447-0.667c-0.17-0.213-0.312-0.448-0.503-0.644l1.753-1.498
		c-0.371-0.416-0.744-0.831-1.169-1.193c-0.403-0.393-0.868-0.711-1.317-1.049l-1.306,1.901c-0.46-0.29-0.917-0.591-1.418-0.809
		l0.994-2.081c-0.495-0.261-1.027-0.435-1.552-0.627c-0.264-0.098-0.542-0.151-0.813-0.226c-0.273-0.066-0.543-0.151-0.823-0.183
		l-0.416,2.268l-0.808-0.124l-0.817-0.043l0.06-2.305c-0.556-0.035-1.113,0.031-1.669,0.055c-0.553,0.096-1.119,0.133-1.659,0.295
		l0.539,2.242c-0.262,0.074-0.532,0.122-0.788,0.216l-0.767,0.281l-0.883-2.13c-0.258,0.105-0.506,0.236-0.758,0.354
		c-0.253,0.12-0.504,0.241-0.738,0.393l-0.72,0.439c-0.23,0.16-0.453,0.332-0.678,0.5l1.407,1.827
		c-0.225,0.155-0.428,0.337-0.627,0.524c-0.2,0.185-0.412,0.358-0.587,0.568l-1.672-1.587l-0.562,0.62
		c-0.176,0.216-0.338,0.443-0.506,0.666c-0.354,0.438-0.61,0.943-0.909,1.418l2.026,1.1c-0.236,0.491-0.487,0.976-0.653,1.496
		l-2.173-0.77c-0.212,0.518-0.317,1.07-0.462,1.609c-0.091,0.553-0.205,1.108-0.232,1.668l2.299,0.176l-0.041,0.817l0.042,0.817
		l-2.299,0.179c0.029,0.556,0.14,1.107,0.231,1.656c0.146,0.543,0.253,1.098,0.467,1.62l2.157-0.766
		c0.006,0.002,0.013,0.002,0.019,0.004c0.166,0.517,0.415,0.998,0.65,1.486l-2.025,1.102c0.297,0.471,0.551,0.973,0.903,1.407
		c0.17,0.224,0.333,0.453,0.51,0.67l0.566,0.624l1.671-1.589c0.174,0.211,0.388,0.382,0.587,0.568
		c0.198,0.188,0.403,0.368,0.627,0.523l-1.405,1.828c0.224,0.166,0.444,0.338,0.674,0.495l0.715,0.436
		c0.236,0.153,0.49,0.275,0.744,0.396c0.255,0.119,0.504,0.251,0.765,0.356l0.881-2.131l0.767,0.281
		c0.256,0.092,0.526,0.141,0.788,0.215l-0.536,2.242l0.406,0.102l0.413,0.065l0.828,0.124c0.56,0.024,1.121,0.091,1.681,0.054
		l-0.062-2.305l0.816-0.044l0.808-0.124l0.418,2.268c0.548-0.097,1.09-0.248,1.623-0.408c0.528-0.193,1.064-0.37,1.563-0.632
		l-0.996-2.08c0.46-0.201,0.882-0.472,1.305-0.741c0.149,0.164,0.307,0.32,0.478,0.461l0.942,1.368
		c0.445-0.335,0.907-0.652,1.307-1.042c0.429-0.364,0.804-0.783,1.178-1.202l-1.754-1.496c0.189-0.197,0.333-0.431,0.502-0.644
		c0.172-0.212,0.316-0.443,0.453-0.679l1.965,1.207c0.306-0.468,0.547-0.972,0.784-1.478c0.131-0.249,0.211-0.521,0.313-0.783
		c0.09-0.266,0.208-0.524,0.271-0.799l-2.212-0.652l0.204-0.791C250.59,114.955,250.621,114.684,250.666,114.415z M252.44,113.997
		l-0.007,0c0.002-0.002,0.005-0.004,0.007-0.006L252.44,113.997z M252.439,112.087l0.006,0.127
		c-0.036-0.042-0.073-0.082-0.113-0.118L252.439,112.087z M228.587,109.593l0.001-0.003l0.002,0.001
		C228.588,109.592,228.588,109.592,228.587,109.593z M244.933,124.255l0.026,0.063l-0.051,0.019
		C244.917,124.31,244.926,124.283,244.933,124.255z M238.14,101.045c-0.026,0.011-0.052,0.021-0.077,0.033l-0.004-0.02
		L238.14,101.045z M239.971,125.235l-0.012-0.001c0.004-0.004,0.008-0.008,0.012-0.012L239.971,125.235z M240.285,120.03
		c-3.856,0-6.982-3.126-6.982-6.982c0-3.856,3.126-6.982,6.982-6.982c3.856,0,6.982,3.126,6.982,6.982
		C247.267,116.904,244.141,120.03,240.285,120.03z"/>
	<path style="fill:#3294BF;" d="M468.638,258.46l3.46,0.452c0.147-0.833,0.122-1.681,0.18-2.521
		c-0.059-0.846-0.032-1.701-0.183-2.54l-3.46,0.455c-0.068-0.406-0.113-0.818-0.197-1.221l-0.308-1.198l3.346-0.99
		c-0.098-0.411-0.273-0.799-0.409-1.199c-0.153-0.394-0.273-0.801-0.47-1.176c-0.36-0.772-0.729-1.539-1.196-2.252l-2.352,1.447
		c-0.214,0.115-0.425,0.234-0.631,0.364c-0.204-0.351-0.421-0.693-0.676-1.009c-0.257-0.322-0.473-0.678-0.761-0.974l2.652-2.267
		c-0.562-0.63-1.126-1.258-1.77-1.806c-0.609-0.595-1.314-1.076-1.992-1.588l-1.976,2.876c-0.697-0.439-1.388-0.894-2.146-1.224
		l1.504-3.148c-0.749-0.395-1.555-0.658-2.348-0.949c-0.399-0.148-0.82-0.228-1.23-0.343c-0.414-0.1-0.822-0.228-1.245-0.278
		l-0.629,3.432l-1.223-0.187l-1.236-0.065l0.09-3.488c-0.842-0.053-1.685,0.046-2.525,0.083c-0.837,0.145-1.693,0.201-2.511,0.447
		l0.815,3.393c-0.396,0.112-0.805,0.185-1.192,0.327l-1.161,0.425l-1.337-3.223c-0.391,0.159-0.766,0.357-1.148,0.536
		c-0.382,0.181-0.762,0.365-1.117,0.595l-1.089,0.664c-0.349,0.242-0.685,0.503-1.027,0.756l2.129,2.765
		c-0.34,0.235-0.647,0.51-0.948,0.793c-0.302,0.281-0.624,0.542-0.888,0.86l-2.531-2.402l-0.85,0.938
		c-0.266,0.327-0.512,0.671-0.766,1.007c-0.536,0.662-0.923,1.427-1.376,2.146l3.067,1.665c-0.357,0.743-0.736,1.477-0.988,2.265
		l-3.289-1.165c-0.322,0.784-0.48,1.619-0.7,2.435c-0.138,0.837-0.31,1.677-0.351,2.525l3.479,0.267l-0.062,1.236l0.063,1.236
		l-3.479,0.27c0.044,0.841,0.212,1.675,0.35,2.506c0.221,0.822,0.382,1.662,0.706,2.452l3.264-1.16
		c0.01,0.003,0.02,0.004,0.029,0.006c0.251,0.782,0.629,1.511,0.984,2.249l-3.065,1.668c0.45,0.713,0.835,1.472,1.367,2.13
		c0.257,0.339,0.504,0.686,0.772,1.014l0.856,0.945l2.528-2.405c0.264,0.319,0.588,0.577,0.889,0.859
		c0.3,0.284,0.609,0.556,0.949,0.791l-2.126,2.767c0.339,0.251,0.672,0.511,1.02,0.75l1.081,0.659
		c0.357,0.232,0.741,0.416,1.126,0.599c0.385,0.18,0.762,0.38,1.157,0.538l1.333-3.225l1.161,0.425
		c0.388,0.139,0.796,0.214,1.192,0.325l-0.812,3.394l0.615,0.155l0.626,0.099l1.253,0.188c0.847,0.037,1.696,0.138,2.544,0.082
		l-0.094-3.488l1.236-0.066l1.223-0.187l0.632,3.432c0.83-0.147,1.649-0.375,2.456-0.617c0.799-0.293,1.61-0.56,2.365-0.957
		l-1.507-3.147c0.696-0.303,1.335-0.715,1.975-1.121c0.225,0.249,0.465,0.483,0.723,0.697l1.426,2.071
		c0.674-0.508,1.372-0.986,1.977-1.577c0.649-0.552,1.216-1.185,1.782-1.82l-2.655-2.265c0.286-0.298,0.504-0.652,0.76-0.975
		c0.26-0.322,0.478-0.671,0.686-1.028l2.974,1.826c0.463-0.708,0.828-1.471,1.186-2.236c0.199-0.377,0.32-0.788,0.474-1.185
		c0.136-0.403,0.314-0.793,0.41-1.208l-3.347-0.986l0.308-1.198C468.523,259.277,468.571,258.867,468.638,258.46z M471.323,257.826
		l-0.01-0.001c0.003-0.003,0.007-0.006,0.011-0.009L471.323,257.826z M471.322,254.937l0.009,0.192
		c-0.054-0.063-0.11-0.124-0.172-0.179L471.322,254.937z M435.225,251.162l0.001-0.004l0.003,0.001
		C435.227,251.16,435.226,251.161,435.225,251.162z M459.962,273.351l0.04,0.096l-0.078,0.029
		C459.938,273.434,459.952,273.393,459.962,273.351z M449.682,238.227c-0.039,0.016-0.078,0.032-0.117,0.049l-0.006-0.031
		L449.682,238.227z M452.453,274.833l-0.018-0.001c0.006-0.006,0.013-0.012,0.019-0.019L452.453,274.833z M452.928,266.956
		c-5.835,0-10.565-4.73-10.565-10.565c0-5.835,4.73-10.566,10.565-10.566c5.835,0,10.565,4.73,10.565,10.566
		C463.494,262.226,458.763,266.956,452.928,266.956z"/>
	<path style="fill:#3294BF;" d="M60.742,239.118l3.46,0.452c0.147-0.833,0.122-1.681,0.18-2.521
		c-0.059-0.846-0.032-1.701-0.183-2.54l-3.46,0.455c-0.068-0.407-0.113-0.818-0.197-1.221l-0.308-1.198l3.346-0.99
		c-0.098-0.412-0.273-0.799-0.409-1.199c-0.153-0.394-0.273-0.801-0.471-1.176c-0.36-0.772-0.729-1.539-1.196-2.252l-2.352,1.447
		c-0.214,0.115-0.425,0.234-0.631,0.364c-0.204-0.351-0.421-0.693-0.676-1.009c-0.257-0.322-0.472-0.678-0.761-0.974l2.653-2.267
		c-0.562-0.63-1.125-1.258-1.77-1.806c-0.61-0.595-1.314-1.076-1.993-1.588L54,223.971c-0.697-0.439-1.388-0.894-2.146-1.224
		l1.504-3.148c-0.749-0.395-1.555-0.658-2.348-0.949c-0.399-0.148-0.82-0.228-1.23-0.342c-0.414-0.1-0.822-0.228-1.245-0.278
		l-0.629,3.432l-1.223-0.187l-1.236-0.065l0.09-3.488c-0.842-0.052-1.685,0.046-2.525,0.083c-0.837,0.145-1.693,0.201-2.511,0.447
		l0.815,3.393c-0.396,0.112-0.805,0.185-1.192,0.327l-1.161,0.425l-1.336-3.223c-0.391,0.159-0.766,0.356-1.148,0.536
		c-0.382,0.181-0.763,0.364-1.117,0.595l-1.089,0.664c-0.349,0.242-0.685,0.503-1.027,0.756l2.129,2.765
		c-0.34,0.235-0.647,0.51-0.948,0.793c-0.302,0.281-0.624,0.542-0.888,0.86l-2.531-2.402l-0.85,0.938
		c-0.266,0.327-0.512,0.671-0.766,1.007c-0.536,0.662-0.923,1.427-1.376,2.146l3.067,1.665c-0.357,0.743-0.736,1.477-0.988,2.265
		l-3.289-1.165c-0.322,0.784-0.48,1.619-0.7,2.435c-0.138,0.837-0.31,1.677-0.351,2.525l3.479,0.267l-0.062,1.236l0.063,1.236
		l-3.479,0.271c0.044,0.841,0.212,1.675,0.35,2.506c0.221,0.822,0.382,1.662,0.706,2.452l3.264-1.16
		c0.01,0.003,0.02,0.004,0.029,0.006c0.251,0.782,0.629,1.511,0.984,2.249l-3.065,1.668c0.45,0.713,0.835,1.472,1.367,2.13
		c0.257,0.339,0.504,0.686,0.772,1.014l0.856,0.945l2.528-2.405c0.264,0.319,0.588,0.577,0.889,0.859
		c0.3,0.284,0.609,0.557,0.949,0.791l-2.126,2.767c0.339,0.251,0.672,0.511,1.02,0.75l1.081,0.659
		c0.357,0.232,0.741,0.416,1.126,0.599c0.386,0.18,0.762,0.381,1.157,0.538l1.333-3.225l1.161,0.425
		c0.388,0.139,0.796,0.214,1.192,0.325l-0.812,3.394l0.615,0.155l0.626,0.099l1.253,0.188c0.847,0.037,1.696,0.138,2.544,0.082
		l-0.094-3.488l1.236-0.066l1.223-0.187l0.632,3.432c0.83-0.147,1.649-0.375,2.456-0.617c0.8-0.293,1.61-0.56,2.365-0.957
		l-1.507-3.147c0.696-0.303,1.335-0.715,1.975-1.121c0.225,0.249,0.465,0.483,0.723,0.697l1.426,2.071
		c0.674-0.507,1.373-0.986,1.978-1.577c0.649-0.551,1.216-1.185,1.782-1.82l-2.655-2.265c0.286-0.298,0.504-0.652,0.76-0.975
		c0.26-0.322,0.478-0.671,0.686-1.028l2.973,1.826c0.463-0.708,0.828-1.471,1.186-2.236c0.199-0.378,0.32-0.788,0.474-1.185
		c0.136-0.403,0.314-0.793,0.41-1.208l-3.347-0.986l0.308-1.198C60.628,239.935,60.675,239.525,60.742,239.118z M63.427,238.484
		l-0.01-0.001c0.003-0.003,0.007-0.006,0.011-0.009L63.427,238.484z M63.426,235.594l0.01,0.192
		c-0.054-0.063-0.11-0.123-0.172-0.179L63.426,235.594z M27.329,231.82l0.001-0.004l0.003,0.001
		C27.332,231.818,27.33,231.819,27.329,231.82z M52.066,254.008l0.04,0.096l-0.078,0.029
		C52.043,254.092,52.056,254.051,52.066,254.008z M41.787,218.885c-0.039,0.016-0.078,0.032-0.117,0.049l-0.006-0.031
		L41.787,218.885z M44.558,255.491l-0.018-0.001c0.006-0.006,0.013-0.012,0.019-0.019L44.558,255.491z M45.033,247.614
		c-5.835,0-10.566-4.73-10.566-10.565c0-5.835,4.73-10.566,10.566-10.566s10.565,4.73,10.565,10.566
		C55.598,242.883,50.868,247.614,45.033,247.614z"/>
</g>
<g id="OBJECTS">
	<line style="fill:none;stroke:#B7B7B7;stroke-miterlimit:10;" x1="238.486" y1="35.315" x2="238.486" y2="0"/>
	<line style="fill:none;stroke:#B7B7B7;stroke-miterlimit:10;" x1="240.01" y1="35.315" x2="240.01" y2="0"/>
	<line style="fill:none;stroke:#B7B7B7;stroke-miterlimit:10;" x1="253.915" y1="35.315" x2="253.915" y2="0"/>
	<line style="fill:none;stroke:#B7B7B7;stroke-miterlimit:10;" x1="255.439" y1="35.315" x2="255.439" y2="0"/>
	<polyline style="fill:none;stroke:#DDBB6F;stroke-width:3;stroke-linecap:round;stroke-miterlimit:10;" points="88.797,158.436 
		248.247,80.357 401.804,143.35 	"/>
	<path style="opacity:0.2;" d="M410.884,360.991H96.024c-2.095,0-3.794-1.698-3.794-3.794l0,0c0-2.095,1.699-3.794,3.794-3.794
		h314.86c2.095,0,3.794,1.698,3.794,3.794l0,0C414.678,359.293,412.979,360.991,410.884,360.991z"/>
	<g>
		<g>
			<path style="fill:#FFFFFF;" d="M410.461,333.244l-312.3,14.021c-2.011,0.09-3.714-1.467-3.804-3.477l-7.941-176.88
				l319.581-14.348l7.941,176.88C414.028,331.451,412.471,333.154,410.461,333.244z"/>
			<path style="fill:#EAEAEA;" d="M401.839,141.207l-312.3,14.021c-2.011,0.09-3.567,1.793-3.477,3.804l0.354,7.876l319.581-14.348
				l-0.354-7.876C405.553,142.673,403.85,141.116,401.839,141.207z"/>
			
				<rect x="86.513" y="159.728" transform="matrix(0.999 -0.0449 0.0449 0.999 -7.1744 11.2206)" style="fill:#F4F4F4;" width="319.903" height="11.529"/>
			<path style="fill:#D63A3A;" d="M94.889,160.757c0.052,1.167-0.851,2.155-2.018,2.208c-1.167,0.052-2.155-0.851-2.208-2.018
				c-0.052-1.167,0.851-2.155,2.018-2.208C93.848,158.687,94.837,159.591,94.889,160.757z"/>
			<path style="fill:#FFB600;" d="M101.606,160.456c0.052,1.167-0.851,2.155-2.018,2.208c-1.167,0.052-2.155-0.851-2.208-2.018
				c-0.052-1.167,0.851-2.155,2.018-2.208C100.565,158.386,101.554,159.289,101.606,160.456z"/>
			<path style="fill:#6CCE20;" d="M108.323,160.154c0.052,1.167-0.851,2.155-2.018,2.208s-2.155-0.851-2.207-2.018
				c-0.052-1.167,0.851-2.155,2.018-2.207C107.283,158.084,108.271,158.988,108.323,160.154z"/>
			<g>
				<g>
					
						<line style="fill:none;stroke:#7F7F7F;stroke-width:0.5;stroke-miterlimit:10;" x1="96.002" y1="172.902" x2="91.752" y2="173.093"/>
					<g>
						<polygon style="fill:#7F7F7F;" points="93.315,170.975 93.672,171.326 91.943,173.083 93.823,174.68 93.498,175.061 
							91.21,173.117 						"/>
					</g>
				</g>
			</g>
			<g>
				<g>
					
						<line style="fill:none;stroke:#7F7F7F;stroke-width:0.5;stroke-miterlimit:10;" x1="98.042" y1="172.81" x2="102.292" y2="172.619"/>
					<g>
						<polygon style="fill:#7F7F7F;" points="100.728,174.737 100.371,174.386 102.1,172.628 100.221,171.033 100.545,170.651 
							102.833,172.596 						"/>
					</g>
				</g>
			</g>
			<g>
				<g>
					<path style="fill:none;stroke:#7F7F7F;stroke-width:0.5;stroke-miterlimit:10;" d="M110.478,172.26
						c0.056,1.25-0.911,2.308-2.161,2.364c-1.25,0.056-2.308-0.911-2.364-2.161c-0.056-1.25,0.911-2.308,2.161-2.364
						c0,0,0.774-0.256,1.945,0.938"/>
					<g>
						<polygon style="fill:#7F7F7F;" points="108.758,170.884 109.956,170.936 110.007,169.737 110.494,170.268 110.443,171.465 
							109.245,171.414 						"/>
					</g>
				</g>
			</g>
			
				<rect x="116.821" y="161.711" transform="matrix(0.999 -0.0449 0.0449 0.999 -7.1486 11.6022)" style="fill:#FFFFFF;" width="276.324" height="6.799"/>
		</g>
		<g>
			
				<rect x="85.956" y="289.239" transform="matrix(0.999 -0.0449 0.0449 0.999 -13.4792 11.6455)" style="fill:#FFB600;" width="333.652" height="33.939"/>
			<polygon style="fill:#ED9700;" points="92.231,296.43 92.035,292.065 85.363,296.738 			"/>
			<polygon style="fill:#ED9700;" points="418.679,281.774 411.812,282.082 411.616,277.718 			"/>
			<polygon style="fill:#262626;" points="105.246,329.818 90.319,330.489 101.139,296.03 116.067,295.36 			"/>
			<polygon style="fill:#262626;" points="135.107,328.478 120.18,329.148 131.001,294.689 145.928,294.019 			"/>
			<polygon style="fill:#262626;" points="164.969,327.137 150.041,327.807 160.862,293.349 175.789,292.678 			"/>
			<polygon style="fill:#262626;" points="194.83,325.797 179.902,326.467 190.723,292.008 205.65,291.338 			"/>
			<polygon style="fill:#262626;" points="224.691,324.456 209.763,325.126 220.584,290.667 235.511,289.997 			"/>
			<polygon style="fill:#262626;" points="254.552,323.115 239.625,323.785 250.445,289.327 265.372,288.656 			"/>
			<polygon style="fill:#262626;" points="284.413,321.775 269.486,322.445 280.306,287.986 295.233,287.316 			"/>
			<polygon style="fill:#262626;" points="314.274,320.434 299.347,321.104 310.167,286.645 325.095,285.975 			"/>
			<polygon style="fill:#262626;" points="344.135,319.093 329.208,319.763 340.028,285.305 354.956,284.635 			"/>
			<polygon style="fill:#262626;" points="373.996,317.753 359.069,318.423 369.889,283.964 384.817,283.294 			"/>
			<polygon style="fill:#262626;" points="403.857,316.412 388.93,317.082 399.751,282.624 414.678,281.953 			"/>
		</g>
		<text transform="matrix(0.999 -0.0448 0.0448 0.999 141.3945 225.5197)"><tspan x="0" y="0" style="fill:#262626; font-family:'Norwester-Regular'; font-size:34.8533px; letter-spacing:1;">SORRY,</tspan><tspan x="108.009" y="0" style="fill:#FFB600; font-family:'Norwester-Regular'; font-size:34.8533px; letter-spacing:1;"> UNDER</tspan><tspan x="-2.388" y="41.824" style="fill:#FFB600; font-family:'Norwester-Regular'; font-size:34.8533px; letter-spacing:1;">CONSTRUCTION</tspan></text>
	</g>
	<g>
		<path style="opacity:0.2;" d="M168.628,396.48c0,2.33-18.848,4.218-42.099,4.218c-23.251,0-42.099-1.889-42.099-4.218
			c0-2.33,18.848-4.218,42.099-4.218C149.779,392.262,168.628,394.15,168.628,396.48z"/>
		<polygon style="fill:#FF6700;" points="97.844,392.262 155.213,392.262 130.44,330.546 122.617,330.546 		"/>
		<rect x="94.66" y="392.262" style="fill:#DB5800;" width="63.738" height="4.07"/>
		<polygon style="fill:#F2F2F2;" points="155.213,392.262 97.844,392.262 103.22,378.868 149.837,378.868 		"/>
	</g>
	<g>
		<ellipse style="opacity:0.2;" cx="373.892" cy="396.332" rx="42.099" ry="4.218"/>
		<polygon style="fill:#FF6700;" points="345.207,392.262 402.577,392.262 377.804,330.546 369.98,330.546 		"/>
		<rect x="342.023" y="392.262" style="fill:#DB5800;" width="63.738" height="4.07"/>
		<polygon style="fill:#F2F2F2;" points="402.577,392.262 345.207,392.262 350.583,378.868 397.201,378.868 		"/>
	</g>
	<g>
		<path style="fill:#B7B7B7;" d="M244.099,80.705c-0.516-0.779-0.79-1.922-0.79-3.393c0-4.563,3.749-5.326,4.166-5.396l1.272-0.195
			v-6.499c0-0.829-0.671-1.5-1.5-1.5c-0.829,0-1.5,0.671-1.5,1.5v4.059c-2.364,0.842-5.438,3.178-5.438,8.033
			c0,2.103,0.452,3.644,1.071,4.731L244.099,80.705z"/>
		<path style="fill:#B7B7B7;" d="M250.219,82.325c-0.024-0.297-0.143-0.578-0.277-0.845c-0.346-0.687-0.806-1.316-1.355-1.854
			c-0.097,0.697-0.342,1.372-0.706,1.974c-0.194,0.322-0.446,0.698-0.753,0.975c-0.166,0.081-2.465,1.213-3.425,1.685
			c0.805,0.413,1.698,0.632,2.626,0.632c1.017,0,2.068-0.249,3.071-0.747c0.503-0.25,0.798-0.838,0.824-1.362
			C250.222,82.784,250.231,82.472,250.219,82.325z"/>
	</g>
	<polygon style="fill:#FFB600;" points="250.178,65.221 243.75,65.221 238.75,48.329 255.178,48.329 	"/>
	
		<ellipse transform="matrix(0.2307 -0.973 0.973 0.2307 155.6378 267.4744)" style="fill:#444444;" cx="246.964" cy="35.315" rx="9.099" ry="9.099"/>
	<path style="fill:#B7B7B7;" d="M253.398,35.315c0,3.553-2.881,6.434-6.434,6.434c-3.554,0-6.434-2.881-6.434-6.434
		c0-3.553,2.881-6.434,6.434-6.434C250.517,28.881,253.398,31.762,253.398,35.315z"/>
	<rect x="238.75" y="40.5" style="fill:#262626;" width="16.428" height="7.829"/>
</g>
<g id="DESIGNED_BY_FREEPIK">
	<g id="XMLID_76_">
		<g id="XMLID_929_">
			<path id="XMLID_958_" style="fill:#F4F4F4;" d="M181.087,466.606c-0.246,0-0.435,0.085-0.567,0.255
				c-0.133,0.17-0.199,0.422-0.199,0.754v2.392c-0.304-0.331-0.617-0.578-0.937-0.739c-0.321-0.159-0.715-0.239-1.182-0.239
				c-0.807,0-1.458,0.283-1.953,0.848c-0.494,0.566-0.742,1.356-0.742,2.369c0,0.479,0.063,0.924,0.188,1.335
				c0.124,0.412,0.307,0.77,0.549,1.074c0.241,0.305,0.526,0.54,0.857,0.704c0.33,0.164,0.689,0.246,1.078,0.246
				c0.293,0,0.563-0.04,0.809-0.122c0.247-0.081,0.477-0.2,0.689-0.356c0.212-0.156,0.427-0.359,0.644-0.608v0.161
				c0,0.296,0.072,0.524,0.217,0.685c0.145,0.161,0.328,0.241,0.549,0.241c0.226,0,0.409-0.078,0.552-0.232
				c0.143-0.154,0.213-0.386,0.213-0.694v-7.147c0-0.306-0.066-0.534-0.199-0.691C181.521,466.685,181.332,466.606,181.087,466.606z
				 M180.021,473.447c-0.141,0.306-0.329,0.533-0.564,0.682c-0.236,0.149-0.496,0.224-0.781,0.224c-0.281,0-0.54-0.079-0.778-0.236
				c-0.237-0.155-0.424-0.388-0.561-0.696c-0.136-0.309-0.205-0.683-0.205-1.122c0-0.415,0.064-0.78,0.193-1.095
				c0.128-0.315,0.31-0.556,0.543-0.724c0.233-0.168,0.499-0.253,0.795-0.253c0.285,0,0.547,0.082,0.787,0.246
				c0.239,0.165,0.429,0.402,0.569,0.712c0.141,0.311,0.21,0.683,0.21,1.113C180.232,472.757,180.163,473.14,180.021,473.447z"/>
			<path id="XMLID_954_" style="fill:#F4F4F4;" d="M188.452,472.527c0.233-0.122,0.35-0.385,0.35-0.793
				c0-0.439-0.113-0.871-0.338-1.294c-0.225-0.423-0.564-0.77-1.019-1.035c-0.453-0.268-0.996-0.4-1.628-0.4
				c-0.487,0-0.93,0.077-1.33,0.233c-0.4,0.157-0.737,0.381-1.009,0.674c-0.273,0.293-0.48,0.645-0.623,1.054
				c-0.143,0.409-0.214,0.854-0.214,1.332c0,1.017,0.289,1.822,0.867,2.416c0.577,0.593,1.387,0.891,2.427,0.891
				c0.456,0,0.858-0.06,1.207-0.179c0.352-0.119,0.641-0.269,0.874-0.448c0.231-0.18,0.404-0.367,0.519-0.563
				c0.115-0.196,0.172-0.367,0.172-0.514c0-0.166-0.052-0.294-0.155-0.386c-0.103-0.091-0.237-0.137-0.403-0.137
				c-0.154,0-0.273,0.035-0.356,0.107c-0.202,0.19-0.366,0.34-0.492,0.452c-0.126,0.11-0.265,0.215-0.415,0.311
				c-0.15,0.098-0.305,0.167-0.466,0.214c-0.16,0.045-0.337,0.067-0.531,0.067c-0.289,0-0.553-0.07-0.792-0.213
				c-0.239-0.143-0.432-0.354-0.576-0.636c-0.145-0.281-0.219-0.604-0.222-0.973h3.168
				C187.89,472.708,188.219,472.647,188.452,472.527z M184.297,471.788c0.056-0.546,0.212-0.959,0.472-1.238
				c0.259-0.279,0.59-0.418,0.994-0.418c0.423,0,0.764,0.138,1.024,0.412c0.259,0.275,0.409,0.689,0.448,1.244H184.297z"/>
			<path id="XMLID_952_" style="fill:#F4F4F4;" d="M193.878,472.09c-0.319-0.169-0.729-0.315-1.231-0.439
				c-0.424-0.102-0.756-0.189-0.997-0.261c-0.242-0.07-0.434-0.16-0.576-0.27c-0.143-0.108-0.213-0.248-0.213-0.419
				c0-0.186,0.097-0.341,0.291-0.465c0.194-0.126,0.437-0.188,0.73-0.188c0.286,0,0.511,0.047,0.677,0.143
				c0.166,0.095,0.31,0.222,0.433,0.38c0.151,0.189,0.284,0.332,0.401,0.427c0.116,0.095,0.258,0.144,0.424,0.144
				c0.23,0,0.408-0.061,0.532-0.179c0.124-0.119,0.186-0.271,0.186-0.457c0-0.171-0.058-0.345-0.175-0.522
				c-0.116-0.178-0.286-0.34-0.51-0.486c-0.223-0.147-0.502-0.264-0.837-0.35c-0.333-0.088-0.71-0.132-1.13-0.132
				c-0.535,0-0.99,0.086-1.367,0.259c-0.378,0.173-0.665,0.403-0.858,0.691c-0.194,0.289-0.291,0.596-0.291,0.92
				c0,0.363,0.105,0.671,0.315,0.92c0.21,0.249,0.489,0.45,0.84,0.602c0.35,0.153,0.804,0.299,1.362,0.437
				c0.494,0.119,0.849,0.244,1.065,0.374c0.216,0.132,0.323,0.338,0.323,0.623c0,0.187-0.104,0.351-0.311,0.496
				c-0.208,0.145-0.474,0.216-0.798,0.216c-0.4,0-0.715-0.07-0.947-0.213c-0.232-0.143-0.431-0.357-0.597-0.647
				c-0.082-0.149-0.169-0.267-0.261-0.35c-0.091-0.083-0.221-0.125-0.39-0.125c-0.194,0-0.355,0.064-0.481,0.19
				c-0.128,0.127-0.19,0.278-0.19,0.457c0,0.27,0.099,0.537,0.296,0.805c0.198,0.266,0.505,0.489,0.92,0.667
				c0.415,0.178,0.914,0.268,1.495,0.268c0.609,0,1.127-0.082,1.552-0.246c0.425-0.164,0.747-0.406,0.964-0.725
				c0.218-0.318,0.327-0.702,0.327-1.149c0-0.296-0.082-0.56-0.246-0.791C194.438,472.461,194.197,472.26,193.878,472.09z"/>
			<path id="XMLID_950_" style="fill:#F4F4F4;" d="M196.486,469.016c-0.238,0-0.431,0.081-0.579,0.244
				c-0.149,0.162-0.222,0.403-0.222,0.724v4.635c0,0.317,0.073,0.56,0.222,0.73c0.148,0.171,0.341,0.256,0.579,0.256
				c0.238,0,0.433-0.083,0.588-0.249c0.154-0.166,0.232-0.412,0.232-0.737v-4.682c0-0.289-0.078-0.515-0.232-0.677
				C196.919,469.097,196.724,469.016,196.486,469.016z"/>
			<path id="XMLID_949_" style="fill:#F4F4F4;" d="M196.504,466.678c-0.217,0-0.409,0.073-0.573,0.223
				c-0.165,0.148-0.246,0.337-0.246,0.566c0,0.254,0.08,0.45,0.24,0.588c0.16,0.139,0.353,0.208,0.579,0.208
				c0.217,0,0.405-0.07,0.564-0.211c0.158-0.141,0.238-0.335,0.238-0.585c0-0.257-0.081-0.452-0.244-0.587
				C196.9,466.744,196.714,466.678,196.504,466.678z"/>
			<path id="XMLID_945_" style="fill:#F4F4F4;" d="M203.626,469.016c-0.217,0-0.396,0.078-0.535,0.232
				c-0.139,0.155-0.208,0.372-0.208,0.653v0.22c-0.289-0.376-0.602-0.651-0.938-0.828c-0.336-0.176-0.734-0.264-1.193-0.264
				c-0.384,0-0.736,0.068-1.056,0.203c-0.321,0.138-0.604,0.341-0.849,0.609c-0.245,0.269-0.433,0.6-0.566,0.992
				c-0.133,0.391-0.199,0.83-0.199,1.317c0,0.652,0.108,1.228,0.327,1.727c0.217,0.499,0.529,0.886,0.934,1.163
				c0.406,0.277,0.88,0.416,1.422,0.416c0.45,0,0.84-0.091,1.166-0.273c0.327-0.182,0.615-0.447,0.864-0.796
				c-0.008,0.531-0.02,0.915-0.036,1.155c-0.016,0.239-0.07,0.464-0.164,0.673c-0.093,0.21-0.255,0.373-0.486,0.49
				c-0.231,0.117-0.557,0.175-0.977,0.175c-0.205,0-0.387-0.02-0.545-0.056c-0.159-0.038-0.294-0.096-0.406-0.172
				c-0.112-0.078-0.216-0.17-0.309-0.279c-0.093-0.108-0.183-0.218-0.27-0.324c-0.178-0.209-0.386-0.314-0.624-0.314
				c-0.189,0-0.352,0.063-0.486,0.188c-0.135,0.124-0.202,0.285-0.202,0.482c0,0.262,0.119,0.517,0.357,0.764
				c0.238,0.247,0.576,0.448,1.014,0.605c0.439,0.156,0.938,0.234,1.496,0.234c0.609,0,1.119-0.062,1.528-0.185
				c0.409-0.122,0.741-0.311,0.994-0.563c0.253-0.254,0.438-0.574,0.551-0.961c0.115-0.389,0.173-0.851,0.173-1.39v-4.706
				c0-0.384-0.051-0.678-0.155-0.882C204.146,469.118,203.938,469.016,203.626,469.016z M202.6,473.382
				c-0.151,0.29-0.346,0.508-0.586,0.652c-0.239,0.145-0.493,0.217-0.762,0.217c-0.455,0-0.826-0.168-1.113-0.505
				c-0.287-0.336-0.43-0.833-0.43-1.489c0-0.648,0.139-1.15,0.418-1.502c0.279-0.352,0.649-0.528,1.113-0.528
				c0.475,0,0.857,0.185,1.148,0.553c0.291,0.367,0.436,0.883,0.436,1.543C202.825,472.737,202.749,473.091,202.6,473.382z"/>
			<path id="XMLID_944_" style="fill:#F4F4F4;" d="M210.978,470.084c-0.165-0.34-0.417-0.603-0.753-0.789
				c-0.337-0.185-0.718-0.279-1.146-0.279c-0.44,0-0.828,0.088-1.166,0.265c-0.339,0.176-0.651,0.452-0.935,0.828v-0.196
				c0-0.193-0.034-0.358-0.104-0.493c-0.07-0.133-0.162-0.234-0.276-0.302c-0.115-0.067-0.244-0.102-0.387-0.102
				c-0.233,0-0.417,0.076-0.552,0.229c-0.134,0.152-0.201,0.383-0.201,0.692v4.682c0,0.317,0.076,0.56,0.226,0.73
				c0.15,0.171,0.342,0.256,0.576,0.256c0.241,0,0.438-0.082,0.59-0.246c0.152-0.164,0.228-0.411,0.228-0.74v-2.029
				c0-0.661,0.04-1.111,0.119-1.353c0.11-0.301,0.284-0.537,0.522-0.71c0.237-0.173,0.5-0.258,0.788-0.258
				c0.444,0,0.74,0.142,0.888,0.424c0.148,0.283,0.223,0.692,0.223,1.226v2.7c0,0.317,0.074,0.56,0.226,0.73
				c0.15,0.171,0.346,0.256,0.587,0.256c0.238,0,0.431-0.083,0.579-0.249c0.148-0.166,0.223-0.412,0.223-0.737v-3.015
				c0-0.356-0.017-0.648-0.048-0.878C211.155,470.496,211.085,470.282,210.978,470.084z"/>
			<path id="XMLID_939_" style="fill:#F4F4F4;" d="M217.821,472.527c0.233-0.122,0.35-0.385,0.35-0.793
				c0-0.439-0.113-0.871-0.338-1.294c-0.226-0.423-0.565-0.77-1.019-1.035c-0.453-0.268-0.996-0.4-1.628-0.4
				c-0.487,0-0.93,0.077-1.33,0.233c-0.399,0.157-0.736,0.381-1.009,0.674c-0.274,0.293-0.481,0.645-0.624,1.054
				c-0.142,0.409-0.213,0.854-0.213,1.332c0,1.017,0.289,1.822,0.866,2.416c0.578,0.593,1.387,0.891,2.428,0.891
				c0.455,0,0.858-0.06,1.208-0.179c0.351-0.119,0.64-0.269,0.872-0.448c0.232-0.18,0.405-0.367,0.52-0.563
				c0.115-0.196,0.172-0.367,0.172-0.514c0-0.166-0.051-0.294-0.154-0.386c-0.103-0.091-0.238-0.137-0.404-0.137
				c-0.154,0-0.273,0.035-0.357,0.107c-0.201,0.19-0.366,0.34-0.492,0.452c-0.128,0.11-0.266,0.215-0.415,0.311
				c-0.151,0.098-0.307,0.167-0.466,0.214c-0.161,0.045-0.338,0.067-0.532,0.067c-0.288,0-0.553-0.07-0.792-0.213
				c-0.239-0.143-0.431-0.354-0.576-0.636c-0.145-0.281-0.218-0.604-0.223-0.973h3.169
				C217.26,472.708,217.588,472.647,217.821,472.527z M213.666,471.788c0.056-0.546,0.212-0.959,0.471-1.238
				c0.259-0.279,0.591-0.418,0.995-0.418c0.424,0,0.765,0.138,1.024,0.412c0.259,0.275,0.409,0.689,0.448,1.244H213.666z"/>
			<path id="XMLID_936_" style="fill:#F4F4F4;" d="M224.206,466.606c-0.245,0-0.434,0.085-0.567,0.255
				c-0.132,0.17-0.199,0.422-0.199,0.754v2.392c-0.304-0.331-0.617-0.578-0.938-0.739c-0.32-0.159-0.714-0.239-1.181-0.239
				c-0.808,0-1.458,0.283-1.953,0.848c-0.495,0.566-0.741,1.356-0.741,2.369c0,0.479,0.062,0.924,0.187,1.335
				c0.124,0.412,0.308,0.77,0.549,1.074c0.241,0.305,0.527,0.54,0.857,0.704c0.33,0.164,0.689,0.246,1.077,0.246
				c0.293,0,0.563-0.04,0.811-0.122c0.247-0.081,0.476-0.2,0.688-0.356c0.211-0.156,0.426-0.359,0.644-0.608v0.161
				c0,0.296,0.072,0.524,0.217,0.685c0.145,0.161,0.328,0.241,0.549,0.241c0.226,0,0.41-0.078,0.552-0.232
				c0.143-0.154,0.213-0.386,0.213-0.694v-7.147c0-0.306-0.065-0.534-0.199-0.691C224.641,466.685,224.452,466.606,224.206,466.606z
				 M223.141,473.447c-0.14,0.306-0.328,0.533-0.564,0.682c-0.235,0.149-0.495,0.224-0.781,0.224c-0.281,0-0.54-0.079-0.776-0.236
				c-0.238-0.155-0.425-0.388-0.562-0.696c-0.137-0.309-0.205-0.683-0.205-1.122c0-0.415,0.064-0.78,0.193-1.095
				c0.129-0.315,0.31-0.556,0.543-0.724c0.233-0.168,0.5-0.253,0.795-0.253c0.285,0,0.547,0.082,0.787,0.246
				c0.239,0.165,0.43,0.402,0.57,0.712c0.141,0.311,0.21,0.683,0.21,1.113C223.352,472.757,223.282,473.14,223.141,473.447z"/>
			<path id="XMLID_933_" style="fill:#F4F4F4;" d="M233.586,469.41c-0.406-0.255-0.877-0.382-1.415-0.382
				c-0.467,0-0.859,0.084-1.175,0.252c-0.317,0.168-0.627,0.41-0.932,0.727v-2.475c0-0.297-0.068-0.524-0.202-0.685
				c-0.135-0.16-0.326-0.24-0.576-0.24c-0.237,0-0.423,0.084-0.555,0.252c-0.133,0.168-0.198,0.417-0.198,0.745v7.075
				c0,0.304,0.068,0.535,0.205,0.691c0.136,0.156,0.319,0.234,0.549,0.234c0.226,0,0.412-0.078,0.558-0.234
				c0.146-0.156,0.22-0.388,0.22-0.691v-0.161c0.178,0.205,0.322,0.361,0.43,0.463c0.109,0.104,0.241,0.204,0.395,0.3
				c0.154,0.098,0.341,0.176,0.561,0.234c0.22,0.06,0.454,0.09,0.704,0.09c0.407,0,0.781-0.082,1.119-0.246
				c0.338-0.164,0.626-0.397,0.864-0.698c0.237-0.301,0.418-0.656,0.543-1.065c0.124-0.41,0.187-0.858,0.187-1.35
				c0-0.665-0.112-1.24-0.336-1.725C234.305,470.036,233.991,469.666,233.586,469.41z M232.796,473.821
				c-0.295,0.355-0.646,0.531-1.053,0.531c-0.479,0-0.866-0.174-1.161-0.521c-0.295-0.346-0.442-0.841-0.442-1.486
				c0-0.439,0.069-0.818,0.208-1.137c0.139-0.318,0.328-0.562,0.57-0.73c0.24-0.168,0.516-0.253,0.825-0.253
				c0.3,0,0.564,0.085,0.79,0.253c0.225,0.168,0.399,0.406,0.521,0.715c0.123,0.309,0.184,0.677,0.184,1.104
				C233.238,472.959,233.09,473.467,232.796,473.821z"/>
			<path id="XMLID_931_" style="fill:#F4F4F4;" d="M240.529,469.114c-0.112-0.066-0.23-0.099-0.353-0.099
				c-0.171,0-0.302,0.03-0.395,0.09c-0.093,0.059-0.181,0.174-0.264,0.344c-0.083,0.17-0.176,0.406-0.279,0.706l-1.3,3.71
				l-1.372-3.989c-0.091-0.276-0.195-0.489-0.314-0.638c-0.119-0.148-0.295-0.223-0.528-0.223c-0.135,0-0.265,0.036-0.389,0.107
				c-0.124,0.071-0.222,0.166-0.294,0.285c-0.071,0.118-0.107,0.246-0.107,0.385c0,0.131,0.062,0.342,0.185,0.629l1.994,5.021
				l-0.148,0.362c-0.111,0.266-0.209,0.466-0.294,0.602c-0.085,0.138-0.181,0.233-0.288,0.288c-0.106,0.057-0.254,0.084-0.44,0.084
				c-0.074,0-0.163-0.012-0.266-0.035c-0.083-0.024-0.168-0.037-0.256-0.037c-0.221,0-0.388,0.052-0.5,0.152
				c-0.113,0.101-0.169,0.245-0.169,0.43c0,0.273,0.119,0.461,0.356,0.565c0.237,0.102,0.593,0.153,1.068,0.153
				c0.487,0,0.873-0.074,1.161-0.223c0.287-0.147,0.517-0.361,0.691-0.639c0.174-0.277,0.353-0.658,0.535-1.145l2.113-5.532
				c0.051-0.142,0.095-0.283,0.13-0.421c0.037-0.139,0.061-0.246,0.078-0.32c0-0.123-0.032-0.239-0.093-0.351
				C240.729,469.268,240.642,469.18,240.529,469.114z"/>
		</g>
		<g id="XMLID_365_">
			<g id="XMLID_380_">
				<path id="XMLID_928_" style="fill:#F4F4F4;" d="M262.93,466.602c-0.533,0-0.954,0.069-1.26,0.205
					c-0.308,0.137-0.527,0.354-0.654,0.652c-0.13,0.301-0.191,0.702-0.191,1.21v0.487h-0.387c-0.543,0-0.815,0.192-0.815,0.582
					c0,0.174,0.066,0.316,0.196,0.424c0.132,0.111,0.315,0.163,0.559,0.163h0.446v4.294c0,0.319,0.074,0.563,0.228,0.729
					c0.154,0.171,0.344,0.254,0.573,0.254c0.243,0,0.439-0.083,0.589-0.254c0.155-0.167,0.23-0.41,0.23-0.729v-4.294h0.395
					c0.291,0,0.517-0.035,0.681-0.107c0.166-0.07,0.245-0.24,0.245-0.502c0-0.374-0.307-0.559-0.926-0.559h-0.395v-0.386
					c0-0.322,0.043-0.568,0.122-0.74c0.087-0.171,0.273-0.259,0.565-0.259c0.107,0,0.241,0.014,0.39,0.033
					c0.155,0.026,0.268,0.038,0.33,0.038c0.134,0,0.252-0.054,0.348-0.159c0.101-0.107,0.15-0.236,0.15-0.385
					C264.35,466.832,263.879,466.602,262.93,466.602z"/>
				<path id="XMLID_926_" style="fill:#F4F4F4;" d="M268.089,469.268c-0.32-0.171-0.647-0.255-0.99-0.255
					c-0.342,0-0.61,0.084-0.818,0.255c-0.202,0.171-0.4,0.422-0.593,0.755c-0.014-0.333-0.08-0.584-0.198-0.755
					c-0.119-0.171-0.313-0.255-0.583-0.255c-0.525,0-0.788,0.364-0.788,1.093v4.514c0,0.323,0.078,0.568,0.226,0.733
					c0.149,0.169,0.34,0.25,0.579,0.25c0.236,0,0.432-0.08,0.586-0.246c0.15-0.163,0.233-0.41,0.233-0.737v-1.355
					c0-0.486,0.014-0.899,0.045-1.239c0.033-0.336,0.089-0.63,0.17-0.877c0.084-0.243,0.201-0.426,0.353-0.554
					c0.149-0.122,0.345-0.186,0.582-0.186c0.172,0,0.374,0.037,0.602,0.108c0.227,0.073,0.371,0.112,0.433,0.112
					c0.158,0,0.305-0.064,0.441-0.195c0.135-0.125,0.204-0.291,0.204-0.487C268.571,469.666,268.411,469.439,268.089,469.268z"/>
				<path id="XMLID_922_" style="fill:#F4F4F4;" d="M274.176,472.525c0.232-0.122,0.351-0.386,0.351-0.791
					c0-0.441-0.112-0.871-0.339-1.296c-0.222-0.424-0.565-0.77-1.018-1.034c-0.453-0.27-0.997-0.403-1.629-0.403
					c-0.488,0-0.931,0.078-1.329,0.233c-0.401,0.156-0.735,0.38-1.008,0.674c-0.276,0.295-0.484,0.644-0.624,1.055
					c-0.145,0.41-0.218,0.855-0.218,1.334c0,1.017,0.292,1.822,0.87,2.417c0.576,0.594,1.385,0.889,2.429,0.889
					c0.453,0,0.857-0.06,1.207-0.179c0.349-0.116,0.64-0.267,0.874-0.446c0.232-0.182,0.404-0.367,0.522-0.566
					c0.111-0.194,0.167-0.364,0.167-0.512c0-0.166-0.048-0.293-0.152-0.386c-0.104-0.092-0.237-0.139-0.405-0.139
					c-0.152,0-0.271,0.038-0.355,0.109c-0.202,0.189-0.367,0.34-0.493,0.449c-0.128,0.113-0.264,0.217-0.415,0.311
					c-0.15,0.098-0.308,0.17-0.466,0.214c-0.16,0.048-0.336,0.068-0.531,0.068c-0.29,0-0.552-0.069-0.792-0.212
					c-0.241-0.145-0.432-0.355-0.578-0.635c-0.145-0.281-0.216-0.607-0.222-0.974h3.171
					C273.615,472.707,273.942,472.647,274.176,472.525z M270.021,471.785c0.055-0.546,0.213-0.957,0.472-1.236
					c0.26-0.28,0.592-0.417,0.995-0.417c0.426,0,0.764,0.136,1.024,0.412c0.261,0.272,0.407,0.688,0.446,1.241H270.021z"/>
				<path id="XMLID_919_" style="fill:#F4F4F4;" d="M280.916,472.525c0.232-0.122,0.352-0.386,0.352-0.791
					c0-0.441-0.116-0.871-0.341-1.296c-0.223-0.424-0.564-0.77-1.013-1.034c-0.46-0.27-1.003-0.403-1.634-0.403
					c-0.486,0-0.932,0.078-1.33,0.233c-0.4,0.156-0.736,0.38-1.009,0.674c-0.273,0.295-0.48,0.644-0.622,1.055
					c-0.145,0.41-0.217,0.855-0.217,1.334c0,1.017,0.29,1.822,0.867,2.417c0.58,0.594,1.387,0.889,2.43,0.889
					c0.453,0,0.859-0.06,1.208-0.179c0.347-0.116,0.641-0.267,0.872-0.446c0.234-0.182,0.408-0.367,0.518-0.566
					c0.116-0.194,0.171-0.364,0.171-0.512c0-0.166-0.047-0.293-0.15-0.386c-0.104-0.092-0.238-0.139-0.406-0.139
					c-0.151,0-0.271,0.038-0.355,0.109c-0.202,0.189-0.367,0.34-0.492,0.449c-0.128,0.113-0.264,0.217-0.415,0.311
					c-0.152,0.098-0.307,0.17-0.469,0.214c-0.157,0.048-0.335,0.068-0.527,0.068c-0.291,0-0.556-0.069-0.795-0.212
					c-0.238-0.145-0.431-0.355-0.575-0.635c-0.144-0.281-0.218-0.607-0.222-0.974h3.17
					C280.354,472.707,280.682,472.647,280.916,472.525z M276.762,471.785c0.053-0.546,0.211-0.957,0.47-1.236
					c0.26-0.28,0.592-0.417,0.995-0.417c0.425,0,0.764,0.136,1.026,0.412c0.257,0.272,0.407,0.688,0.446,1.241H276.762z"/>
				<path id="XMLID_390_" style="fill:#F4F4F4;" d="M286.927,469.41c-0.42-0.257-0.883-0.386-1.38-0.386
					c-0.414,0-0.789,0.089-1.113,0.267c-0.331,0.177-0.648,0.452-0.952,0.827v-0.194c0-0.296-0.071-0.518-0.218-0.678
					c-0.144-0.155-0.329-0.233-0.561-0.233c-0.232,0-0.418,0.078-0.553,0.228c-0.133,0.155-0.2,0.382-0.2,0.692v6.994
					c0,0.355,0.052,0.62,0.146,0.807c0.102,0.184,0.301,0.274,0.606,0.274c0.518,0,0.778-0.358,0.778-1.068v-2.433
					c0.286,0.358,0.586,0.634,0.9,0.816c0.313,0.187,0.704,0.279,1.165,0.279c0.386,0,0.742-0.076,1.08-0.227
					c0.334-0.152,0.622-0.372,0.868-0.653c0.245-0.283,0.44-0.633,0.58-1.05c0.14-0.419,0.21-0.878,0.21-1.376
					c0-0.677-0.122-1.261-0.366-1.758C287.675,470.045,287.346,469.669,286.927,469.41z M286.45,473.413
					c-0.137,0.313-0.32,0.547-0.552,0.704c-0.23,0.154-0.48,0.232-0.748,0.232c-0.454,0-0.828-0.179-1.133-0.536
					c-0.307-0.358-0.459-0.862-0.459-1.504c0-0.686,0.154-1.204,0.461-1.558c0.307-0.35,0.685-0.527,1.131-0.527
					c0.281,0,0.54,0.084,0.77,0.248c0.229,0.163,0.411,0.397,0.542,0.705c0.13,0.306,0.196,0.673,0.196,1.101
					C286.658,472.722,286.588,473.1,286.45,473.413z"/>
				<path id="XMLID_389_" style="fill:#F4F4F4;" d="M289.9,469.013c-0.238,0-0.428,0.079-0.58,0.245
					c-0.145,0.162-0.222,0.402-0.222,0.721v4.642c0,0.314,0.076,0.556,0.222,0.729c0.152,0.171,0.342,0.254,0.58,0.254
					c0.237,0,0.432-0.081,0.588-0.25c0.154-0.165,0.231-0.41,0.231-0.732v-4.688c0-0.287-0.077-0.513-0.231-0.675
					C290.332,469.092,290.138,469.013,289.9,469.013z"/>
				<path id="XMLID_388_" style="fill:#F4F4F4;" d="M289.917,466.673c-0.217,0-0.407,0.076-0.571,0.223
					c-0.166,0.149-0.247,0.339-0.247,0.567c0,0.254,0.08,0.447,0.242,0.586c0.158,0.139,0.35,0.209,0.576,0.209
					c0.22,0,0.408-0.07,0.566-0.209c0.157-0.141,0.236-0.335,0.236-0.586c0-0.256-0.082-0.453-0.244-0.59
					C290.314,466.739,290.13,466.673,289.917,466.673z"/>
				<path id="XMLID_387_" style="fill:#F4F4F4;" d="M297.258,474.042l-1.662-2.613l0.86-0.789c0.438-0.395,0.659-0.714,0.659-0.95
					c0-0.192-0.068-0.355-0.2-0.483c-0.138-0.129-0.306-0.193-0.509-0.193c-0.169,0-0.313,0.044-0.432,0.13
					c-0.121,0.086-0.29,0.252-0.517,0.486l-1.822,1.914v-3.933c0-0.33-0.074-0.582-0.221-0.751
					c-0.147-0.172-0.344-0.258-0.593-0.258c-0.256,0-0.457,0.093-0.596,0.283c-0.136,0.189-0.207,0.463-0.207,0.821v6.913
					c0,0.323,0.073,0.568,0.215,0.733c0.141,0.169,0.339,0.25,0.588,0.25c0.213,0,0.405-0.083,0.566-0.254
					c0.164-0.167,0.247-0.406,0.247-0.718v-1.291l0.88-0.83l1.428,2.354c0.182,0.277,0.329,0.471,0.436,0.58
					c0.106,0.108,0.261,0.159,0.458,0.159c0.227,0,0.413-0.073,0.554-0.221c0.142-0.151,0.214-0.352,0.214-0.609
					c0-0.089-0.029-0.19-0.082-0.289C297.47,474.382,297.379,474.238,297.258,474.042z"/>
				<path id="XMLID_386_" style="fill:#F4F4F4;" d="M299.449,473.816c-0.25,0-0.458,0.086-0.629,0.261
					c-0.171,0.173-0.257,0.382-0.257,0.622c0,0.287,0.091,0.51,0.268,0.666c0.18,0.159,0.39,0.237,0.634,0.237
					c0.237,0,0.444-0.078,0.624-0.241c0.174-0.157,0.264-0.379,0.264-0.662c0-0.243-0.09-0.454-0.264-0.626
					C299.909,473.902,299.698,473.816,299.449,473.816z"/>
				<path id="XMLID_385_" style="fill:#F4F4F4;" d="M306.835,472.89c-0.166,0-0.308,0.054-0.422,0.155
					c-0.113,0.105-0.219,0.246-0.318,0.428c-0.177,0.31-0.381,0.538-0.616,0.688c-0.23,0.15-0.509,0.226-0.834,0.226
					c-0.24,0-0.463-0.045-0.666-0.142c-0.201-0.093-0.372-0.228-0.516-0.408c-0.144-0.18-0.252-0.398-0.325-0.652
					c-0.075-0.256-0.114-0.537-0.114-0.843c0-0.646,0.146-1.161,0.439-1.533c0.293-0.375,0.682-0.561,1.158-0.561
					c0.333,0,0.606,0.075,0.82,0.228c0.219,0.147,0.424,0.375,0.623,0.674c0.108,0.157,0.209,0.269,0.299,0.339
					c0.09,0.068,0.201,0.103,0.338,0.103c0.202,0,0.377-0.068,0.524-0.202c0.143-0.135,0.214-0.301,0.214-0.492
					c0-0.191-0.062-0.398-0.192-0.617c-0.127-0.218-0.314-0.423-0.556-0.619c-0.245-0.192-0.54-0.353-0.891-0.475
					c-0.353-0.123-0.736-0.184-1.156-0.184c-0.674,0-1.26,0.139-1.747,0.419c-0.485,0.279-0.858,0.674-1.113,1.184
					c-0.259,0.511-0.387,1.098-0.387,1.765c0,0.981,0.281,1.764,0.841,2.349c0.563,0.583,1.345,0.876,2.349,0.876
					c0.469,0,0.894-0.065,1.269-0.191c0.377-0.126,0.688-0.295,0.935-0.502c0.248-0.208,0.434-0.425,0.553-0.656
					c0.122-0.229,0.183-0.446,0.183-0.646c0-0.169-0.067-0.33-0.199-0.48C307.198,472.967,307.033,472.89,306.835,472.89z"/>
				<path id="XMLID_382_" style="fill:#F4F4F4;" d="M313.646,469.926c-0.288-0.29-0.628-0.518-1.026-0.674
					c-0.4-0.161-0.847-0.239-1.336-0.239c-0.482,0-0.924,0.078-1.326,0.233c-0.398,0.158-0.737,0.381-1.02,0.669
					c-0.281,0.288-0.498,0.637-0.649,1.045c-0.146,0.408-0.224,0.858-0.224,1.35c0,0.485,0.076,0.929,0.22,1.331
					c0.151,0.401,0.368,0.75,0.656,1.048c0.285,0.292,0.627,0.521,1.017,0.677c0.393,0.159,0.835,0.239,1.326,0.239
					c0.492,0,0.937-0.08,1.336-0.234c0.394-0.158,0.735-0.383,1.02-0.676c0.286-0.291,0.501-0.641,0.656-1.049
					c0.146-0.408,0.222-0.855,0.222-1.336c0-0.489-0.075-0.932-0.221-1.339C314.148,470.569,313.934,470.223,313.646,469.926z
					 M312.455,473.842c-0.29,0.372-0.682,0.557-1.171,0.557c-0.324,0-0.604-0.086-0.846-0.252c-0.24-0.168-0.424-0.41-0.554-0.729
					c-0.13-0.317-0.193-0.685-0.193-1.108c0-0.429,0.066-0.804,0.197-1.125c0.131-0.321,0.314-0.564,0.556-0.727
					c0.242-0.164,0.521-0.246,0.84-0.246c0.489,0,0.881,0.183,1.171,0.555c0.289,0.367,0.436,0.881,0.436,1.543
					C312.891,472.96,312.744,473.473,312.455,473.842z"/>
				<path id="XMLID_381_" style="fill:#F4F4F4;" d="M323.569,469.286c-0.32-0.173-0.705-0.262-1.146-0.262
					c-0.381,0-0.726,0.081-1.038,0.241c-0.314,0.161-0.607,0.407-0.882,0.737c-0.191-0.325-0.431-0.572-0.725-0.735
					c-0.292-0.161-0.642-0.243-1.048-0.243c-0.395,0-0.748,0.079-1.07,0.241c-0.319,0.155-0.62,0.403-0.903,0.737v-0.153
					c0-0.261-0.073-0.466-0.222-0.615c-0.15-0.145-0.334-0.222-0.557-0.222c-0.226,0-0.412,0.078-0.556,0.239
					c-0.14,0.156-0.21,0.389-0.21,0.694v4.636c0,0.336,0.078,0.591,0.235,0.765c0.156,0.171,0.358,0.258,0.605,0.258
					c0.248,0,0.447-0.087,0.603-0.258c0.149-0.174,0.227-0.429,0.227-0.765v-2.188c0-0.684,0.086-1.206,0.253-1.566
					c0.169-0.369,0.517-0.551,1.048-0.551c0.264,0,0.459,0.072,0.582,0.22c0.121,0.142,0.197,0.331,0.226,0.552
					c0.027,0.227,0.04,0.544,0.04,0.953v2.581c0,0.341,0.078,0.594,0.232,0.767c0.148,0.171,0.35,0.256,0.595,0.256
					c0.254,0,0.454-0.085,0.61-0.256c0.156-0.173,0.23-0.426,0.23-0.767v-2.153c0-0.694,0.063-1.178,0.178-1.453
					c0.109-0.209,0.259-0.383,0.45-0.508c0.192-0.125,0.395-0.191,0.609-0.191c0.264,0,0.463,0.072,0.596,0.215
					c0.128,0.142,0.209,0.318,0.238,0.529c0.029,0.209,0.044,0.486,0.044,0.836v2.726c0,0.336,0.078,0.591,0.234,0.765
					c0.157,0.171,0.356,0.258,0.604,0.258c0.252,0,0.458-0.085,0.611-0.256c0.154-0.173,0.229-0.426,0.229-0.767v-3.164
					c0-0.629-0.068-1.09-0.206-1.385C324.128,469.71,323.889,469.46,323.569,469.286z"/>
			</g>
			<g id="XMLID_366_">
				<path id="XMLID_379_" style="fill:#F4F4F4;" d="M245.273,471.917c-0.001-0.004-0.001-0.006-0.001-0.011
					C245.272,471.911,245.272,471.913,245.273,471.917z"/>
				<path id="XMLID_378_" style="fill:#F4F4F4;" d="M245.355,472.435c0.001,0,0.001,0,0.001,0c-0.03-0.147-0.055-0.294-0.073-0.439
					C245.301,472.143,245.326,472.289,245.355,472.435z"/>
				<path id="XMLID_377_" style="fill:#F4F4F4;" d="M245.892,473.939c-0.004-0.006-0.007-0.013-0.011-0.021
					C245.885,473.926,245.888,473.933,245.892,473.939z"/>
				<path id="XMLID_376_" style="fill:#F4F4F4;" d="M245.84,473.839c-0.014-0.027-0.027-0.057-0.04-0.084
					C245.813,473.784,245.826,473.811,245.84,473.839z"/>
				<path id="XMLID_375_" style="fill:#F4F4F4;" d="M245.506,473.015c0.079,0.25,0.175,0.492,0.285,0.724
					c-0.113-0.236-0.206-0.48-0.284-0.724H245.506z"/>
				<path id="XMLID_374_" style="fill:#F4F4F4;" d="M250.736,465.154l-0.076-0.26c0.299-0.063,0.523-0.328,0.523-0.646
					c0-0.364-0.296-0.659-0.66-0.659c-0.365,0-0.66,0.295-0.66,0.659c0,0.317,0.225,0.583,0.522,0.646l0.084,0.29
					c-1.021,0.14-1.834,0.538-1.834,0.538l0.144,0.441c0.617-0.206,1.153-0.331,1.639-0.384c0.476-0.051,0.834-0.072,1.126-0.072
					c0.314,0,0.545,0.024,0.81,0.068l0.075-0.476C252.43,465.301,251.697,465.076,250.736,465.154z"/>
				<path id="XMLID_373_" style="fill:#F4F4F4;" d="M245.453,467.661c-0.017,0.023-0.497,0.465-0.876,1.279
					c-0.016-0.025-0.035-0.05-0.056-0.074c-0.114-0.124-0.273-0.188-0.474-0.184c-0.003,0-0.006,0-0.01,0
					c-0.125,0-0.21-0.041-0.266-0.092c0.056-0.071,0.089-0.161,0.089-0.259c0-0.23-0.188-0.418-0.419-0.418
					c-0.23,0-0.418,0.188-0.418,0.418c0,0.232,0.188,0.418,0.418,0.418c0.037,0,0.071-0.006,0.105-0.013
					c0.102,0.114,0.266,0.214,0.504,0.209c0.123-0.001,0.214,0.03,0.273,0.097c0.07,0.076,0.093,0.185,0.1,0.267
					c0,0.002,0,0.004-0.002,0.004c-0.272,0.743-0.194,1.669-0.194,1.669l0.661,0.025c0.014-0.336,0.062-0.926,0.232-1.394
					c0.329-0.906,0.741-1.472,0.758-1.495l0.003-0.005c0.024-0.031,0.047-0.061,0.071-0.089l-0.196-0.143L245.453,467.661z"/>
				<path id="XMLID_372_" style="fill:#F4F4F4;" d="M257.294,466.26c-0.23,0-0.419,0.188-0.419,0.418
					c0,0.036,0.006,0.07,0.015,0.104c-0.114,0.103-0.214,0.267-0.21,0.507c0.002,0.123-0.03,0.212-0.097,0.272
					c-0.053,0.047-0.119,0.072-0.185,0.088c-0.492-0.689-1.098-1.109-1.098-1.109l-0.474,0.508c0.358,0.326,0.725,0.734,1.08,1.244
					c0.246,0.352,0.499,0.806,0.71,1.259l0.64-0.304c0,0-0.292-0.722-0.703-1.369c0.071-0.025,0.143-0.065,0.206-0.12
					c0.125-0.113,0.188-0.273,0.184-0.474c-0.001-0.13,0.041-0.218,0.093-0.276c0.071,0.055,0.16,0.089,0.258,0.089
					c0.232,0,0.418-0.188,0.418-0.418C257.712,466.447,257.525,466.26,257.294,466.26z"/>
				<path id="XMLID_371_" style="fill:#F4F4F4;" d="M255.633,472.011c-0.88,0.429-2.33,0.995-4.236,1.262
					c-0.749,0.104-1.475,0.142-2.143,0.142c-0.869,0-1.637-0.064-2.227-0.139c-0.672-0.085-1.198-0.188-1.52-0.261
					c0.078,0.244,0.171,0.487,0.284,0.724c0.002,0.006,0.005,0.013,0.008,0.017c0.013,0.027,0.027,0.057,0.04,0.084
					c0.014,0.027,0.027,0.054,0.041,0.079c0.004,0.008,0.007,0.015,0.011,0.021c0.189,0.356,0.417,0.684,0.675,0.968
					c0.899,0.984,1.816,1.14,1.825,1.142l0.015,0.002l0.013,0.005c0.009,0.003,0.821,0.265,2.057,0.265
					c1.215,0,2.409-0.245,3.545-0.729c0.842-0.431,1.639-1.085,2.033-1.669c0.305-0.451,0.526-0.934,0.656-1.434
					c0.069-0.266,0.124-0.692,0.092-1.14C256.555,471.515,256.163,471.752,255.633,472.011z"/>
				<path id="XMLID_367_" style="fill:#F4F4F4;" d="M252.322,466.128c-0.265-0.043-0.477-0.068-0.777-0.068
					c-0.279,0-0.626,0.022-1.088,0.071c-0.465,0.049-0.982,0.171-1.583,0.373c-0.842,0.281-1.603,0.724-2.204,1.279l-0.02,0.019
					c-0.089,0.081-0.274,0.254-0.488,0.525c-0.025,0.038-0.408,0.578-0.709,1.408c-0.226,0.622-0.216,1.526-0.216,1.537v0.002
					c0,0.212,0.013,0.423,0.036,0.632c0,0.005,0,0.007,0.001,0.011c0.002,0.026,0.007,0.053,0.01,0.079
					c0.018,0.145,0.043,0.291,0.074,0.439c0.438,0.111,3.048,0.721,5.966,0.314c1.828-0.255,3.218-0.796,4.061-1.204
					c0.701-0.34,1.151-0.647,1.325-0.774c-0.174-0.643-0.651-1.649-1.089-2.278C254.367,466.702,253.016,466.242,252.322,466.128z
					 M248.679,471.387c-0.971,0-1.759-0.787-1.759-1.759c0-0.972,0.788-1.761,1.759-1.761c0.973,0,1.761,0.789,1.761,1.761
					C250.439,470.6,249.651,471.387,248.679,471.387z M253.828,470.09c-0.601,0-1.088-0.488-1.088-1.09s0.487-1.089,1.088-1.089
					s1.09,0.487,1.09,1.089S254.429,470.09,253.828,470.09z"/>
			</g>
		</g>
	</g>
</g>
</svg>
